  0
SECTION
  2
HEADER
  9
$ACADVER
  1
AC1014
  9
$HANDSEED
  5
FFFF
  9
$MEASUREMENT
 70
     1
  0
ENDSEC
  0
SECTION
  2
TABLES
  0
TABLE
  2
VPORT
  5
8
330
0
100
AcDbSymbolTable
 70
     4
  0
VPORT
  5
2E
330
8
100
AcDbSymbolTableRecord
100
AcDbViewportTableRecord
  2
*ACTIVE
 70
     0
 10
0.0
 20
0.0
 11
1.0
 21
1.0
 12
210.0
 22
148.5
 13
0.0
 23
0.0
 14
10.0
 24
10.0
 15
10.0
 25
10.0
 16
0.0
 26
0.0
 36
1.0
 17
0.0
 27
0.0
 37
0.0
 40
341.0
 41
1.24
 42
50.0
 43
0.0
 44
0.0
 50
0.0
 51
0.0
 71
     0
 72
   100
 73
     1
 74
     3
 75
     0
 76
     0
 77
     0
 78
     0
  0
ENDTAB
  0
TABLE
  2
LTYPE
  5
5
330
0
100
AcDbSymbolTable
 70
     1
  0
LTYPE
  5
14
330
5
100
AcDbSymbolTableRecord
100
AcDbLinetypeTableRecord
  2
BYBLOCK
 70
     0
  3

 72
    65
 73
     0
 40
0.0
  0
LTYPE
  5
15
330
5
100
AcDbSymbolTableRecord
100
AcDbLinetypeTableRecord
  2
BYLAYER
 70
     0
  3

 72
    65
 73
     0
 40
0.0
  0
LTYPE
  5
16
330
5
100
AcDbSymbolTableRecord
100
AcDbLinetypeTableRecord
  2
CONTINUOUS
 70
     0
  3
Solid line
 72
    65
 73
     0
 40
0.0
  0
ENDTAB
  0
TABLE
  2
LAYER
  5
2
100
AcDbSymbolTable
 70
2
  0
LAYER
  5
50
100
AcDbSymbolTableRecord
100
AcDbLayerTableRecord
  2
0
 70
0
  6
CONTINUOUS
  0
LAYER
  5
51
100
AcDbSymbolTableRecord
100
AcDbLayerTableRecord
  2
Layer_1
 70
0
  6
CONTINUOUS
  0
ENDTAB
  0
TABLE
  2
STYLE
  5
3
330
0
100
AcDbSymbolTable
 70
     1
  0
STYLE
  5
11
330
3
100
AcDbSymbolTableRecord
100
AcDbTextStyleTableRecord
  2
STANDARD
 70
     0
 40
0.0
 41
1.0
 50
0.0
 71
     0
 42
2.5
  3
txt
  4

  0
ENDTAB
  0
TABLE
  2
VIEW
  5
6
330
0
100
AcDbSymbolTable
 70
     0
  0
ENDTAB
  0
TABLE
  2
UCS
  5
7
330
0
100
AcDbSymbolTable
 70
     0
  0
ENDTAB
  0
TABLE
  2
APPID
  5
9
330
0
100
AcDbSymbolTable
 70
     2
  0
APPID
  5
12
330
9
100
AcDbSymbolTableRecord
100
AcDbRegAppTableRecord
  2
ACAD
 70
     0
  0
ENDTAB
  0
TABLE
  2
DIMSTYLE
  5
A
330
0
100
AcDbSymbolTable
 70
     1
  0
DIMSTYLE
105
27
330
A
100
AcDbSymbolTableRecord
100
AcDbDimStyleTableRecord
  2
ISO-25
 70
     0
  3

  4

  5

  6

  7

 40
1.0
 41
2.5
 42
0.625
 43
3.75
 44
1.25
 45
0.0
 46
0.0
 47
0.0
 48
0.0
140
2.5
141
2.5
142
0.0
143
0.03937007874016
144
1.0
145
0.0
146
1.0
147
0.625
 71
     0
 72
     0
 73
     0
 74
     0
 75
     0
 76
     0
 77
     1
 78
     8
170
     0
171
     3
172
     1
173
     0
174
     0
175
     0
176
     0
177
     0
178
     0
270
     2
271
     2
272
     2
273
     2
274
     3
340
11
275
     0
280
     0
281
     0
282
     0
283
     0
284
     8
285
     0
286
     0
287
     3
288
     0
  0
ENDTAB
  0
TABLE
  2
BLOCK_RECORD
  5
1
330
0
100
AcDbSymbolTable
 70
     1
  0
BLOCK_RECORD
  5
1F
330
1
100
AcDbSymbolTableRecord
100
AcDbBlockTableRecord
  2
*MODEL_SPACE
  0
BLOCK_RECORD
  5
1B
330
1
100
AcDbSymbolTableRecord
100
AcDbBlockTableRecord
  2
*PAPER_SPACE
  0
ENDTAB
  0
ENDSEC
  0
SECTION
  2
BLOCKS
  0
BLOCK
  5
20
330
1F
100
AcDbEntity
  8
0
100
AcDbBlockBegin
  2
*MODEL_SPACE
 70
     0
 10
0.0
 20
0.0
 30
0.0
  3
*MODEL_SPACE
  1

  0
ENDBLK
  5
21
330
1F
100
AcDbEntity
  8
0
100
AcDbBlockEnd
  0
BLOCK
  5
1C
330
1B
100
AcDbEntity
 67
     1
  8
0
100
AcDbBlockBegin
  2
*PAPER_SPACE
  1

  0
ENDBLK
  5
1D
330
1B
100
AcDbEntity
 67
     1
  8
0
100
AcDbBlockEnd
  0
ENDSEC
  0
SECTION
  2
ENTITIES
  0
LWPOLYLINE
  5
100
100
AcDbEntity
  8
Layer_1
 62
7
100
AcDbPolyline
 90
5
 70
0
 10
29.516568
 20
13.654304
 30
0.0
 10
35.277359
 20
13.654304
 30
0.0
 10
35.277359
 20
13.104279
 30
0.0
 10
29.516568
 20
13.104279
 30
0.0
 10
29.516568
 20
13.654304
 30
0.0
  0
LWPOLYLINE
  5
101
100
AcDbEntity
  8
Layer_1
 62
7
100
AcDbPolyline
 90
5
 70
0
 10
30.095542
 20
13.075330
 30
0.0
 10
34.698385
 20
13.075330
 30
0.0
 10
34.698385
 20
6.590822
 30
0.0
 10
30.095542
 20
6.590822
 30
0.0
 10
30.095542
 20
13.075330
 30
0.0
  0
LWPOLYLINE
  5
102
100
AcDbEntity
  8
Layer_1
 62
7
100
AcDbPolyline
 90
2
 70
0
 10
29.523805
 20
14.220872
 30
0.0
 10
35.299106
 20
14.220872
 30
0.0
  0
LWPOLYLINE
  5
103
100
AcDbEntity
  8
Layer_1
 62
7
100
AcDbPolyline
 90
2
 70
0
 10
30.102779
 20
6.156592
 30
0.0
 10
34.719469
 20
6.156592
 30
0.0
  0
LWPOLYLINE
  5
104
100
AcDbEntity
  8
Layer_1
 62
7
100
AcDbPolyline
 90
2
 70
0
 10
35.430373
 20
13.068093
 30
0.0
 10
35.430373
 20
6.598059
 30
0.0
  0
LWPOLYLINE
  5
105
100
AcDbEntity
  8
Layer_1
 62
7
100
AcDbPolyline
 90
2
 70
0
 10
28.562594
 20
16.574557
 30
0.0
 10
31.062730
 20
16.574557
 30
0.0
  0
LWPOLYLINE
  5
106
100
AcDbEntity
  8
Layer_1
 62
7
100
AcDbPolyline
 90
2
 70
0
 10
31.062730
 20
16.874418
 30
0.0
 10
31.062730
 20
16.574557
 30
0.0
  0
LWPOLYLINE
  5
107
100
AcDbEntity
  8
Layer_1
 62
7
100
AcDbPolyline
 90
4
 70
0
 10
31.062730
 20
16.874418
 30
0.0
 10
33.562514
 20
16.874418
 30
0.0
 10
33.562514
 20
16.574557
 30
0.0
 10
35.762789
 20
16.574557
 30
0.0
  0
LWPOLYLINE
  5
108
100
AcDbEntity
  8
Layer_1
 62
7
100
AcDbPolyline
 90
4
 70
0
 10
28.562594
 20
24.074260
 30
0.0
 10
31.062730
 20
24.074260
 30
0.0
 10
31.062730
 20
23.774399
 30
0.0
 10
33.562514
 20
23.774399
 30
0.0
  0
LWPOLYLINE
  5
109
100
AcDbEntity
  8
Layer_1
 62
7
100
AcDbPolyline
 90
2
 70
0
 10
33.562514
 20
24.074260
 30
0.0
 10
33.562514
 20
23.774399
 30
0.0
  0
LWPOLYLINE
  5
10a
100
AcDbEntity
  8
Layer_1
 62
7
100
AcDbPolyline
 90
2
 70
0
 10
33.562514
 20
24.074260
 30
0.0
 10
35.762789
 20
24.074260
 30
0.0
  0
LWPOLYLINE
  5
10b
100
AcDbEntity
  8
Layer_1
 62
7
100
AcDbPolyline
 90
2
 70
0
 10
28.562594
 20
16.574557
 30
0.0
 10
28.562594
 20
19.074341
 30
0.0
  0
LWPOLYLINE
  5
10c
100
AcDbEntity
  8
Layer_1
 62
7
100
AcDbPolyline
 90
2
 70
0
 10
28.862808
 20
19.074341
 30
0.0
 10
28.562594
 20
19.074341
 30
0.0
  0
LWPOLYLINE
  5
10d
100
AcDbEntity
  8
Layer_1
 62
7
100
AcDbPolyline
 90
4
 70
0
 10
28.862808
 20
19.074341
 30
0.0
 10
28.862808
 20
21.574477
 30
0.0
 10
28.562594
 20
21.574477
 30
0.0
 10
28.562594
 20
24.074260
 30
0.0
  0
LWPOLYLINE
  5
10e
100
AcDbEntity
  8
Layer_1
 62
7
100
AcDbPolyline
 90
2
 70
0
 10
35.762789
 20
16.574557
 30
0.0
 10
35.762789
 20
19.074341
 30
0.0
  0
LWPOLYLINE
  5
10f
100
AcDbEntity
  8
Layer_1
 62
7
100
AcDbPolyline
 90
2
 70
0
 10
36.062650
 20
19.074341
 30
0.0
 10
35.762789
 20
19.074341
 30
0.0
  0
LWPOLYLINE
  5
110
100
AcDbEntity
  8
Layer_1
 62
7
100
AcDbPolyline
 90
4
 70
0
 10
36.062650
 20
19.074341
 30
0.0
 10
36.062650
 20
21.574477
 30
0.0
 10
35.762789
 20
21.574477
 30
0.0
 10
35.762789
 20
24.074260
 30
0.0
  0
LWPOLYLINE
  5
111
100
AcDbEntity
  8
Layer_1
 62
7
100
AcDbPolyline
 90
46
 70
0
 10
2.670585
 20
17.803628
 30
0.0
 10
2.670585
 20
15.304198
 30
0.0
 10
2.970446
 20
15.304198
 30
0.0
 10
2.970446
 20
12.803885
 30
0.0
 10
2.670585
 20
12.803885
 30
0.0
 10
2.670585
 20
10.303573
 30
0.0
 10
5.170016
 20
10.303573
 30
0.0
 10
5.170016
 20
10.604316
 30
0.0
 10
6.269800
 20
10.604316
 30
0.0
 10
6.269800
 20
10.904177
 30
0.0
 10
6.144564
 20
10.904177
 30
0.0
 10
6.144564
 20
11.144066
 30
0.0
 10
6.269800
 20
11.144066
 30
0.0
 10
6.269800
 20
11.304579
 30
0.0
 10
6.569661
 20
11.304579
 30
0.0
 10
6.569661
 20
11.144066
 30
0.0
 10
6.694898
 20
11.144066
 30
0.0
 10
6.694898
 20
10.904177
 30
0.0
 10
6.569661
 20
10.904177
 30
0.0
 10
6.569661
 20
10.604316
 30
0.0
 10
7.670328
 20
10.604316
 30
0.0
 10
7.670328
 20
10.303573
 30
0.0
 10
9.869898
 20
10.303573
 30
0.0
 10
9.869898
 20
12.803885
 30
0.0
 10
10.169759
 20
12.803885
 30
0.0
 10
10.169759
 20
15.304198
 30
0.0
 10
9.869898
 20
15.304198
 30
0.0
 10
9.869898
 20
17.803628
 30
0.0
 10
7.670328
 20
17.803628
 30
0.0
 10
7.670328
 20
17.503767
 30
0.0
 10
6.570543
 20
17.503767
 30
0.0
 10
6.570543
 20
17.203906
 30
0.0
 10
6.695780
 20
17.203906
 30
0.0
 10
6.695780
 20
16.964017
 30
0.0
 10
6.570543
 20
16.964017
 30
0.0
 10
6.570543
 20
16.803503
 30
0.0
 10
6.270682
 20
16.803503
 30
0.0
 10
6.270682
 20
16.964017
 30
0.0
 10
6.145446
 20
16.964017
 30
0.0
 10
6.145446
 20
17.203906
 30
0.0
 10
6.270682
 20
17.203906
 30
0.0
 10
6.270682
 20
17.503767
 30
0.0
 10
5.170016
 20
17.503767
 30
0.0
 10
5.170016
 20
17.803628
 30
0.0
 10
2.670585
 20
17.803628
 30
0.0
 10
2.670585
 20
17.803628
 30
0.0
  0
LWPOLYLINE
  5
112
100
AcDbEntity
  8
Layer_1
 62
7
100
AcDbPolyline
 90
46
 70
0
 10
12.694260
 20
17.160544
 30
0.0
 10
12.694260
 20
14.661114
 30
0.0
 10
12.994121
 20
14.661114
 30
0.0
 10
12.994121
 20
12.160801
 30
0.0
 10
12.694260
 20
12.160801
 30
0.0
 10
12.694260
 20
9.660489
 30
0.0
 10
15.193690
 20
9.660489
 30
0.0
 10
15.193690
 20
9.961232
 30
0.0
 10
16.293475
 20
9.961232
 30
0.0
 10
16.293475
 20
10.261093
 30
0.0
 10
16.168239
 20
10.261093
 30
0.0
 10
16.168239
 20
10.500982
 30
0.0
 10
16.293475
 20
10.500982
 30
0.0
 10
16.293475
 20
10.661496
 30
0.0
 10
16.593336
 20
10.661496
 30
0.0
 10
16.593336
 20
10.500982
 30
0.0
 10
16.718572
 20
10.500982
 30
0.0
 10
16.718572
 20
10.261093
 30
0.0
 10
16.593336
 20
10.261093
 30
0.0
 10
16.593336
 20
9.961232
 30
0.0
 10
17.694003
 20
9.961232
 30
0.0
 10
17.694003
 20
9.660489
 30
0.0
 10
19.893572
 20
9.660489
 30
0.0
 10
19.893572
 20
12.160801
 30
0.0
 10
20.193433
 20
12.160801
 30
0.0
 10
20.193433
 20
14.661114
 30
0.0
 10
19.893572
 20
14.661114
 30
0.0
 10
19.893572
 20
17.160544
 30
0.0
 10
17.694003
 20
17.160544
 30
0.0
 10
17.694003
 20
16.860683
 30
0.0
 10
16.594218
 20
16.860683
 30
0.0
 10
16.594218
 20
16.560822
 30
0.0
 10
16.719454
 20
16.560822
 30
0.0
 10
16.719454
 20
16.320933
 30
0.0
 10
16.594218
 20
16.320933
 30
0.0
 10
16.594218
 20
16.160419
 30
0.0
 10
16.294357
 20
16.160419
 30
0.0
 10
16.294357
 20
16.320933
 30
0.0
 10
16.169121
 20
16.320933
 30
0.0
 10
16.169121
 20
16.560822
 30
0.0
 10
16.294357
 20
16.560822
 30
0.0
 10
16.294357
 20
16.860683
 30
0.0
 10
15.193690
 20
16.860683
 30
0.0
 10
15.193690
 20
17.160544
 30
0.0
 10
12.694260
 20
17.160544
 30
0.0
 10
12.694260
 20
17.160544
 30
0.0
  0
LWPOLYLINE
  5
113
100
AcDbEntity
  8
Layer_1
 62
7
100
AcDbPolyline
 90
46
 70
0
 10
2.875847
 20
8.539498
 30
0.0
 10
2.875847
 20
6.040068
 30
0.0
 10
3.175708
 20
6.040068
 30
0.0
 10
3.175708
 20
3.539755
 30
0.0
 10
2.875847
 20
3.539755
 30
0.0
 10
2.875847
 20
1.039442
 30
0.0
 10
5.375277
 20
1.039442
 30
0.0
 10
5.375277
 20
1.340186
 30
0.0
 10
6.475062
 20
1.340186
 30
0.0
 10
6.475062
 20
1.640047
 30
0.0
 10
6.349826
 20
1.640047
 30
0.0
 10
6.349826
 20
1.879936
 30
0.0
 10
6.475062
 20
1.879936
 30
0.0
 10
6.475062
 20
2.040450
 30
0.0
 10
6.774923
 20
2.040450
 30
0.0
 10
6.774923
 20
1.879936
 30
0.0
 10
6.900159
 20
1.879936
 30
0.0
 10
6.900159
 20
1.640047
 30
0.0
 10
6.774923
 20
1.640047
 30
0.0
 10
6.774923
 20
1.340186
 30
0.0
 10
7.875590
 20
1.340186
 30
0.0
 10
7.875590
 20
1.039442
 30
0.0
 10
10.075159
 20
1.039442
 30
0.0
 10
10.075159
 20
3.539755
 30
0.0
 10
10.375020
 20
3.539755
 30
0.0
 10
10.375020
 20
6.040068
 30
0.0
 10
10.075159
 20
6.040068
 30
0.0
 10
10.075159
 20
8.539498
 30
0.0
 10
7.875590
 20
8.539498
 30
0.0
 10
7.875590
 20
8.239637
 30
0.0
 10
6.775805
 20
8.239637
 30
0.0
 10
6.775805
 20
7.939776
 30
0.0
 10
6.901041
 20
7.939776
 30
0.0
 10
6.901041
 20
7.699887
 30
0.0
 10
6.775805
 20
7.699887
 30
0.0
 10
6.775805
 20
7.539373
 30
0.0
 10
6.475944
 20
7.539373
 30
0.0
 10
6.475944
 20
7.699887
 30
0.0
 10
6.350708
 20
7.699887
 30
0.0
 10
6.350708
 20
7.939776
 30
0.0
 10
6.475944
 20
7.939776
 30
0.0
 10
6.475944
 20
8.239637
 30
0.0
 10
5.375277
 20
8.239637
 30
0.0
 10
5.375277
 20
8.539498
 30
0.0
 10
2.875847
 20
8.539498
 30
0.0
 10
2.875847
 20
8.539498
 30
0.0
  0
SPLINE
  5
114
100
AcDbEntity
  8
Layer_1
 62
7
100
AcDbSpline
 70
8
 71
3
 72
8
 73
4
 74
0
 40
0
 40
0
 40
0
 40
0
 40
1
 40
1
 40
1
 40
1
 10
6.670172
 20
14.053600
 30
0.0
 10
6.670172
 20
13.915529
 30
0.0
 10
6.558243
 20
13.803600
 30
0.0
 10
6.420172
 20
13.803600
 30
0.0
  0
SPLINE
  5
115
100
AcDbEntity
  8
Layer_1
 62
7
100
AcDbSpline
 70
8
 71
3
 72
8
 73
4
 74
0
 40
0
 40
0
 40
0
 40
0
 40
1
 40
1
 40
1
 40
1
 10
6.420172
 20
13.803600
 30
0.0
 10
6.282101
 20
13.803600
 30
0.0
 10
6.170172
 20
13.915529
 30
0.0
 10
6.170172
 20
14.053600
 30
0.0
  0
SPLINE
  5
116
100
AcDbEntity
  8
Layer_1
 62
7
100
AcDbSpline
 70
8
 71
3
 72
8
 73
4
 74
0
 40
0
 40
0
 40
0
 40
0
 40
1
 40
1
 40
1
 40
1
 10
6.170172
 20
14.053600
 30
0.0
 10
6.170172
 20
14.191672
 30
0.0
 10
6.282101
 20
14.303600
 30
0.0
 10
6.420172
 20
14.303600
 30
0.0
  0
SPLINE
  5
117
100
AcDbEntity
  8
Layer_1
 62
7
100
AcDbSpline
 70
8
 71
3
 72
8
 73
4
 74
0
 40
0
 40
0
 40
0
 40
0
 40
1
 40
1
 40
1
 40
1
 10
6.420172
 20
14.303600
 30
0.0
 10
6.558243
 20
14.303600
 30
0.0
 10
6.670172
 20
14.191672
 30
0.0
 10
6.670172
 20
14.053600
 30
0.0
  0
LWPOLYLINE
  5
118
100
AcDbEntity
  8
Layer_1
 62
7
100
AcDbPolyline
 90
46
 70
0
 10
13.093383
 20
8.539498
 30
0.0
 10
13.093383
 20
6.040068
 30
0.0
 10
13.393244
 20
6.040068
 30
0.0
 10
13.393244
 20
3.539755
 30
0.0
 10
13.093383
 20
3.539755
 30
0.0
 10
13.093383
 20
1.039442
 30
0.0
 10
15.592813
 20
1.039442
 30
0.0
 10
15.592813
 20
1.340186
 30
0.0
 10
16.692598
 20
1.340186
 30
0.0
 10
16.692598
 20
1.640047
 30
0.0
 10
16.567362
 20
1.640047
 30
0.0
 10
16.567362
 20
1.879936
 30
0.0
 10
16.692598
 20
1.879936
 30
0.0
 10
16.692598
 20
2.040450
 30
0.0
 10
16.992459
 20
2.040450
 30
0.0
 10
16.992459
 20
1.879936
 30
0.0
 10
17.117695
 20
1.879936
 30
0.0
 10
17.117695
 20
1.640047
 30
0.0
 10
16.992459
 20
1.640047
 30
0.0
 10
16.992459
 20
1.340186
 30
0.0
 10
18.093126
 20
1.340186
 30
0.0
 10
18.093126
 20
1.039442
 30
0.0
 10
20.292695
 20
1.039442
 30
0.0
 10
20.292695
 20
3.539755
 30
0.0
 10
20.592556
 20
3.539755
 30
0.0
 10
20.592556
 20
6.040068
 30
0.0
 10
20.292695
 20
6.040068
 30
0.0
 10
20.292695
 20
8.539498
 30
0.0
 10
18.093126
 20
8.539498
 30
0.0
 10
18.093126
 20
8.239637
 30
0.0
 10
16.993341
 20
8.239637
 30
0.0
 10
16.993341
 20
7.939776
 30
0.0
 10
17.118577
 20
7.939776
 30
0.0
 10
17.118577
 20
7.699887
 30
0.0
 10
16.993341
 20
7.699887
 30
0.0
 10
16.993341
 20
7.539373
 30
0.0
 10
16.693480
 20
7.539373
 30
0.0
 10
16.693480
 20
7.699887
 30
0.0
 10
16.568244
 20
7.699887
 30
0.0
 10
16.568244
 20
7.939776
 30
0.0
 10
16.693480
 20
7.939776
 30
0.0
 10
16.693480
 20
8.239637
 30
0.0
 10
15.592813
 20
8.239637
 30
0.0
 10
15.592813
 20
8.539498
 30
0.0
 10
13.093383
 20
8.539498
 30
0.0
 10
13.093383
 20
8.539498
 30
0.0
  0
LWPOLYLINE
  5
119
100
AcDbEntity
  8
Layer_1
 62
7
100
AcDbPolyline
 90
2
 70
0
 10
6.670172
 20
14.053600
 30
0.0
 10
6.670172
 20
14.053600
 30
0.0
  0
LWPOLYLINE
  5
11a
100
AcDbEntity
  8
Layer_1
 62
7
100
AcDbPolyline
 90
7
 70
0
 10
2.271037
 20
22.922920
 30
0.0
 10
2.571256
 20
22.922920
 30
0.0
 10
2.571256
 20
20.722998
 30
0.0
 10
4.771178
 20
20.722998
 30
0.0
 10
4.771178
 20
20.422796
 30
0.0
 10
2.271037
 20
20.422796
 30
0.0
 10
2.271037
 20
22.922920
 30
0.0
  0
LWPOLYLINE
  5
11b
100
AcDbEntity
  8
Layer_1
 62
7
100
AcDbPolyline
 90
7
 70
0
 10
4.771178
 20
27.922851
 30
0.0
 10
4.771178
 20
27.622978
 30
0.0
 10
2.571265
 20
27.622978
 30
0.0
 10
2.571256
 20
25.422703
 30
0.0
 10
2.271037
 20
25.422703
 30
0.0
 10
2.271037
 20
27.922851
 30
0.0
 10
4.771178
 20
27.922851
 30
0.0
  0
LWPOLYLINE
  5
11c
100
AcDbEntity
  8
Layer_1
 62
7
100
AcDbPolyline
 90
7
 70
0
 10
9.771092
 20
22.922920
 30
0.0
 10
9.471237
 20
22.922920
 30
0.0
 10
9.471237
 20
20.722998
 30
0.0
 10
7.270962
 20
20.722998
 30
0.0
 10
7.270962
 20
20.422796
 30
0.0
 10
9.771092
 20
20.422796
 30
0.0
 10
9.771092
 20
22.922920
 30
0.0
  0
SPLINE
  5
11d
100
AcDbEntity
  8
Layer_1
 62
7
100
AcDbSpline
 70
8
 71
3
 72
8
 73
4
 74
0
 40
0
 40
0
 40
0
 40
0
 40
1
 40
1
 40
1
 40
1
 10
9.471237
 20
27.622978
 30
0.0
 10
8.737812
 20
27.622978
 30
0.0
 10
8.004387
 20
27.622978
 30
0.0
 10
7.270962
 20
27.622978
 30
0.0
  0
SPLINE
  5
11e
100
AcDbEntity
  8
Layer_1
 62
7
100
AcDbSpline
 70
8
 71
3
 72
8
 73
4
 74
0
 40
0
 40
0
 40
0
 40
0
 40
1
 40
1
 40
1
 40
1
 10
7.270962
 20
27.622978
 30
0.0
 10
7.270962
 20
27.722932
 30
0.0
 10
7.270962
 20
27.822897
 30
0.0
 10
7.270962
 20
27.922851
 30
0.0
  0
LWPOLYLINE
  5
11f
100
AcDbEntity
  8
Layer_1
 62
7
100
AcDbPolyline
 90
3
 70
0
 10
9.771092
 20
25.422703
 30
0.0
 10
9.471237
 20
25.422703
 30
0.0
 10
9.471237
 20
27.622978
 30
0.0
  0
LWPOLYLINE
  5
120
100
AcDbEntity
  8
Layer_1
 62
7
100
AcDbPolyline
 90
3
 70
0
 10
7.270962
 20
27.922851
 30
0.0
 10
9.771092
 20
27.922851
 30
0.0
 10
9.771092
 20
25.422703
 30
0.0
  0
SPLINE
  5
121
100
AcDbEntity
  8
Layer_1
 62
7
100
AcDbSpline
 70
8
 71
3
 72
8
 73
4
 74
0
 40
0
 40
0
 40
0
 40
0
 40
1
 40
1
 40
1
 40
1
 10
6.171065
 20
27.772737
 30
0.0
 10
6.171113
 20
27.719115
 30
0.0
 10
6.142534
 20
27.669545
 30
0.0
 10
6.096104
 20
27.642720
 30
0.0
  0
SPLINE
  5
122
100
AcDbEntity
  8
Layer_1
 62
7
100
AcDbSpline
 70
8
 71
3
 72
8
 73
4
 74
0
 40
0
 40
0
 40
0
 40
0
 40
1
 40
1
 40
1
 40
1
 10
6.096104
 20
27.642720
 30
0.0
 10
6.049674
 20
27.615895
 30
0.0
 10
5.992456
 20
27.615895
 30
0.0
 10
5.946025
 20
27.642720
 30
0.0
  0
SPLINE
  5
123
100
AcDbEntity
  8
Layer_1
 62
7
100
AcDbSpline
 70
8
 71
3
 72
8
 73
4
 74
0
 40
0
 40
0
 40
0
 40
0
 40
1
 40
1
 40
1
 40
1
 10
5.946025
 20
27.642720
 30
0.0
 10
5.899595
 20
27.669545
 30
0.0
 10
5.871016
 20
27.719115
 30
0.0
 10
5.871065
 20
27.772737
 30
0.0
  0
SPLINE
  5
124
100
AcDbEntity
  8
Layer_1
 62
7
100
AcDbSpline
 70
8
 71
3
 72
8
 73
4
 74
0
 40
0
 40
0
 40
0
 40
0
 40
1
 40
1
 40
1
 40
1
 10
5.871065
 20
27.772737
 30
0.0
 10
5.871016
 20
27.826360
 30
0.0
 10
5.899595
 20
27.875929
 30
0.0
 10
5.946025
 20
27.902755
 30
0.0
  0
SPLINE
  5
125
100
AcDbEntity
  8
Layer_1
 62
7
100
AcDbSpline
 70
8
 71
3
 72
8
 73
4
 74
0
 40
0
 40
0
 40
0
 40
0
 40
1
 40
1
 40
1
 40
1
 10
5.946025
 20
27.902755
 30
0.0
 10
5.992456
 20
27.929580
 30
0.0
 10
6.049674
 20
27.929580
 30
0.0
 10
6.096104
 20
27.902755
 30
0.0
  0
SPLINE
  5
126
100
AcDbEntity
  8
Layer_1
 62
7
100
AcDbSpline
 70
8
 71
3
 72
8
 73
4
 74
0
 40
0
 40
0
 40
0
 40
0
 40
1
 40
1
 40
1
 40
1
 10
6.096104
 20
27.902755
 30
0.0
 10
6.142534
 20
27.875929
 30
0.0
 10
6.171113
 20
27.826360
 30
0.0
 10
6.171065
 20
27.772737
 30
0.0
  0
LWPOLYLINE
  5
127
100
AcDbEntity
  8
Layer_1
 62
7
100
AcDbPolyline
 90
5
 70
0
 10
1.771065
 20
28.422823
 30
0.0
 10
10.271065
 20
28.422823
 30
0.0
 10
10.271065
 20
19.922824
 30
0.0
 10
1.771065
 20
19.922824
 30
0.0
 10
1.771065
 20
28.422823
 30
0.0
  0
SPLINE
  5
128
100
AcDbEntity
  8
Layer_1
 62
7
100
AcDbSpline
 70
8
 71
3
 72
8
 73
4
 74
0
 40
0
 40
0
 40
0
 40
0
 40
1
 40
1
 40
1
 40
1
 10
6.171065
 20
20.572910
 30
0.0
 10
6.171113
 20
20.519287
 30
0.0
 10
6.142534
 20
20.469717
 30
0.0
 10
6.096104
 20
20.442892
 30
0.0
  0
SPLINE
  5
129
100
AcDbEntity
  8
Layer_1
 62
7
100
AcDbSpline
 70
8
 71
3
 72
8
 73
4
 74
0
 40
0
 40
0
 40
0
 40
0
 40
1
 40
1
 40
1
 40
1
 10
6.096104
 20
20.442892
 30
0.0
 10
6.049674
 20
20.416067
 30
0.0
 10
5.992456
 20
20.416067
 30
0.0
 10
5.946025
 20
20.442892
 30
0.0
  0
SPLINE
  5
12a
100
AcDbEntity
  8
Layer_1
 62
7
100
AcDbSpline
 70
8
 71
3
 72
8
 73
4
 74
0
 40
0
 40
0
 40
0
 40
0
 40
1
 40
1
 40
1
 40
1
 10
5.946025
 20
20.442892
 30
0.0
 10
5.899595
 20
20.469717
 30
0.0
 10
5.871016
 20
20.519287
 30
0.0
 10
5.871065
 20
20.572910
 30
0.0
  0
SPLINE
  5
12b
100
AcDbEntity
  8
Layer_1
 62
7
100
AcDbSpline
 70
8
 71
3
 72
8
 73
4
 74
0
 40
0
 40
0
 40
0
 40
0
 40
1
 40
1
 40
1
 40
1
 10
5.871065
 20
20.572910
 30
0.0
 10
5.871016
 20
20.626532
 30
0.0
 10
5.899595
 20
20.676102
 30
0.0
 10
5.946025
 20
20.702927
 30
0.0
  0
SPLINE
  5
12c
100
AcDbEntity
  8
Layer_1
 62
7
100
AcDbSpline
 70
8
 71
3
 72
8
 73
4
 74
0
 40
0
 40
0
 40
0
 40
0
 40
1
 40
1
 40
1
 40
1
 10
5.946025
 20
20.702927
 30
0.0
 10
5.992456
 20
20.729752
 30
0.0
 10
6.049674
 20
20.729752
 30
0.0
 10
6.096104
 20
20.702927
 30
0.0
  0
SPLINE
  5
12d
100
AcDbEntity
  8
Layer_1
 62
7
100
AcDbSpline
 70
8
 71
3
 72
8
 73
4
 74
0
 40
0
 40
0
 40
0
 40
0
 40
1
 40
1
 40
1
 40
1
 10
6.096104
 20
20.702927
 30
0.0
 10
6.142534
 20
20.676102
 30
0.0
 10
6.171113
 20
20.626532
 30
0.0
 10
6.171065
 20
20.572910
 30
0.0
  0
LWPOLYLINE
  5
12e
100
AcDbEntity
  8
Layer_1
 62
7
100
AcDbPolyline
 90
2
 70
0
 10
6.171065
 20
27.772737
 30
0.0
 10
6.171065
 20
27.772737
 30
0.0
  0
SPLINE
  5
12f
100
AcDbEntity
  8
Layer_1
 62
7
100
AcDbSpline
 70
8
 71
3
 72
8
 73
4
 74
0
 40
0
 40
0
 40
0
 40
0
 40
1
 40
1
 40
1
 40
1
 10
9.770978
 20
24.172823
 30
0.0
 10
9.771027
 20
24.119201
 30
0.0
 10
9.742448
 20
24.069631
 30
0.0
 10
9.696018
 20
24.042806
 30
0.0
  0
SPLINE
  5
130
100
AcDbEntity
  8
Layer_1
 62
7
100
AcDbSpline
 70
8
 71
3
 72
8
 73
4
 74
0
 40
0
 40
0
 40
0
 40
0
 40
1
 40
1
 40
1
 40
1
 10
9.696018
 20
24.042806
 30
0.0
 10
9.649587
 20
24.015981
 30
0.0
 10
9.592369
 20
24.015981
 30
0.0
 10
9.545939
 20
24.042806
 30
0.0
  0
SPLINE
  5
131
100
AcDbEntity
  8
Layer_1
 62
7
100
AcDbSpline
 70
8
 71
3
 72
8
 73
4
 74
0
 40
0
 40
0
 40
0
 40
0
 40
1
 40
1
 40
1
 40
1
 10
9.545939
 20
24.042806
 30
0.0
 10
9.499509
 20
24.069631
 30
0.0
 10
9.470930
 20
24.119201
 30
0.0
 10
9.470978
 20
24.172823
 30
0.0
  0
SPLINE
  5
132
100
AcDbEntity
  8
Layer_1
 62
7
100
AcDbSpline
 70
8
 71
3
 72
8
 73
4
 74
0
 40
0
 40
0
 40
0
 40
0
 40
1
 40
1
 40
1
 40
1
 10
9.470978
 20
24.172823
 30
0.0
 10
9.470930
 20
24.226446
 30
0.0
 10
9.499509
 20
24.276016
 30
0.0
 10
9.545939
 20
24.302841
 30
0.0
  0
SPLINE
  5
133
100
AcDbEntity
  8
Layer_1
 62
7
100
AcDbSpline
 70
8
 71
3
 72
8
 73
4
 74
0
 40
0
 40
0
 40
0
 40
0
 40
1
 40
1
 40
1
 40
1
 10
9.545939
 20
24.302841
 30
0.0
 10
9.592369
 20
24.329666
 30
0.0
 10
9.649587
 20
24.329666
 30
0.0
 10
9.696018
 20
24.302841
 30
0.0
  0
SPLINE
  5
134
100
AcDbEntity
  8
Layer_1
 62
7
100
AcDbSpline
 70
8
 71
3
 72
8
 73
4
 74
0
 40
0
 40
0
 40
0
 40
0
 40
1
 40
1
 40
1
 40
1
 10
9.696018
 20
24.302841
 30
0.0
 10
9.742448
 20
24.276016
 30
0.0
 10
9.771027
 20
24.226446
 30
0.0
 10
9.770978
 20
24.172823
 30
0.0
  0
LWPOLYLINE
  5
135
100
AcDbEntity
  8
Layer_1
 62
7
100
AcDbPolyline
 90
2
 70
0
 10
6.171065
 20
20.572910
 30
0.0
 10
6.171065
 20
20.572910
 30
0.0
  0
SPLINE
  5
136
100
AcDbEntity
  8
Layer_1
 62
7
100
AcDbSpline
 70
8
 71
3
 72
8
 73
4
 74
0
 40
0
 40
0
 40
0
 40
0
 40
1
 40
1
 40
1
 40
1
 10
2.571151
 20
24.172823
 30
0.0
 10
2.571199
 20
24.119201
 30
0.0
 10
2.542620
 20
24.069631
 30
0.0
 10
2.496190
 20
24.042806
 30
0.0
  0
SPLINE
  5
137
100
AcDbEntity
  8
Layer_1
 62
7
100
AcDbSpline
 70
8
 71
3
 72
8
 73
4
 74
0
 40
0
 40
0
 40
0
 40
0
 40
1
 40
1
 40
1
 40
1
 10
2.496190
 20
24.042806
 30
0.0
 10
2.449760
 20
24.015981
 30
0.0
 10
2.392542
 20
24.015981
 30
0.0
 10
2.346111
 20
24.042806
 30
0.0
  0
SPLINE
  5
138
100
AcDbEntity
  8
Layer_1
 62
7
100
AcDbSpline
 70
8
 71
3
 72
8
 73
4
 74
0
 40
0
 40
0
 40
0
 40
0
 40
1
 40
1
 40
1
 40
1
 10
2.346111
 20
24.042806
 30
0.0
 10
2.299681
 20
24.069631
 30
0.0
 10
2.271102
 20
24.119201
 30
0.0
 10
2.271151
 20
24.172823
 30
0.0
  0
SPLINE
  5
139
100
AcDbEntity
  8
Layer_1
 62
7
100
AcDbSpline
 70
8
 71
3
 72
8
 73
4
 74
0
 40
0
 40
0
 40
0
 40
0
 40
1
 40
1
 40
1
 40
1
 10
2.271151
 20
24.172823
 30
0.0
 10
2.271102
 20
24.226446
 30
0.0
 10
2.299681
 20
24.276016
 30
0.0
 10
2.346111
 20
24.302841
 30
0.0
  0
SPLINE
  5
13a
100
AcDbEntity
  8
Layer_1
 62
7
100
AcDbSpline
 70
8
 71
3
 72
8
 73
4
 74
0
 40
0
 40
0
 40
0
 40
0
 40
1
 40
1
 40
1
 40
1
 10
2.346111
 20
24.302841
 30
0.0
 10
2.392542
 20
24.329666
 30
0.0
 10
2.449760
 20
24.329666
 30
0.0
 10
2.496190
 20
24.302841
 30
0.0
  0
SPLINE
  5
13b
100
AcDbEntity
  8
Layer_1
 62
7
100
AcDbSpline
 70
8
 71
3
 72
8
 73
4
 74
0
 40
0
 40
0
 40
0
 40
0
 40
1
 40
1
 40
1
 40
1
 10
2.496190
 20
24.302841
 30
0.0
 10
2.542620
 20
24.276016
 30
0.0
 10
2.571199
 20
24.226446
 30
0.0
 10
2.571151
 20
24.172823
 30
0.0
  0
LWPOLYLINE
  5
13c
100
AcDbEntity
  8
Layer_1
 62
7
100
AcDbPolyline
 90
2
 70
0
 10
9.770978
 20
24.172823
 30
0.0
 10
9.770978
 20
24.172823
 30
0.0
  0
SPLINE
  5
13d
100
AcDbEntity
  8
Layer_1
 62
7
100
AcDbSpline
 70
8
 71
3
 72
8
 73
4
 74
0
 40
0
 40
0
 40
0
 40
0
 40
1
 40
1
 40
1
 40
1
 10
7.421065
 20
24.172823
 30
0.0
 10
7.421065
 20
23.399625
 30
0.0
 10
6.794263
 20
22.772823
 30
0.0
 10
6.021065
 20
22.772823
 30
0.0
  0
SPLINE
  5
13e
100
AcDbEntity
  8
Layer_1
 62
7
100
AcDbSpline
 70
8
 71
3
 72
8
 73
4
 74
0
 40
0
 40
0
 40
0
 40
0
 40
1
 40
1
 40
1
 40
1
 10
6.021065
 20
22.772823
 30
0.0
 10
5.247866
 20
22.772823
 30
0.0
 10
4.621065
 20
23.399625
 30
0.0
 10
4.621065
 20
24.172823
 30
0.0
  0
SPLINE
  5
13f
100
AcDbEntity
  8
Layer_1
 62
7
100
AcDbSpline
 70
8
 71
3
 72
8
 73
4
 74
0
 40
0
 40
0
 40
0
 40
0
 40
1
 40
1
 40
1
 40
1
 10
4.621065
 20
24.172823
 30
0.0
 10
4.621065
 20
24.946022
 30
0.0
 10
5.247866
 20
25.572823
 30
0.0
 10
6.021065
 20
25.572823
 30
0.0
  0
SPLINE
  5
140
100
AcDbEntity
  8
Layer_1
 62
7
100
AcDbSpline
 70
8
 71
3
 72
8
 73
4
 74
0
 40
0
 40
0
 40
0
 40
0
 40
1
 40
1
 40
1
 40
1
 10
6.021065
 20
25.572823
 30
0.0
 10
6.794263
 20
25.572823
 30
0.0
 10
7.421065
 20
24.946022
 30
0.0
 10
7.421065
 20
24.172823
 30
0.0
  0
LWPOLYLINE
  5
141
100
AcDbEntity
  8
Layer_1
 62
7
100
AcDbPolyline
 90
2
 70
0
 10
2.571151
 20
24.172823
 30
0.0
 10
2.571151
 20
24.172823
 30
0.0
  0
SPLINE
  5
142
100
AcDbEntity
  8
Layer_1
 62
7
100
AcDbSpline
 70
8
 71
3
 72
8
 73
4
 74
0
 40
0
 40
0
 40
0
 40
0
 40
1
 40
1
 40
1
 40
1
 10
6.321065
 20
20.572910
 30
0.0
 10
6.321065
 20
20.465730
 30
0.0
 10
6.263885
 20
20.366692
 30
0.0
 10
6.171065
 20
20.313102
 30
0.0
  0
SPLINE
  5
143
100
AcDbEntity
  8
Layer_1
 62
7
100
AcDbSpline
 70
8
 71
3
 72
8
 73
4
 74
0
 40
0
 40
0
 40
0
 40
0
 40
1
 40
1
 40
1
 40
1
 10
6.171065
 20
20.313102
 30
0.0
 10
6.078244
 20
20.259512
 30
0.0
 10
5.963885
 20
20.259512
 30
0.0
 10
5.871065
 20
20.313102
 30
0.0
  0
SPLINE
  5
144
100
AcDbEntity
  8
Layer_1
 62
7
100
AcDbSpline
 70
8
 71
3
 72
8
 73
4
 74
0
 40
0
 40
0
 40
0
 40
0
 40
1
 40
1
 40
1
 40
1
 10
5.871065
 20
20.313102
 30
0.0
 10
5.778244
 20
20.366692
 30
0.0
 10
5.721065
 20
20.465730
 30
0.0
 10
5.721065
 20
20.572910
 30
0.0
  0
SPLINE
  5
145
100
AcDbEntity
  8
Layer_1
 62
7
100
AcDbSpline
 70
8
 71
3
 72
8
 73
4
 74
0
 40
0
 40
0
 40
0
 40
0
 40
1
 40
1
 40
1
 40
1
 10
5.721065
 20
20.572910
 30
0.0
 10
5.721065
 20
20.680089
 30
0.0
 10
5.778244
 20
20.779127
 30
0.0
 10
5.871065
 20
20.832717
 30
0.0
  0
SPLINE
  5
146
100
AcDbEntity
  8
Layer_1
 62
7
100
AcDbSpline
 70
8
 71
3
 72
8
 73
4
 74
0
 40
0
 40
0
 40
0
 40
0
 40
1
 40
1
 40
1
 40
1
 10
5.871065
 20
20.832717
 30
0.0
 10
5.963885
 20
20.886307
 30
0.0
 10
6.078244
 20
20.886307
 30
0.0
 10
6.171065
 20
20.832717
 30
0.0
  0
SPLINE
  5
147
100
AcDbEntity
  8
Layer_1
 62
7
100
AcDbSpline
 70
8
 71
3
 72
8
 73
4
 74
0
 40
0
 40
0
 40
0
 40
0
 40
1
 40
1
 40
1
 40
1
 10
6.171065
 20
20.832717
 30
0.0
 10
6.263885
 20
20.779127
 30
0.0
 10
6.321065
 20
20.680089
 30
0.0
 10
6.321065
 20
20.572910
 30
0.0
  0
LWPOLYLINE
  5
148
100
AcDbEntity
  8
Layer_1
 62
7
100
AcDbPolyline
 90
2
 70
0
 10
7.421065
 20
24.172823
 30
0.0
 10
7.421065
 20
24.172823
 30
0.0
  0
SPLINE
  5
149
100
AcDbEntity
  8
Layer_1
 62
7
100
AcDbSpline
 70
8
 71
3
 72
8
 73
4
 74
0
 40
0
 40
0
 40
0
 40
0
 40
1
 40
1
 40
1
 40
1
 10
2.721151
 20
24.172823
 30
0.0
 10
2.721151
 20
24.065644
 30
0.0
 10
2.663971
 20
23.966606
 30
0.0
 10
2.571151
 20
23.913016
 30
0.0
  0
SPLINE
  5
14a
100
AcDbEntity
  8
Layer_1
 62
7
100
AcDbSpline
 70
8
 71
3
 72
8
 73
4
 74
0
 40
0
 40
0
 40
0
 40
0
 40
1
 40
1
 40
1
 40
1
 10
2.571151
 20
23.913016
 30
0.0
 10
2.478330
 20
23.859426
 30
0.0
 10
2.363971
 20
23.859426
 30
0.0
 10
2.271151
 20
23.913016
 30
0.0
  0
SPLINE
  5
14b
100
AcDbEntity
  8
Layer_1
 62
7
100
AcDbSpline
 70
8
 71
3
 72
8
 73
4
 74
0
 40
0
 40
0
 40
0
 40
0
 40
1
 40
1
 40
1
 40
1
 10
2.271151
 20
23.913016
 30
0.0
 10
2.178330
 20
23.966606
 30
0.0
 10
2.121151
 20
24.065644
 30
0.0
 10
2.121151
 20
24.172823
 30
0.0
  0
SPLINE
  5
14c
100
AcDbEntity
  8
Layer_1
 62
7
100
AcDbSpline
 70
8
 71
3
 72
8
 73
4
 74
0
 40
0
 40
0
 40
0
 40
0
 40
1
 40
1
 40
1
 40
1
 10
2.121151
 20
24.172823
 30
0.0
 10
2.121151
 20
24.280003
 30
0.0
 10
2.178330
 20
24.379041
 30
0.0
 10
2.271151
 20
24.432631
 30
0.0
  0
SPLINE
  5
14d
100
AcDbEntity
  8
Layer_1
 62
7
100
AcDbSpline
 70
8
 71
3
 72
8
 73
4
 74
0
 40
0
 40
0
 40
0
 40
0
 40
1
 40
1
 40
1
 40
1
 10
2.271151
 20
24.432631
 30
0.0
 10
2.363971
 20
24.486221
 30
0.0
 10
2.478330
 20
24.486221
 30
0.0
 10
2.571151
 20
24.432631
 30
0.0
  0
SPLINE
  5
14e
100
AcDbEntity
  8
Layer_1
 62
7
100
AcDbSpline
 70
8
 71
3
 72
8
 73
4
 74
0
 40
0
 40
0
 40
0
 40
0
 40
1
 40
1
 40
1
 40
1
 10
2.571151
 20
24.432631
 30
0.0
 10
2.663971
 20
24.379041
 30
0.0
 10
2.721151
 20
24.280003
 30
0.0
 10
2.721151
 20
24.172823
 30
0.0
  0
LWPOLYLINE
  5
14f
100
AcDbEntity
  8
Layer_1
 62
7
100
AcDbPolyline
 90
2
 70
0
 10
6.321065
 20
20.572910
 30
0.0
 10
6.321065
 20
20.572910
 30
0.0
  0
SPLINE
  5
150
100
AcDbEntity
  8
Layer_1
 62
7
100
AcDbSpline
 70
8
 71
3
 72
8
 73
4
 74
0
 40
0
 40
0
 40
0
 40
0
 40
1
 40
1
 40
1
 40
1
 10
9.920978
 20
24.172823
 30
0.0
 10
9.920978
 20
24.065644
 30
0.0
 10
9.863799
 20
23.966606
 30
0.0
 10
9.770978
 20
23.913016
 30
0.0
  0
SPLINE
  5
151
100
AcDbEntity
  8
Layer_1
 62
7
100
AcDbSpline
 70
8
 71
3
 72
8
 73
4
 74
0
 40
0
 40
0
 40
0
 40
0
 40
1
 40
1
 40
1
 40
1
 10
9.770978
 20
23.913016
 30
0.0
 10
9.678158
 20
23.859426
 30
0.0
 10
9.563799
 20
23.859426
 30
0.0
 10
9.470978
 20
23.913016
 30
0.0
  0
SPLINE
  5
152
100
AcDbEntity
  8
Layer_1
 62
7
100
AcDbSpline
 70
8
 71
3
 72
8
 73
4
 74
0
 40
0
 40
0
 40
0
 40
0
 40
1
 40
1
 40
1
 40
1
 10
9.470978
 20
23.913016
 30
0.0
 10
9.378158
 20
23.966606
 30
0.0
 10
9.320978
 20
24.065644
 30
0.0
 10
9.320978
 20
24.172823
 30
0.0
  0
SPLINE
  5
153
100
AcDbEntity
  8
Layer_1
 62
7
100
AcDbSpline
 70
8
 71
3
 72
8
 73
4
 74
0
 40
0
 40
0
 40
0
 40
0
 40
1
 40
1
 40
1
 40
1
 10
9.320978
 20
24.172823
 30
0.0
 10
9.320978
 20
24.280003
 30
0.0
 10
9.378158
 20
24.379041
 30
0.0
 10
9.470978
 20
24.432631
 30
0.0
  0
SPLINE
  5
154
100
AcDbEntity
  8
Layer_1
 62
7
100
AcDbSpline
 70
8
 71
3
 72
8
 73
4
 74
0
 40
0
 40
0
 40
0
 40
0
 40
1
 40
1
 40
1
 40
1
 10
9.470978
 20
24.432631
 30
0.0
 10
9.563799
 20
24.486221
 30
0.0
 10
9.678158
 20
24.486221
 30
0.0
 10
9.770978
 20
24.432631
 30
0.0
  0
SPLINE
  5
155
100
AcDbEntity
  8
Layer_1
 62
7
100
AcDbSpline
 70
8
 71
3
 72
8
 73
4
 74
0
 40
0
 40
0
 40
0
 40
0
 40
1
 40
1
 40
1
 40
1
 10
9.770978
 20
24.432631
 30
0.0
 10
9.863799
 20
24.379041
 30
0.0
 10
9.920978
 20
24.280003
 30
0.0
 10
9.920978
 20
24.172823
 30
0.0
  0
LWPOLYLINE
  5
156
100
AcDbEntity
  8
Layer_1
 62
7
100
AcDbPolyline
 90
2
 70
0
 10
2.721151
 20
24.172823
 30
0.0
 10
2.721151
 20
24.172823
 30
0.0
  0
SPLINE
  5
157
100
AcDbEntity
  8
Layer_1
 62
7
100
AcDbSpline
 70
8
 71
3
 72
8
 73
4
 74
0
 40
0
 40
0
 40
0
 40
0
 40
1
 40
1
 40
1
 40
1
 10
6.321065
 20
27.772737
 30
0.0
 10
6.321065
 20
27.665557
 30
0.0
 10
6.263885
 20
27.566519
 30
0.0
 10
6.171065
 20
27.512930
 30
0.0
  0
SPLINE
  5
158
100
AcDbEntity
  8
Layer_1
 62
7
100
AcDbSpline
 70
8
 71
3
 72
8
 73
4
 74
0
 40
0
 40
0
 40
0
 40
0
 40
1
 40
1
 40
1
 40
1
 10
6.171065
 20
27.512930
 30
0.0
 10
6.078244
 20
27.459340
 30
0.0
 10
5.963885
 20
27.459340
 30
0.0
 10
5.871065
 20
27.512930
 30
0.0
  0
SPLINE
  5
159
100
AcDbEntity
  8
Layer_1
 62
7
100
AcDbSpline
 70
8
 71
3
 72
8
 73
4
 74
0
 40
0
 40
0
 40
0
 40
0
 40
1
 40
1
 40
1
 40
1
 10
5.871065
 20
27.512930
 30
0.0
 10
5.778244
 20
27.566519
 30
0.0
 10
5.721065
 20
27.665557
 30
0.0
 10
5.721065
 20
27.772737
 30
0.0
  0
SPLINE
  5
15a
100
AcDbEntity
  8
Layer_1
 62
7
100
AcDbSpline
 70
8
 71
3
 72
8
 73
4
 74
0
 40
0
 40
0
 40
0
 40
0
 40
1
 40
1
 40
1
 40
1
 10
5.721065
 20
27.772737
 30
0.0
 10
5.721065
 20
27.879917
 30
0.0
 10
5.778244
 20
27.978955
 30
0.0
 10
5.871065
 20
28.032545
 30
0.0
  0
SPLINE
  5
15b
100
AcDbEntity
  8
Layer_1
 62
7
100
AcDbSpline
 70
8
 71
3
 72
8
 73
4
 74
0
 40
0
 40
0
 40
0
 40
0
 40
1
 40
1
 40
1
 40
1
 10
5.871065
 20
28.032545
 30
0.0
 10
5.963885
 20
28.086135
 30
0.0
 10
6.078244
 20
28.086135
 30
0.0
 10
6.171065
 20
28.032545
 30
0.0
  0
SPLINE
  5
15c
100
AcDbEntity
  8
Layer_1
 62
7
100
AcDbSpline
 70
8
 71
3
 72
8
 73
4
 74
0
 40
0
 40
0
 40
0
 40
0
 40
1
 40
1
 40
1
 40
1
 10
6.171065
 20
28.032545
 30
0.0
 10
6.263885
 20
27.978955
 30
0.0
 10
6.321065
 20
27.879917
 30
0.0
 10
6.321065
 20
27.772737
 30
0.0
  0
LWPOLYLINE
  5
15d
100
AcDbEntity
  8
Layer_1
 62
7
100
AcDbPolyline
 90
2
 70
0
 10
9.920978
 20
24.172823
 30
0.0
 10
9.920978
 20
24.172823
 30
0.0
  0
LWPOLYLINE
  5
15e
100
AcDbEntity
  8
Layer_1
 62
7
100
AcDbPolyline
 90
2
 70
0
 10
6.321065
 20
27.772737
 30
0.0
 10
6.321065
 20
27.772737
 30
0.0
  0
LWPOLYLINE
  5
15f
100
AcDbEntity
  8
Layer_1
 62
7
100
AcDbPolyline
 90
7
 70
0
 10
11.800416
 20
22.795431
 30
0.0
 10
12.100636
 20
22.795431
 30
0.0
 10
12.100636
 20
20.595508
 30
0.0
 10
14.300558
 20
20.595508
 30
0.0
 10
14.300558
 20
20.295306
 30
0.0
 10
11.800416
 20
20.295306
 30
0.0
 10
11.800416
 20
22.795431
 30
0.0
  0
LWPOLYLINE
  5
160
100
AcDbEntity
  8
Layer_1
 62
7
100
AcDbPolyline
 90
7
 70
0
 10
14.300558
 20
27.795362
 30
0.0
 10
14.300558
 20
27.495489
 30
0.0
 10
12.100644
 20
27.495489
 30
0.0
 10
12.100636
 20
25.295214
 30
0.0
 10
11.800416
 20
25.295214
 30
0.0
 10
11.800416
 20
27.795362
 30
0.0
 10
14.300558
 20
27.795362
 30
0.0
  0
LWPOLYLINE
  5
161
100
AcDbEntity
  8
Layer_1
 62
7
100
AcDbPolyline
 90
7
 70
0
 10
19.300472
 20
22.795431
 30
0.0
 10
19.000616
 20
22.795431
 30
0.0
 10
19.000616
 20
20.595508
 30
0.0
 10
16.800341
 20
20.595508
 30
0.0
 10
16.800341
 20
20.295306
 30
0.0
 10
19.300472
 20
20.295306
 30
0.0
 10
19.300472
 20
22.795431
 30
0.0
  0
SPLINE
  5
162
100
AcDbEntity
  8
Layer_1
 62
7
100
AcDbSpline
 70
8
 71
3
 72
8
 73
4
 74
0
 40
0
 40
0
 40
0
 40
0
 40
1
 40
1
 40
1
 40
1
 10
19.000616
 20
27.495489
 30
0.0
 10
18.267191
 20
27.495489
 30
0.0
 10
17.533766
 20
27.495489
 30
0.0
 10
16.800341
 20
27.495489
 30
0.0
  0
SPLINE
  5
163
100
AcDbEntity
  8
Layer_1
 62
7
100
AcDbSpline
 70
8
 71
3
 72
8
 73
4
 74
0
 40
0
 40
0
 40
0
 40
0
 40
1
 40
1
 40
1
 40
1
 10
16.800341
 20
27.495489
 30
0.0
 10
16.800341
 20
27.595443
 30
0.0
 10
16.800341
 20
27.695408
 30
0.0
 10
16.800341
 20
27.795362
 30
0.0
  0
LWPOLYLINE
  5
164
100
AcDbEntity
  8
Layer_1
 62
7
100
AcDbPolyline
 90
3
 70
0
 10
19.300472
 20
25.295214
 30
0.0
 10
19.000616
 20
25.295214
 30
0.0
 10
19.000616
 20
27.495489
 30
0.0
  0
LWPOLYLINE
  5
165
100
AcDbEntity
  8
Layer_1
 62
7
100
AcDbPolyline
 90
3
 70
0
 10
16.800341
 20
27.795362
 30
0.0
 10
19.300472
 20
27.795362
 30
0.0
 10
19.300472
 20
25.295214
 30
0.0
  0
SPLINE
  5
166
100
AcDbEntity
  8
Layer_1
 62
7
100
AcDbSpline
 70
8
 71
3
 72
8
 73
4
 74
0
 40
0
 40
0
 40
0
 40
0
 40
1
 40
1
 40
1
 40
1
 10
15.700444
 20
27.645248
 30
0.0
 10
15.700493
 20
27.591626
 30
0.0
 10
15.671914
 20
27.542056
 30
0.0
 10
15.625484
 20
27.515230
 30
0.0
  0
SPLINE
  5
167
100
AcDbEntity
  8
Layer_1
 62
7
100
AcDbSpline
 70
8
 71
3
 72
8
 73
4
 74
0
 40
0
 40
0
 40
0
 40
0
 40
1
 40
1
 40
1
 40
1
 10
15.625484
 20
27.515230
 30
0.0
 10
15.579054
 20
27.488405
 30
0.0
 10
15.521835
 20
27.488405
 30
0.0
 10
15.475405
 20
27.515230
 30
0.0
  0
SPLINE
  5
168
100
AcDbEntity
  8
Layer_1
 62
7
100
AcDbSpline
 70
8
 71
3
 72
8
 73
4
 74
0
 40
0
 40
0
 40
0
 40
0
 40
1
 40
1
 40
1
 40
1
 10
15.475405
 20
27.515230
 30
0.0
 10
15.428975
 20
27.542056
 30
0.0
 10
15.400396
 20
27.591626
 30
0.0
 10
15.400444
 20
27.645248
 30
0.0
  0
SPLINE
  5
169
100
AcDbEntity
  8
Layer_1
 62
7
100
AcDbSpline
 70
8
 71
3
 72
8
 73
4
 74
0
 40
0
 40
0
 40
0
 40
0
 40
1
 40
1
 40
1
 40
1
 10
15.400444
 20
27.645248
 30
0.0
 10
15.400396
 20
27.698870
 30
0.0
 10
15.428975
 20
27.748440
 30
0.0
 10
15.475405
 20
27.775265
 30
0.0
  0
SPLINE
  5
16a
100
AcDbEntity
  8
Layer_1
 62
7
100
AcDbSpline
 70
8
 71
3
 72
8
 73
4
 74
0
 40
0
 40
0
 40
0
 40
0
 40
1
 40
1
 40
1
 40
1
 10
15.475405
 20
27.775265
 30
0.0
 10
15.521835
 20
27.802091
 30
0.0
 10
15.579054
 20
27.802091
 30
0.0
 10
15.625484
 20
27.775265
 30
0.0
  0
SPLINE
  5
16b
100
AcDbEntity
  8
Layer_1
 62
7
100
AcDbSpline
 70
8
 71
3
 72
8
 73
4
 74
0
 40
0
 40
0
 40
0
 40
0
 40
1
 40
1
 40
1
 40
1
 10
15.625484
 20
27.775265
 30
0.0
 10
15.671914
 20
27.748440
 30
0.0
 10
15.700493
 20
27.698870
 30
0.0
 10
15.700444
 20
27.645248
 30
0.0
  0
LWPOLYLINE
  5
16c
100
AcDbEntity
  8
Layer_1
 62
7
100
AcDbPolyline
 90
5
 70
0
 10
11.300444
 20
28.295334
 30
0.0
 10
19.800444
 20
28.295334
 30
0.0
 10
19.800444
 20
19.795334
 30
0.0
 10
11.300444
 20
19.795334
 30
0.0
 10
11.300444
 20
28.295334
 30
0.0
  0
SPLINE
  5
16d
100
AcDbEntity
  8
Layer_1
 62
7
100
AcDbSpline
 70
8
 71
3
 72
8
 73
4
 74
0
 40
0
 40
0
 40
0
 40
0
 40
1
 40
1
 40
1
 40
1
 10
15.700444
 20
20.445420
 30
0.0
 10
15.700493
 20
20.391798
 30
0.0
 10
15.671914
 20
20.342228
 30
0.0
 10
15.625484
 20
20.315403
 30
0.0
  0
SPLINE
  5
16e
100
AcDbEntity
  8
Layer_1
 62
7
100
AcDbSpline
 70
8
 71
3
 72
8
 73
4
 74
0
 40
0
 40
0
 40
0
 40
0
 40
1
 40
1
 40
1
 40
1
 10
15.625484
 20
20.315403
 30
0.0
 10
15.579054
 20
20.288578
 30
0.0
 10
15.521835
 20
20.288578
 30
0.0
 10
15.475405
 20
20.315403
 30
0.0
  0
SPLINE
  5
16f
100
AcDbEntity
  8
Layer_1
 62
7
100
AcDbSpline
 70
8
 71
3
 72
8
 73
4
 74
0
 40
0
 40
0
 40
0
 40
0
 40
1
 40
1
 40
1
 40
1
 10
15.475405
 20
20.315403
 30
0.0
 10
15.428975
 20
20.342228
 30
0.0
 10
15.400396
 20
20.391798
 30
0.0
 10
15.400444
 20
20.445420
 30
0.0
  0
SPLINE
  5
170
100
AcDbEntity
  8
Layer_1
 62
7
100
AcDbSpline
 70
8
 71
3
 72
8
 73
4
 74
0
 40
0
 40
0
 40
0
 40
0
 40
1
 40
1
 40
1
 40
1
 10
15.400444
 20
20.445420
 30
0.0
 10
15.400396
 20
20.499043
 30
0.0
 10
15.428975
 20
20.548613
 30
0.0
 10
15.475405
 20
20.575438
 30
0.0
  0
SPLINE
  5
171
100
AcDbEntity
  8
Layer_1
 62
7
100
AcDbSpline
 70
8
 71
3
 72
8
 73
4
 74
0
 40
0
 40
0
 40
0
 40
0
 40
1
 40
1
 40
1
 40
1
 10
15.475405
 20
20.575438
 30
0.0
 10
15.521835
 20
20.602263
 30
0.0
 10
15.579054
 20
20.602263
 30
0.0
 10
15.625484
 20
20.575438
 30
0.0
  0
SPLINE
  5
172
100
AcDbEntity
  8
Layer_1
 62
7
100
AcDbSpline
 70
8
 71
3
 72
8
 73
4
 74
0
 40
0
 40
0
 40
0
 40
0
 40
1
 40
1
 40
1
 40
1
 10
15.625484
 20
20.575438
 30
0.0
 10
15.671914
 20
20.548613
 30
0.0
 10
15.700493
 20
20.499043
 30
0.0
 10
15.700444
 20
20.445420
 30
0.0
  0
LWPOLYLINE
  5
173
100
AcDbEntity
  8
Layer_1
 62
7
100
AcDbPolyline
 90
2
 70
0
 10
15.700444
 20
27.645248
 30
0.0
 10
15.700444
 20
27.645248
 30
0.0
  0
SPLINE
  5
174
100
AcDbEntity
  8
Layer_1
 62
7
100
AcDbSpline
 70
8
 71
3
 72
8
 73
4
 74
0
 40
0
 40
0
 40
0
 40
0
 40
1
 40
1
 40
1
 40
1
 10
19.300358
 20
24.045334
 30
0.0
 10
19.300407
 20
23.991712
 30
0.0
 10
19.271827
 20
23.942142
 30
0.0
 10
19.225397
 20
23.915317
 30
0.0
  0
SPLINE
  5
175
100
AcDbEntity
  8
Layer_1
 62
7
100
AcDbSpline
 70
8
 71
3
 72
8
 73
4
 74
0
 40
0
 40
0
 40
0
 40
0
 40
1
 40
1
 40
1
 40
1
 10
19.225397
 20
23.915317
 30
0.0
 10
19.178967
 20
23.888491
 30
0.0
 10
19.121749
 20
23.888491
 30
0.0
 10
19.075318
 20
23.915317
 30
0.0
  0
SPLINE
  5
176
100
AcDbEntity
  8
Layer_1
 62
7
100
AcDbSpline
 70
8
 71
3
 72
8
 73
4
 74
0
 40
0
 40
0
 40
0
 40
0
 40
1
 40
1
 40
1
 40
1
 10
19.075318
 20
23.915317
 30
0.0
 10
19.028888
 20
23.942142
 30
0.0
 10
19.000309
 20
23.991712
 30
0.0
 10
19.000358
 20
24.045334
 30
0.0
  0
SPLINE
  5
177
100
AcDbEntity
  8
Layer_1
 62
7
100
AcDbSpline
 70
8
 71
3
 72
8
 73
4
 74
0
 40
0
 40
0
 40
0
 40
0
 40
1
 40
1
 40
1
 40
1
 10
19.000358
 20
24.045334
 30
0.0
 10
19.000309
 20
24.098956
 30
0.0
 10
19.028888
 20
24.148526
 30
0.0
 10
19.075318
 20
24.175352
 30
0.0
  0
SPLINE
  5
178
100
AcDbEntity
  8
Layer_1
 62
7
100
AcDbSpline
 70
8
 71
3
 72
8
 73
4
 74
0
 40
0
 40
0
 40
0
 40
0
 40
1
 40
1
 40
1
 40
1
 10
19.075318
 20
24.175352
 30
0.0
 10
19.121749
 20
24.202177
 30
0.0
 10
19.178967
 20
24.202177
 30
0.0
 10
19.225397
 20
24.175352
 30
0.0
  0
SPLINE
  5
179
100
AcDbEntity
  8
Layer_1
 62
7
100
AcDbSpline
 70
8
 71
3
 72
8
 73
4
 74
0
 40
0
 40
0
 40
0
 40
0
 40
1
 40
1
 40
1
 40
1
 10
19.225397
 20
24.175352
 30
0.0
 10
19.271827
 20
24.148526
 30
0.0
 10
19.300407
 20
24.098956
 30
0.0
 10
19.300358
 20
24.045334
 30
0.0
  0
LWPOLYLINE
  5
17a
100
AcDbEntity
  8
Layer_1
 62
7
100
AcDbPolyline
 90
2
 70
0
 10
15.700444
 20
20.445420
 30
0.0
 10
15.700444
 20
20.445420
 30
0.0
  0
SPLINE
  5
17b
100
AcDbEntity
  8
Layer_1
 62
7
100
AcDbSpline
 70
8
 71
3
 72
8
 73
4
 74
0
 40
0
 40
0
 40
0
 40
0
 40
1
 40
1
 40
1
 40
1
 10
12.100530
 20
24.045334
 30
0.0
 10
12.100579
 20
23.991712
 30
0.0
 10
12.072000
 20
23.942142
 30
0.0
 10
12.025570
 20
23.915317
 30
0.0
  0
SPLINE
  5
17c
100
AcDbEntity
  8
Layer_1
 62
7
100
AcDbSpline
 70
8
 71
3
 72
8
 73
4
 74
0
 40
0
 40
0
 40
0
 40
0
 40
1
 40
1
 40
1
 40
1
 10
12.025570
 20
23.915317
 30
0.0
 10
11.979139
 20
23.888491
 30
0.0
 10
11.921921
 20
23.888491
 30
0.0
 10
11.875491
 20
23.915317
 30
0.0
  0
SPLINE
  5
17d
100
AcDbEntity
  8
Layer_1
 62
7
100
AcDbSpline
 70
8
 71
3
 72
8
 73
4
 74
0
 40
0
 40
0
 40
0
 40
0
 40
1
 40
1
 40
1
 40
1
 10
11.875491
 20
23.915317
 30
0.0
 10
11.829061
 20
23.942142
 30
0.0
 10
11.800482
 20
23.991712
 30
0.0
 10
11.800530
 20
24.045334
 30
0.0
  0
SPLINE
  5
17e
100
AcDbEntity
  8
Layer_1
 62
7
100
AcDbSpline
 70
8
 71
3
 72
8
 73
4
 74
0
 40
0
 40
0
 40
0
 40
0
 40
1
 40
1
 40
1
 40
1
 10
11.800530
 20
24.045334
 30
0.0
 10
11.800482
 20
24.098956
 30
0.0
 10
11.829061
 20
24.148526
 30
0.0
 10
11.875491
 20
24.175352
 30
0.0
  0
SPLINE
  5
17f
100
AcDbEntity
  8
Layer_1
 62
7
100
AcDbSpline
 70
8
 71
3
 72
8
 73
4
 74
0
 40
0
 40
0
 40
0
 40
0
 40
1
 40
1
 40
1
 40
1
 10
11.875491
 20
24.175352
 30
0.0
 10
11.921921
 20
24.202177
 30
0.0
 10
11.979139
 20
24.202177
 30
0.0
 10
12.025570
 20
24.175352
 30
0.0
  0
SPLINE
  5
180
100
AcDbEntity
  8
Layer_1
 62
7
100
AcDbSpline
 70
8
 71
3
 72
8
 73
4
 74
0
 40
0
 40
0
 40
0
 40
0
 40
1
 40
1
 40
1
 40
1
 10
12.025570
 20
24.175352
 30
0.0
 10
12.072000
 20
24.148526
 30
0.0
 10
12.100579
 20
24.098956
 30
0.0
 10
12.100530
 20
24.045334
 30
0.0
  0
LWPOLYLINE
  5
181
100
AcDbEntity
  8
Layer_1
 62
7
100
AcDbPolyline
 90
2
 70
0
 10
19.300358
 20
24.045334
 30
0.0
 10
19.300358
 20
24.045334
 30
0.0
  0
SPLINE
  5
182
100
AcDbEntity
  8
Layer_1
 62
7
100
AcDbSpline
 70
8
 71
3
 72
8
 73
4
 74
0
 40
0
 40
0
 40
0
 40
0
 40
1
 40
1
 40
1
 40
1
 10
15.850444
 20
20.445420
 30
0.0
 10
15.850444
 20
20.338241
 30
0.0
 10
15.793265
 20
20.239202
 30
0.0
 10
15.700444
 20
20.185613
 30
0.0
  0
SPLINE
  5
183
100
AcDbEntity
  8
Layer_1
 62
7
100
AcDbSpline
 70
8
 71
3
 72
8
 73
4
 74
0
 40
0
 40
0
 40
0
 40
0
 40
1
 40
1
 40
1
 40
1
 10
15.700444
 20
20.185613
 30
0.0
 10
15.607624
 20
20.132023
 30
0.0
 10
15.493265
 20
20.132023
 30
0.0
 10
15.400444
 20
20.185613
 30
0.0
  0
SPLINE
  5
184
100
AcDbEntity
  8
Layer_1
 62
7
100
AcDbSpline
 70
8
 71
3
 72
8
 73
4
 74
0
 40
0
 40
0
 40
0
 40
0
 40
1
 40
1
 40
1
 40
1
 10
15.400444
 20
20.185613
 30
0.0
 10
15.307624
 20
20.239202
 30
0.0
 10
15.250444
 20
20.338241
 30
0.0
 10
15.250444
 20
20.445420
 30
0.0
  0
SPLINE
  5
185
100
AcDbEntity
  8
Layer_1
 62
7
100
AcDbSpline
 70
8
 71
3
 72
8
 73
4
 74
0
 40
0
 40
0
 40
0
 40
0
 40
1
 40
1
 40
1
 40
1
 10
15.250444
 20
20.445420
 30
0.0
 10
15.250444
 20
20.552600
 30
0.0
 10
15.307624
 20
20.651638
 30
0.0
 10
15.400444
 20
20.705228
 30
0.0
  0
SPLINE
  5
186
100
AcDbEntity
  8
Layer_1
 62
7
100
AcDbSpline
 70
8
 71
3
 72
8
 73
4
 74
0
 40
0
 40
0
 40
0
 40
0
 40
1
 40
1
 40
1
 40
1
 10
15.400444
 20
20.705228
 30
0.0
 10
15.493265
 20
20.758818
 30
0.0
 10
15.607624
 20
20.758818
 30
0.0
 10
15.700444
 20
20.705228
 30
0.0
  0
SPLINE
  5
187
100
AcDbEntity
  8
Layer_1
 62
7
100
AcDbSpline
 70
8
 71
3
 72
8
 73
4
 74
0
 40
0
 40
0
 40
0
 40
0
 40
1
 40
1
 40
1
 40
1
 10
15.700444
 20
20.705228
 30
0.0
 10
15.793265
 20
20.651638
 30
0.0
 10
15.850444
 20
20.552600
 30
0.0
 10
15.850444
 20
20.445420
 30
0.0
  0
LWPOLYLINE
  5
188
100
AcDbEntity
  8
Layer_1
 62
7
100
AcDbPolyline
 90
2
 70
0
 10
12.100530
 20
24.045334
 30
0.0
 10
12.100530
 20
24.045334
 30
0.0
  0
SPLINE
  5
189
100
AcDbEntity
  8
Layer_1
 62
7
100
AcDbSpline
 70
8
 71
3
 72
8
 73
4
 74
0
 40
0
 40
0
 40
0
 40
0
 40
1
 40
1
 40
1
 40
1
 10
12.250530
 20
24.045334
 30
0.0
 10
12.250530
 20
23.938154
 30
0.0
 10
12.193351
 20
23.839116
 30
0.0
 10
12.100530
 20
23.785526
 30
0.0
  0
SPLINE
  5
18a
100
AcDbEntity
  8
Layer_1
 62
7
100
AcDbSpline
 70
8
 71
3
 72
8
 73
4
 74
0
 40
0
 40
0
 40
0
 40
0
 40
1
 40
1
 40
1
 40
1
 10
12.100530
 20
23.785526
 30
0.0
 10
12.007710
 20
23.731937
 30
0.0
 10
11.893351
 20
23.731937
 30
0.0
 10
11.800530
 20
23.785526
 30
0.0
  0
SPLINE
  5
18b
100
AcDbEntity
  8
Layer_1
 62
7
100
AcDbSpline
 70
8
 71
3
 72
8
 73
4
 74
0
 40
0
 40
0
 40
0
 40
0
 40
1
 40
1
 40
1
 40
1
 10
11.800530
 20
23.785526
 30
0.0
 10
11.707710
 20
23.839116
 30
0.0
 10
11.650530
 20
23.938154
 30
0.0
 10
11.650530
 20
24.045334
 30
0.0
  0
SPLINE
  5
18c
100
AcDbEntity
  8
Layer_1
 62
7
100
AcDbSpline
 70
8
 71
3
 72
8
 73
4
 74
0
 40
0
 40
0
 40
0
 40
0
 40
1
 40
1
 40
1
 40
1
 10
11.650530
 20
24.045334
 30
0.0
 10
11.650530
 20
24.152514
 30
0.0
 10
11.707710
 20
24.251552
 30
0.0
 10
11.800530
 20
24.305142
 30
0.0
  0
SPLINE
  5
18d
100
AcDbEntity
  8
Layer_1
 62
7
100
AcDbSpline
 70
8
 71
3
 72
8
 73
4
 74
0
 40
0
 40
0
 40
0
 40
0
 40
1
 40
1
 40
1
 40
1
 10
11.800530
 20
24.305142
 30
0.0
 10
11.893351
 20
24.358732
 30
0.0
 10
12.007710
 20
24.358732
 30
0.0
 10
12.100530
 20
24.305142
 30
0.0
  0
SPLINE
  5
18e
100
AcDbEntity
  8
Layer_1
 62
7
100
AcDbSpline
 70
8
 71
3
 72
8
 73
4
 74
0
 40
0
 40
0
 40
0
 40
0
 40
1
 40
1
 40
1
 40
1
 10
12.100530
 20
24.305142
 30
0.0
 10
12.193351
 20
24.251552
 30
0.0
 10
12.250530
 20
24.152514
 30
0.0
 10
12.250530
 20
24.045334
 30
0.0
  0
LWPOLYLINE
  5
18f
100
AcDbEntity
  8
Layer_1
 62
7
100
AcDbPolyline
 90
2
 70
0
 10
15.850444
 20
20.445420
 30
0.0
 10
15.850444
 20
20.445420
 30
0.0
  0
SPLINE
  5
190
100
AcDbEntity
  8
Layer_1
 62
7
100
AcDbSpline
 70
8
 71
3
 72
8
 73
4
 74
0
 40
0
 40
0
 40
0
 40
0
 40
1
 40
1
 40
1
 40
1
 10
19.450358
 20
24.045334
 30
0.0
 10
19.450358
 20
23.938154
 30
0.0
 10
19.393178
 20
23.839116
 30
0.0
 10
19.300358
 20
23.785526
 30
0.0
  0
SPLINE
  5
191
100
AcDbEntity
  8
Layer_1
 62
7
100
AcDbSpline
 70
8
 71
3
 72
8
 73
4
 74
0
 40
0
 40
0
 40
0
 40
0
 40
1
 40
1
 40
1
 40
1
 10
19.300358
 20
23.785526
 30
0.0
 10
19.207537
 20
23.731937
 30
0.0
 10
19.093178
 20
23.731937
 30
0.0
 10
19.000358
 20
23.785526
 30
0.0
  0
SPLINE
  5
192
100
AcDbEntity
  8
Layer_1
 62
7
100
AcDbSpline
 70
8
 71
3
 72
8
 73
4
 74
0
 40
0
 40
0
 40
0
 40
0
 40
1
 40
1
 40
1
 40
1
 10
19.000358
 20
23.785526
 30
0.0
 10
18.907537
 20
23.839116
 30
0.0
 10
18.850358
 20
23.938154
 30
0.0
 10
18.850358
 20
24.045334
 30
0.0
  0
SPLINE
  5
193
100
AcDbEntity
  8
Layer_1
 62
7
100
AcDbSpline
 70
8
 71
3
 72
8
 73
4
 74
0
 40
0
 40
0
 40
0
 40
0
 40
1
 40
1
 40
1
 40
1
 10
18.850358
 20
24.045334
 30
0.0
 10
18.850358
 20
24.152514
 30
0.0
 10
18.907537
 20
24.251552
 30
0.0
 10
19.000358
 20
24.305142
 30
0.0
  0
SPLINE
  5
194
100
AcDbEntity
  8
Layer_1
 62
7
100
AcDbSpline
 70
8
 71
3
 72
8
 73
4
 74
0
 40
0
 40
0
 40
0
 40
0
 40
1
 40
1
 40
1
 40
1
 10
19.000358
 20
24.305142
 30
0.0
 10
19.093178
 20
24.358732
 30
0.0
 10
19.207537
 20
24.358732
 30
0.0
 10
19.300358
 20
24.305142
 30
0.0
  0
SPLINE
  5
195
100
AcDbEntity
  8
Layer_1
 62
7
100
AcDbSpline
 70
8
 71
3
 72
8
 73
4
 74
0
 40
0
 40
0
 40
0
 40
0
 40
1
 40
1
 40
1
 40
1
 10
19.300358
 20
24.305142
 30
0.0
 10
19.393178
 20
24.251552
 30
0.0
 10
19.450358
 20
24.152514
 30
0.0
 10
19.450358
 20
24.045334
 30
0.0
  0
LWPOLYLINE
  5
196
100
AcDbEntity
  8
Layer_1
 62
7
100
AcDbPolyline
 90
2
 70
0
 10
12.250530
 20
24.045334
 30
0.0
 10
12.250530
 20
24.045334
 30
0.0
  0
SPLINE
  5
197
100
AcDbEntity
  8
Layer_1
 62
7
100
AcDbSpline
 70
8
 71
3
 72
8
 73
4
 74
0
 40
0
 40
0
 40
0
 40
0
 40
1
 40
1
 40
1
 40
1
 10
15.850444
 20
27.645248
 30
0.0
 10
15.850444
 20
27.538068
 30
0.0
 10
15.793265
 20
27.439030
 30
0.0
 10
15.700444
 20
27.385440
 30
0.0
  0
SPLINE
  5
198
100
AcDbEntity
  8
Layer_1
 62
7
100
AcDbSpline
 70
8
 71
3
 72
8
 73
4
 74
0
 40
0
 40
0
 40
0
 40
0
 40
1
 40
1
 40
1
 40
1
 10
15.700444
 20
27.385440
 30
0.0
 10
15.607624
 20
27.331850
 30
0.0
 10
15.493265
 20
27.331850
 30
0.0
 10
15.400444
 20
27.385440
 30
0.0
  0
SPLINE
  5
199
100
AcDbEntity
  8
Layer_1
 62
7
100
AcDbSpline
 70
8
 71
3
 72
8
 73
4
 74
0
 40
0
 40
0
 40
0
 40
0
 40
1
 40
1
 40
1
 40
1
 10
15.400444
 20
27.385440
 30
0.0
 10
15.307624
 20
27.439030
 30
0.0
 10
15.250444
 20
27.538068
 30
0.0
 10
15.250444
 20
27.645248
 30
0.0
  0
SPLINE
  5
19a
100
AcDbEntity
  8
Layer_1
 62
7
100
AcDbSpline
 70
8
 71
3
 72
8
 73
4
 74
0
 40
0
 40
0
 40
0
 40
0
 40
1
 40
1
 40
1
 40
1
 10
15.250444
 20
27.645248
 30
0.0
 10
15.250444
 20
27.752427
 30
0.0
 10
15.307624
 20
27.851466
 30
0.0
 10
15.400444
 20
27.905055
 30
0.0
  0
SPLINE
  5
19b
100
AcDbEntity
  8
Layer_1
 62
7
100
AcDbSpline
 70
8
 71
3
 72
8
 73
4
 74
0
 40
0
 40
0
 40
0
 40
0
 40
1
 40
1
 40
1
 40
1
 10
15.400444
 20
27.905055
 30
0.0
 10
15.493265
 20
27.958645
 30
0.0
 10
15.607624
 20
27.958645
 30
0.0
 10
15.700444
 20
27.905055
 30
0.0
  0
SPLINE
  5
19c
100
AcDbEntity
  8
Layer_1
 62
7
100
AcDbSpline
 70
8
 71
3
 72
8
 73
4
 74
0
 40
0
 40
0
 40
0
 40
0
 40
1
 40
1
 40
1
 40
1
 10
15.700444
 20
27.905055
 30
0.0
 10
15.793265
 20
27.851466
 30
0.0
 10
15.850444
 20
27.752427
 30
0.0
 10
15.850444
 20
27.645248
 30
0.0
  0
LWPOLYLINE
  5
19d
100
AcDbEntity
  8
Layer_1
 62
7
100
AcDbPolyline
 90
2
 70
0
 10
19.450358
 20
24.045334
 30
0.0
 10
19.450358
 20
24.045334
 30
0.0
  0
LWPOLYLINE
  5
19e
100
AcDbEntity
  8
Layer_1
 62
7
100
AcDbPolyline
 90
2
 70
0
 10
15.850444
 20
27.645248
 30
0.0
 10
15.850444
 20
27.645248
 30
0.0
  0
SPLINE
  5
19f
100
AcDbEntity
  8
Layer_1
 62
7
100
AcDbSpline
 70
8
 71
3
 72
8
 73
4
 74
0
 40
0
 40
0
 40
0
 40
0
 40
1
 40
1
 40
1
 40
1
 10
-4.096222
 20
9.539112
 30
0.0
 10
-4.096222
 20
9.401041
 30
0.0
 10
-4.208151
 20
9.289112
 30
0.0
 10
-4.346222
 20
9.289112
 30
0.0
  0
SPLINE
  5
1a0
100
AcDbEntity
  8
Layer_1
 62
7
100
AcDbSpline
 70
8
 71
3
 72
8
 73
4
 74
0
 40
0
 40
0
 40
0
 40
0
 40
1
 40
1
 40
1
 40
1
 10
-4.346222
 20
9.289112
 30
0.0
 10
-4.484294
 20
9.289112
 30
0.0
 10
-4.596222
 20
9.401041
 30
0.0
 10
-4.596222
 20
9.539112
 30
0.0
  0
SPLINE
  5
1a1
100
AcDbEntity
  8
Layer_1
 62
7
100
AcDbSpline
 70
8
 71
3
 72
8
 73
4
 74
0
 40
0
 40
0
 40
0
 40
0
 40
1
 40
1
 40
1
 40
1
 10
-4.596222
 20
9.539112
 30
0.0
 10
-4.596222
 20
9.677183
 30
0.0
 10
-4.484294
 20
9.789112
 30
0.0
 10
-4.346222
 20
9.789112
 30
0.0
  0
SPLINE
  5
1a2
100
AcDbEntity
  8
Layer_1
 62
7
100
AcDbSpline
 70
8
 71
3
 72
8
 73
4
 74
0
 40
0
 40
0
 40
0
 40
0
 40
1
 40
1
 40
1
 40
1
 10
-4.346222
 20
9.789112
 30
0.0
 10
-4.208151
 20
9.789112
 30
0.0
 10
-4.096222
 20
9.677183
 30
0.0
 10
-4.096222
 20
9.539112
 30
0.0
  0
LWPOLYLINE
  5
1a3
100
AcDbEntity
  8
Layer_1
 62
7
100
AcDbPolyline
 90
17
 70
0
 10
-5.560679
 20
10.223416
 30
0.0
 10
-5.560679
 20
8.125269
 30
0.0
 10
-4.460894
 20
8.125269
 30
0.0
 10
-4.460894
 20
8.425130
 30
0.0
 10
-4.586131
 20
8.425130
 30
0.0
 10
-4.586131
 20
8.665019
 30
0.0
 10
-4.460894
 20
8.665019
 30
0.0
 10
-4.460894
 20
8.825533
 30
0.0
 10
-4.161033
 20
8.825533
 30
0.0
 10
-4.161033
 20
8.665019
 30
0.0
 10
-4.035797
 20
8.665019
 30
0.0
 10
-4.035797
 20
8.425130
 30
0.0
 10
-4.161033
 20
8.425130
 30
0.0
 10
-4.161033
 20
8.125269
 30
0.0
 10
-3.060367
 20
8.125269
 30
0.0
 10
-3.060367
 20
10.223416
 30
0.0
 10
-5.560679
 20
10.223416
 30
0.0
  0
LWPOLYLINE
  5
1a4
100
AcDbEntity
  8
Layer_1
 62
7
100
AcDbPolyline
 90
2
 70
0
 10
-4.096222
 20
9.539112
 30
0.0
 10
-4.096222
 20
9.539112
 30
0.0
  0
ENDSEC
  0
SECTION
  2
OBJECTS
  0
DICTIONARY
  5
C
330
0
100
AcDbDictionary
  3
ACAD_GROUP
350
D
  3
ACAD_MLINESTYLE
350
17
  0
DICTIONARY
  5
D
330
C
100
AcDbDictionary
  0
DICTIONARY
  5
1A
330
C
100
AcDbDictionary
  0
DICTIONARY
  5
17
330
C
100
AcDbDictionary
  3
STANDARD
350
18
  0
DICTIONARY
  5
19
330
C
100
AcDbDictionary
  0
ENDSEC
  0
EOF
