  0
SECTION
  2
HEADER
  9
$ACADVER
  1
AC1014
  9
$HANDSEED
  5
FFFF
  9
$MEASUREMENT
 70
     1
  0
ENDSEC
  0
SECTION
  2
TABLES
  0
TABLE
  2
VPORT
  5
8
330
0
100
AcDbSymbolTable
 70
     4
  0
VPORT
  5
2E
330
8
100
AcDbSymbolTableRecord
100
AcDbViewportTableRecord
  2
*ACTIVE
 70
     0
 10
0.0
 20
0.0
 11
1.0
 21
1.0
 12
210.0
 22
148.5
 13
0.0
 23
0.0
 14
10.0
 24
10.0
 15
10.0
 25
10.0
 16
0.0
 26
0.0
 36
1.0
 17
0.0
 27
0.0
 37
0.0
 40
341.0
 41
1.24
 42
50.0
 43
0.0
 44
0.0
 50
0.0
 51
0.0
 71
     0
 72
   100
 73
     1
 74
     3
 75
     0
 76
     0
 77
     0
 78
     0
  0
ENDTAB
  0
TABLE
  2
LTYPE
  5
5
330
0
100
AcDbSymbolTable
 70
     1
  0
LTYPE
  5
14
330
5
100
AcDbSymbolTableRecord
100
AcDbLinetypeTableRecord
  2
BYBLOCK
 70
     0
  3

 72
    65
 73
     0
 40
0.0
  0
LTYPE
  5
15
330
5
100
AcDbSymbolTableRecord
100
AcDbLinetypeTableRecord
  2
BYLAYER
 70
     0
  3

 72
    65
 73
     0
 40
0.0
  0
LTYPE
  5
16
330
5
100
AcDbSymbolTableRecord
100
AcDbLinetypeTableRecord
  2
CONTINUOUS
 70
     0
  3
Solid line
 72
    65
 73
     0
 40
0.0
  0
ENDTAB
  0
TABLE
  2
LAYER
  5
2
100
AcDbSymbolTable
 70
2
  0
LAYER
  5
50
100
AcDbSymbolTableRecord
100
AcDbLayerTableRecord
  2
0
 70
0
  6
CONTINUOUS
  0
LAYER
  5
51
100
AcDbSymbolTableRecord
100
AcDbLayerTableRecord
  2
Layer_1
 70
0
  6
CONTINUOUS
  0
ENDTAB
  0
TABLE
  2
STYLE
  5
3
330
0
100
AcDbSymbolTable
 70
     1
  0
STYLE
  5
11
330
3
100
AcDbSymbolTableRecord
100
AcDbTextStyleTableRecord
  2
STANDARD
 70
     0
 40
0.0
 41
1.0
 50
0.0
 71
     0
 42
2.5
  3
txt
  4

  0
ENDTAB
  0
TABLE
  2
VIEW
  5
6
330
0
100
AcDbSymbolTable
 70
     0
  0
ENDTAB
  0
TABLE
  2
UCS
  5
7
330
0
100
AcDbSymbolTable
 70
     0
  0
ENDTAB
  0
TABLE
  2
APPID
  5
9
330
0
100
AcDbSymbolTable
 70
     2
  0
APPID
  5
12
330
9
100
AcDbSymbolTableRecord
100
AcDbRegAppTableRecord
  2
ACAD
 70
     0
  0
ENDTAB
  0
TABLE
  2
DIMSTYLE
  5
A
330
0
100
AcDbSymbolTable
 70
     1
  0
DIMSTYLE
105
27
330
A
100
AcDbSymbolTableRecord
100
AcDbDimStyleTableRecord
  2
ISO-25
 70
     0
  3

  4

  5

  6

  7

 40
1.0
 41
2.5
 42
0.625
 43
3.75
 44
1.25
 45
0.0
 46
0.0
 47
0.0
 48
0.0
140
2.5
141
2.5
142
0.0
143
0.03937007874016
144
1.0
145
0.0
146
1.0
147
0.625
 71
     0
 72
     0
 73
     0
 74
     0
 75
     0
 76
     0
 77
     1
 78
     8
170
     0
171
     3
172
     1
173
     0
174
     0
175
     0
176
     0
177
     0
178
     0
270
     2
271
     2
272
     2
273
     2
274
     3
340
11
275
     0
280
     0
281
     0
282
     0
283
     0
284
     8
285
     0
286
     0
287
     3
288
     0
  0
ENDTAB
  0
TABLE
  2
BLOCK_RECORD
  5
1
330
0
100
AcDbSymbolTable
 70
     1
  0
BLOCK_RECORD
  5
1F
330
1
100
AcDbSymbolTableRecord
100
AcDbBlockTableRecord
  2
*MODEL_SPACE
  0
BLOCK_RECORD
  5
1B
330
1
100
AcDbSymbolTableRecord
100
AcDbBlockTableRecord
  2
*PAPER_SPACE
  0
ENDTAB
  0
ENDSEC
  0
SECTION
  2
BLOCKS
  0
BLOCK
  5
20
330
1F
100
AcDbEntity
  8
0
100
AcDbBlockBegin
  2
*MODEL_SPACE
 70
     0
 10
0.0
 20
0.0
 30
0.0
  3
*MODEL_SPACE
  1

  0
ENDBLK
  5
21
330
1F
100
AcDbEntity
  8
0
100
AcDbBlockEnd
  0
BLOCK
  5
1C
330
1B
100
AcDbEntity
 67
     1
  8
0
100
AcDbBlockBegin
  2
*PAPER_SPACE
  1

  0
ENDBLK
  5
1D
330
1B
100
AcDbEntity
 67
     1
  8
0
100
AcDbBlockEnd
  0
ENDSEC
  0
SECTION
  2
ENTITIES
  0
LWPOLYLINE
  5
100
100
AcDbEntity
  8
Layer_1
 62
7
100
AcDbPolyline
 90
5
 70
0
 10
295.165680
 20
136.543044
 30
0.0
 10
352.773588
 20
136.543044
 30
0.0
 10
352.773588
 20
131.042791
 30
0.0
 10
295.165680
 20
131.042791
 30
0.0
 10
295.165680
 20
136.543044
 30
0.0
  0
LWPOLYLINE
  5
101
100
AcDbEntity
  8
Layer_1
 62
7
100
AcDbPolyline
 90
5
 70
0
 10
300.955420
 20
130.753304
 30
0.0
 10
346.983848
 20
130.753304
 30
0.0
 10
346.983848
 20
65.908222
 30
0.0
 10
300.955420
 20
65.908222
 30
0.0
 10
300.955420
 20
130.753304
 30
0.0
  0
LWPOLYLINE
  5
102
100
AcDbEntity
  8
Layer_1
 62
7
100
AcDbPolyline
 90
2
 70
0
 10
295.238052
 20
142.208718
 30
0.0
 10
352.991063
 20
142.208718
 30
0.0
  0
LWPOLYLINE
  5
103
100
AcDbEntity
  8
Layer_1
 62
7
100
AcDbPolyline
 90
2
 70
0
 10
301.027791
 20
61.565918
 30
0.0
 10
347.194692
 20
61.565918
 30
0.0
  0
LWPOLYLINE
  5
104
100
AcDbEntity
  8
Layer_1
 62
7
100
AcDbPolyline
 90
2
 70
0
 10
354.303730
 20
130.680930
 30
0.0
 10
354.303730
 20
65.980594
 30
0.0
  0
LWPOLYLINE
  5
105
100
AcDbEntity
  8
Layer_1
 62
7
100
AcDbPolyline
 90
2
 70
0
 10
285.625941
 20
165.745573
 30
0.0
 10
310.627302
 20
165.745573
 30
0.0
  0
LWPOLYLINE
  5
106
100
AcDbEntity
  8
Layer_1
 62
7
100
AcDbPolyline
 90
2
 70
0
 10
310.627302
 20
168.744184
 30
0.0
 10
310.627302
 20
165.745573
 30
0.0
  0
LWPOLYLINE
  5
107
100
AcDbEntity
  8
Layer_1
 62
7
100
AcDbPolyline
 90
4
 70
0
 10
310.627302
 20
168.744184
 30
0.0
 10
335.625135
 20
168.744184
 30
0.0
 10
335.625135
 20
165.745573
 30
0.0
 10
357.627885
 20
165.745573
 30
0.0
  0
LWPOLYLINE
  5
108
100
AcDbEntity
  8
Layer_1
 62
7
100
AcDbPolyline
 90
4
 70
0
 10
285.625941
 20
240.742601
 30
0.0
 10
310.627302
 20
240.742601
 30
0.0
 10
310.627302
 20
237.743990
 30
0.0
 10
335.625135
 20
237.743990
 30
0.0
  0
LWPOLYLINE
  5
109
100
AcDbEntity
  8
Layer_1
 62
7
100
AcDbPolyline
 90
2
 70
0
 10
335.625135
 20
240.742601
 30
0.0
 10
335.625135
 20
237.743990
 30
0.0
  0
LWPOLYLINE
  5
10a
100
AcDbEntity
  8
Layer_1
 62
7
100
AcDbPolyline
 90
2
 70
0
 10
335.625135
 20
240.742601
 30
0.0
 10
357.627885
 20
240.742601
 30
0.0
  0
LWPOLYLINE
  5
10b
100
AcDbEntity
  8
Layer_1
 62
7
100
AcDbPolyline
 90
2
 70
0
 10
285.625941
 20
165.745573
 30
0.0
 10
285.625941
 20
190.743407
 30
0.0
  0
LWPOLYLINE
  5
10c
100
AcDbEntity
  8
Layer_1
 62
7
100
AcDbPolyline
 90
2
 70
0
 10
288.628080
 20
190.743407
 30
0.0
 10
285.625941
 20
190.743407
 30
0.0
  0
LWPOLYLINE
  5
10d
100
AcDbEntity
  8
Layer_1
 62
7
100
AcDbPolyline
 90
4
 70
0
 10
288.628080
 20
190.743407
 30
0.0
 10
288.628080
 20
215.744768
 30
0.0
 10
285.625941
 20
215.744768
 30
0.0
 10
285.625941
 20
240.742601
 30
0.0
  0
LWPOLYLINE
  5
10e
100
AcDbEntity
  8
Layer_1
 62
7
100
AcDbPolyline
 90
2
 70
0
 10
357.627885
 20
165.745573
 30
0.0
 10
357.627885
 20
190.743407
 30
0.0
  0
LWPOLYLINE
  5
10f
100
AcDbEntity
  8
Layer_1
 62
7
100
AcDbPolyline
 90
2
 70
0
 10
360.626496
 20
190.743407
 30
0.0
 10
357.627885
 20
190.743407
 30
0.0
  0
LWPOLYLINE
  5
110
100
AcDbEntity
  8
Layer_1
 62
7
100
AcDbPolyline
 90
4
 70
0
 10
360.626496
 20
190.743407
 30
0.0
 10
360.626496
 20
215.744768
 30
0.0
 10
357.627885
 20
215.744768
 30
0.0
 10
357.627885
 20
240.742601
 30
0.0
  0
LWPOLYLINE
  5
111
100
AcDbEntity
  8
Layer_1
 62
7
100
AcDbPolyline
 90
46
 70
0
 10
83.480377
 20
202.307392
 30
0.0
 10
83.480377
 20
177.313086
 30
0.0
 10
86.478988
 20
177.313086
 30
0.0
 10
86.478988
 20
152.309961
 30
0.0
 10
83.480377
 20
152.309961
 30
0.0
 10
83.480377
 20
127.306836
 30
0.0
 10
108.474682
 20
127.306836
 30
0.0
 10
108.474682
 20
130.314267
 30
0.0
 10
119.472529
 20
130.314267
 30
0.0
 10
119.472529
 20
133.312878
 30
0.0
 10
118.220168
 20
133.312878
 30
0.0
 10
118.220168
 20
135.711767
 30
0.0
 10
119.472529
 20
135.711767
 30
0.0
 10
119.472529
 20
137.316906
 30
0.0
 10
122.471140
 20
137.316906
 30
0.0
 10
122.471140
 20
135.711767
 30
0.0
 10
123.723502
 20
135.711767
 30
0.0
 10
123.723502
 20
133.312878
 30
0.0
 10
122.471140
 20
133.312878
 30
0.0
 10
122.471140
 20
130.314267
 30
0.0
 10
133.477807
 20
130.314267
 30
0.0
 10
133.477807
 20
127.306836
 30
0.0
 10
155.473502
 20
127.306836
 30
0.0
 10
155.473502
 20
152.309961
 30
0.0
 10
158.472113
 20
152.309961
 30
0.0
 10
158.472113
 20
177.313086
 30
0.0
 10
155.473502
 20
177.313086
 30
0.0
 10
155.473502
 20
202.307392
 30
0.0
 10
133.477807
 20
202.307392
 30
0.0
 10
133.477807
 20
199.308781
 30
0.0
 10
122.479960
 20
199.308781
 30
0.0
 10
122.479960
 20
196.310169
 30
0.0
 10
123.732321
 20
196.310169
 30
0.0
 10
123.732321
 20
193.911281
 30
0.0
 10
122.479960
 20
193.911281
 30
0.0
 10
122.479960
 20
192.306142
 30
0.0
 10
119.481349
 20
192.306142
 30
0.0
 10
119.481349
 20
193.911281
 30
0.0
 10
118.228988
 20
193.911281
 30
0.0
 10
118.228988
 20
196.310169
 30
0.0
 10
119.481349
 20
196.310169
 30
0.0
 10
119.481349
 20
199.308781
 30
0.0
 10
108.474682
 20
199.308781
 30
0.0
 10
108.474682
 20
202.307392
 30
0.0
 10
83.480377
 20
202.307392
 30
0.0
 10
83.480377
 20
202.307392
 30
0.0
  0
LWPOLYLINE
  5
112
100
AcDbEntity
  8
Layer_1
 62
7
100
AcDbPolyline
 90
46
 70
0
 10
4.446206
 20
123.212760
 30
0.0
 10
4.446206
 20
98.218454
 30
0.0
 10
7.444817
 20
98.218454
 30
0.0
 10
7.444817
 20
73.215329
 30
0.0
 10
4.446206
 20
73.215329
 30
0.0
 10
4.446206
 20
48.212193
 30
0.0
 10
29.440511
 20
48.212193
 30
0.0
 10
29.440511
 20
51.219638
 30
0.0
 10
40.438358
 20
51.219638
 30
0.0
 10
40.438358
 20
54.218246
 30
0.0
 10
39.185997
 20
54.218246
 30
0.0
 10
39.185997
 20
56.617135
 30
0.0
 10
40.438358
 20
56.617135
 30
0.0
 10
40.438358
 20
58.222274
 30
0.0
 10
43.436969
 20
58.222274
 30
0.0
 10
43.436969
 20
56.617135
 30
0.0
 10
44.689330
 20
56.617135
 30
0.0
 10
44.689330
 20
54.218246
 30
0.0
 10
43.436969
 20
54.218246
 30
0.0
 10
43.436969
 20
51.219638
 30
0.0
 10
54.443636
 20
51.219638
 30
0.0
 10
54.443636
 20
48.212193
 30
0.0
 10
76.439330
 20
48.212193
 30
0.0
 10
76.439330
 20
73.215329
 30
0.0
 10
79.437941
 20
73.215329
 30
0.0
 10
79.437941
 20
98.218454
 30
0.0
 10
76.439330
 20
98.218454
 30
0.0
 10
76.439330
 20
123.212760
 30
0.0
 10
54.443636
 20
123.212760
 30
0.0
 10
54.443636
 20
120.214149
 30
0.0
 10
43.445788
 20
120.214149
 30
0.0
 10
43.445788
 20
117.215538
 30
0.0
 10
44.698150
 20
117.215538
 30
0.0
 10
44.698150
 20
114.816649
 30
0.0
 10
43.445788
 20
114.816649
 30
0.0
 10
43.445788
 20
113.211510
 30
0.0
 10
40.447177
 20
113.211510
 30
0.0
 10
40.447177
 20
114.816649
 30
0.0
 10
39.194816
 20
114.816649
 30
0.0
 10
39.194816
 20
117.215538
 30
0.0
 10
40.447177
 20
117.215538
 30
0.0
 10
40.447177
 20
120.214149
 30
0.0
 10
29.440511
 20
120.214149
 30
0.0
 10
29.440511
 20
123.212760
 30
0.0
 10
4.446206
 20
123.212760
 30
0.0
 10
4.446206
 20
123.212760
 30
0.0
  0
LWPOLYLINE
  5
113
100
AcDbEntity
  8
Layer_1
 62
7
100
AcDbPolyline
 90
46
 70
0
 10
83.480377
 20
123.212760
 30
0.0
 10
83.480377
 20
98.218454
 30
0.0
 10
86.478988
 20
98.218454
 30
0.0
 10
86.478988
 20
73.215329
 30
0.0
 10
83.480377
 20
73.215329
 30
0.0
 10
83.480377
 20
48.212193
 30
0.0
 10
108.474682
 20
48.212193
 30
0.0
 10
108.474682
 20
51.219638
 30
0.0
 10
119.472529
 20
51.219638
 30
0.0
 10
119.472529
 20
54.218246
 30
0.0
 10
118.220168
 20
54.218246
 30
0.0
 10
118.220168
 20
56.617135
 30
0.0
 10
119.472529
 20
56.617135
 30
0.0
 10
119.472529
 20
58.222274
 30
0.0
 10
122.471140
 20
58.222274
 30
0.0
 10
122.471140
 20
56.617135
 30
0.0
 10
123.723502
 20
56.617135
 30
0.0
 10
123.723502
 20
54.218246
 30
0.0
 10
122.471140
 20
54.218246
 30
0.0
 10
122.471140
 20
51.219638
 30
0.0
 10
133.477807
 20
51.219638
 30
0.0
 10
133.477807
 20
48.212193
 30
0.0
 10
155.473502
 20
48.212193
 30
0.0
 10
155.473502
 20
73.215329
 30
0.0
 10
158.472113
 20
73.215329
 30
0.0
 10
158.472113
 20
98.218454
 30
0.0
 10
155.473502
 20
98.218454
 30
0.0
 10
155.473502
 20
123.212760
 30
0.0
 10
133.477807
 20
123.212760
 30
0.0
 10
133.477807
 20
120.214149
 30
0.0
 10
122.479960
 20
120.214149
 30
0.0
 10
122.479960
 20
117.215538
 30
0.0
 10
123.732321
 20
117.215538
 30
0.0
 10
123.732321
 20
114.816649
 30
0.0
 10
122.479960
 20
114.816649
 30
0.0
 10
122.479960
 20
113.211510
 30
0.0
 10
119.481349
 20
113.211510
 30
0.0
 10
119.481349
 20
114.816649
 30
0.0
 10
118.228988
 20
114.816649
 30
0.0
 10
118.228988
 20
117.215538
 30
0.0
 10
119.481349
 20
117.215538
 30
0.0
 10
119.481349
 20
120.214149
 30
0.0
 10
108.474682
 20
120.214149
 30
0.0
 10
108.474682
 20
123.212760
 30
0.0
 10
83.480377
 20
123.212760
 30
0.0
 10
83.480377
 20
123.212760
 30
0.0
  0
SPLINE
  5
114
100
AcDbEntity
  8
Layer_1
 62
7
100
AcDbSpline
 70
8
 71
3
 72
8
 73
4
 74
0
 40
0
 40
0
 40
0
 40
0
 40
1
 40
1
 40
1
 40
1
 10
44.442073
 20
164.807115
 30
0.0
 10
44.442073
 20
163.426403
 30
0.0
 10
43.322785
 20
162.307115
 30
0.0
 10
41.942073
 20
162.307115
 30
0.0
  0
SPLINE
  5
115
100
AcDbEntity
  8
Layer_1
 62
7
100
AcDbSpline
 70
8
 71
3
 72
8
 73
4
 74
0
 40
0
 40
0
 40
0
 40
0
 40
1
 40
1
 40
1
 40
1
 10
41.942073
 20
162.307115
 30
0.0
 10
40.561361
 20
162.307115
 30
0.0
 10
39.442073
 20
163.426403
 30
0.0
 10
39.442073
 20
164.807115
 30
0.0
  0
SPLINE
  5
116
100
AcDbEntity
  8
Layer_1
 62
7
100
AcDbSpline
 70
8
 71
3
 72
8
 73
4
 74
0
 40
0
 40
0
 40
0
 40
0
 40
1
 40
1
 40
1
 40
1
 10
39.442073
 20
164.807115
 30
0.0
 10
39.442073
 20
166.187827
 30
0.0
 10
40.561361
 20
167.307115
 30
0.0
 10
41.942073
 20
167.307115
 30
0.0
  0
SPLINE
  5
117
100
AcDbEntity
  8
Layer_1
 62
7
100
AcDbSpline
 70
8
 71
3
 72
8
 73
4
 74
0
 40
0
 40
0
 40
0
 40
0
 40
1
 40
1
 40
1
 40
1
 10
41.942073
 20
167.307115
 30
0.0
 10
43.322785
 20
167.307115
 30
0.0
 10
44.442073
 20
166.187827
 30
0.0
 10
44.442073
 20
164.807115
 30
0.0
  0
LWPOLYLINE
  5
118
100
AcDbEntity
  8
Layer_1
 62
7
100
AcDbPolyline
 90
46
 70
0
 10
4.446206
 20
202.307392
 30
0.0
 10
4.446206
 20
177.313086
 30
0.0
 10
7.444817
 20
177.313086
 30
0.0
 10
7.444817
 20
152.309961
 30
0.0
 10
4.446206
 20
152.309961
 30
0.0
 10
4.446206
 20
127.306836
 30
0.0
 10
29.440511
 20
127.306836
 30
0.0
 10
29.440511
 20
130.314267
 30
0.0
 10
40.438358
 20
130.314267
 30
0.0
 10
40.438358
 20
133.312878
 30
0.0
 10
39.185997
 20
133.312878
 30
0.0
 10
39.185997
 20
135.711767
 30
0.0
 10
40.438358
 20
135.711767
 30
0.0
 10
40.438358
 20
137.316906
 30
0.0
 10
43.436970
 20
137.316906
 30
0.0
 10
43.436970
 20
135.711767
 30
0.0
 10
44.689331
 20
135.711767
 30
0.0
 10
44.689331
 20
133.312878
 30
0.0
 10
43.436970
 20
133.312878
 30
0.0
 10
43.436970
 20
130.314267
 30
0.0
 10
54.443636
 20
130.314267
 30
0.0
 10
54.443636
 20
127.306836
 30
0.0
 10
76.439331
 20
127.306836
 30
0.0
 10
76.439331
 20
152.309961
 30
0.0
 10
79.437942
 20
152.309961
 30
0.0
 10
79.437942
 20
177.313086
 30
0.0
 10
76.439331
 20
177.313086
 30
0.0
 10
76.439331
 20
202.307392
 30
0.0
 10
54.443636
 20
202.307392
 30
0.0
 10
54.443636
 20
199.308781
 30
0.0
 10
43.445789
 20
199.308781
 30
0.0
 10
43.445789
 20
196.310169
 30
0.0
 10
44.698150
 20
196.310169
 30
0.0
 10
44.698150
 20
193.911281
 30
0.0
 10
43.445789
 20
193.911281
 30
0.0
 10
43.445789
 20
192.306142
 30
0.0
 10
40.447178
 20
192.306142
 30
0.0
 10
40.447178
 20
193.911281
 30
0.0
 10
39.194817
 20
193.911281
 30
0.0
 10
39.194817
 20
196.310169
 30
0.0
 10
40.447178
 20
196.310169
 30
0.0
 10
40.447178
 20
199.308781
 30
0.0
 10
29.440511
 20
199.308781
 30
0.0
 10
29.440511
 20
202.307392
 30
0.0
 10
4.446206
 20
202.307392
 30
0.0
 10
4.446206
 20
202.307392
 30
0.0
  0
LWPOLYLINE
  5
119
100
AcDbEntity
  8
Layer_1
 62
7
100
AcDbPolyline
 90
2
 70
0
 10
44.442073
 20
164.807115
 30
0.0
 10
44.442073
 20
164.807115
 30
0.0
  0
LWPOLYLINE
  5
11a
100
AcDbEntity
  8
Layer_1
 62
7
100
AcDbPolyline
 90
7
 70
0
 10
9.445924
 20
237.131421
 30
0.0
 10
12.448117
 20
237.131421
 30
0.0
 10
12.448117
 20
215.132199
 30
0.0
 10
34.447339
 20
215.132199
 30
0.0
 10
34.447339
 20
212.130178
 30
0.0
 10
9.445924
 20
212.130178
 30
0.0
 10
9.445924
 20
237.131421
 30
0.0
  0
LWPOLYLINE
  5
11b
100
AcDbEntity
  8
Layer_1
 62
7
100
AcDbPolyline
 90
7
 70
0
 10
34.447339
 20
287.130734
 30
0.0
 10
34.447339
 20
284.132004
 30
0.0
 10
12.448204
 20
284.132004
 30
0.0
 10
12.448117
 20
262.129254
 30
0.0
 10
9.445924
 20
262.129254
 30
0.0
 10
9.445924
 20
287.130734
 30
0.0
 10
34.447339
 20
287.130734
 30
0.0
  0
LWPOLYLINE
  5
11c
100
AcDbEntity
  8
Layer_1
 62
7
100
AcDbPolyline
 90
7
 70
0
 10
84.446480
 20
237.131421
 30
0.0
 10
81.447922
 20
237.131421
 30
0.0
 10
81.447922
 20
215.132199
 30
0.0
 10
59.445172
 20
215.132199
 30
0.0
 10
59.445172
 20
212.130178
 30
0.0
 10
84.446480
 20
212.130178
 30
0.0
 10
84.446480
 20
237.131421
 30
0.0
  0
SPLINE
  5
11d
100
AcDbEntity
  8
Layer_1
 62
7
100
AcDbSpline
 70
8
 71
3
 72
8
 73
4
 74
0
 40
0
 40
0
 40
0
 40
0
 40
1
 40
1
 40
1
 40
1
 10
81.447922
 20
284.132004
 30
0.0
 10
74.113672
 20
284.132004
 30
0.0
 10
66.779422
 20
284.132004
 30
0.0
 10
59.445172
 20
284.132004
 30
0.0
  0
SPLINE
  5
11e
100
AcDbEntity
  8
Layer_1
 62
7
100
AcDbSpline
 70
8
 71
3
 72
8
 73
4
 74
0
 40
0
 40
0
 40
0
 40
0
 40
1
 40
1
 40
1
 40
1
 10
59.445172
 20
284.132004
 30
0.0
 10
59.445172
 20
285.131542
 30
0.0
 10
59.445172
 20
286.131196
 30
0.0
 10
59.445172
 20
287.130734
 30
0.0
  0
LWPOLYLINE
  5
11f
100
AcDbEntity
  8
Layer_1
 62
7
100
AcDbPolyline
 90
3
 70
0
 10
84.446480
 20
262.129254
 30
0.0
 10
81.447922
 20
262.129254
 30
0.0
 10
81.447922
 20
284.132004
 30
0.0
  0
LWPOLYLINE
  5
120
100
AcDbEntity
  8
Layer_1
 62
7
100
AcDbPolyline
 90
3
 70
0
 10
59.445172
 20
287.130734
 30
0.0
 10
84.446480
 20
287.130734
 30
0.0
 10
84.446480
 20
262.129254
 30
0.0
  0
SPLINE
  5
121
100
AcDbEntity
  8
Layer_1
 62
7
100
AcDbSpline
 70
8
 71
3
 72
8
 73
4
 74
0
 40
0
 40
0
 40
0
 40
0
 40
1
 40
1
 40
1
 40
1
 10
84.446203
 20
292.130455
 30
0.0
 10
87.216203
 20
292.130455
 30
0.0
 10
89.446202
 20
289.900454
 30
0.0
 10
89.446202
 20
287.130454
 30
0.0
  0
LWPOLYLINE
  5
122
100
AcDbEntity
  8
Layer_1
 62
7
100
AcDbPolyline
 90
2
 70
0
 10
9.446206
 20
292.130455
 30
0.0
 10
84.446203
 20
292.130455
 30
0.0
  0
SPLINE
  5
123
100
AcDbEntity
  8
Layer_1
 62
7
100
AcDbSpline
 70
8
 71
3
 72
8
 73
4
 74
0
 40
0
 40
0
 40
0
 40
0
 40
1
 40
1
 40
1
 40
1
 10
89.446202
 20
212.130458
 30
0.0
 10
89.446202
 20
209.360458
 30
0.0
 10
87.216203
 20
207.130457
 30
0.0
 10
84.446203
 20
207.130457
 30
0.0
  0
LWPOLYLINE
  5
124
100
AcDbEntity
  8
Layer_1
 62
7
100
AcDbPolyline
 90
2
 70
0
 10
89.446202
 20
287.130454
 30
0.0
 10
89.446202
 20
212.130458
 30
0.0
  0
SPLINE
  5
125
100
AcDbEntity
  8
Layer_1
 62
7
100
AcDbSpline
 70
8
 71
3
 72
8
 73
4
 74
0
 40
0
 40
0
 40
0
 40
0
 40
1
 40
1
 40
1
 40
1
 10
9.446206
 20
207.130457
 30
0.0
 10
6.676206
 20
207.130457
 30
0.0
 10
4.446206
 20
209.360458
 30
0.0
 10
4.446206
 20
212.130458
 30
0.0
  0
LWPOLYLINE
  5
126
100
AcDbEntity
  8
Layer_1
 62
7
100
AcDbPolyline
 90
2
 70
0
 10
84.446203
 20
207.130457
 30
0.0
 10
9.446206
 20
207.130457
 30
0.0
  0
SPLINE
  5
127
100
AcDbEntity
  8
Layer_1
 62
7
100
AcDbSpline
 70
8
 71
3
 72
8
 73
4
 74
0
 40
0
 40
0
 40
0
 40
0
 40
1
 40
1
 40
1
 40
1
 10
4.446206
 20
287.130454
 30
0.0
 10
4.446206
 20
289.900454
 30
0.0
 10
6.676206
 20
292.130455
 30
0.0
 10
9.446206
 20
292.130455
 30
0.0
  0
LWPOLYLINE
  5
128
100
AcDbEntity
  8
Layer_1
 62
7
100
AcDbPolyline
 90
2
 70
0
 10
4.446206
 20
212.130458
 30
0.0
 10
4.446206
 20
287.130454
 30
0.0
  0
SPLINE
  5
129
100
AcDbEntity
  8
Layer_1
 62
7
100
AcDbSpline
 70
8
 71
3
 72
8
 73
4
 74
0
 40
0
 40
0
 40
0
 40
0
 40
1
 40
1
 40
1
 40
1
 10
48.446203
 20
285.629595
 30
0.0
 10
48.446691
 20
285.093372
 30
0.0
 10
48.160899
 20
284.597672
 30
0.0
 10
47.696597
 20
284.329420
 30
0.0
  0
SPLINE
  5
12a
100
AcDbEntity
  8
Layer_1
 62
7
100
AcDbSpline
 70
8
 71
3
 72
8
 73
4
 74
0
 40
0
 40
0
 40
0
 40
0
 40
1
 40
1
 40
1
 40
1
 10
47.696597
 20
284.329420
 30
0.0
 10
47.232296
 20
284.061168
 30
0.0
 10
46.660112
 20
284.061168
 30
0.0
 10
46.195810
 20
284.329420
 30
0.0
  0
SPLINE
  5
12b
100
AcDbEntity
  8
Layer_1
 62
7
100
AcDbSpline
 70
8
 71
3
 72
8
 73
4
 74
0
 40
0
 40
0
 40
0
 40
0
 40
1
 40
1
 40
1
 40
1
 10
46.195810
 20
284.329420
 30
0.0
 10
45.731508
 20
284.597672
 30
0.0
 10
45.445717
 20
285.093372
 30
0.0
 10
45.446204
 20
285.629595
 30
0.0
  0
SPLINE
  5
12c
100
AcDbEntity
  8
Layer_1
 62
7
100
AcDbSpline
 70
8
 71
3
 72
8
 73
4
 74
0
 40
0
 40
0
 40
0
 40
0
 40
1
 40
1
 40
1
 40
1
 10
45.446204
 20
285.629595
 30
0.0
 10
45.445717
 20
286.165818
 30
0.0
 10
45.731508
 20
286.661517
 30
0.0
 10
46.195810
 20
286.929769
 30
0.0
  0
SPLINE
  5
12d
100
AcDbEntity
  8
Layer_1
 62
7
100
AcDbSpline
 70
8
 71
3
 72
8
 73
4
 74
0
 40
0
 40
0
 40
0
 40
0
 40
1
 40
1
 40
1
 40
1
 10
46.195810
 20
286.929769
 30
0.0
 10
46.660112
 20
287.198022
 30
0.0
 10
47.232296
 20
287.198022
 30
0.0
 10
47.696597
 20
286.929769
 30
0.0
  0
SPLINE
  5
12e
100
AcDbEntity
  8
Layer_1
 62
7
100
AcDbSpline
 70
8
 71
3
 72
8
 73
4
 74
0
 40
0
 40
0
 40
0
 40
0
 40
1
 40
1
 40
1
 40
1
 10
47.696597
 20
286.929769
 30
0.0
 10
48.160899
 20
286.661517
 30
0.0
 10
48.446691
 20
286.165818
 30
0.0
 10
48.446203
 20
285.629595
 30
0.0
  0
LWPOLYLINE
  5
12f
100
AcDbEntity
  8
Layer_1
 62
7
100
AcDbPolyline
 90
2
 70
0
 10
9.446206
 20
292.130455
 30
0.0
 10
9.446206
 20
292.130455
 30
0.0
  0
SPLINE
  5
130
100
AcDbEntity
  8
Layer_1
 62
7
100
AcDbSpline
 70
8
 71
3
 72
8
 73
4
 74
0
 40
0
 40
0
 40
0
 40
0
 40
1
 40
1
 40
1
 40
1
 10
48.446203
 20
213.631319
 30
0.0
 10
48.446691
 20
213.095096
 30
0.0
 10
48.160899
 20
212.599397
 30
0.0
 10
47.696597
 20
212.331144
 30
0.0
  0
SPLINE
  5
131
100
AcDbEntity
  8
Layer_1
 62
7
100
AcDbSpline
 70
8
 71
3
 72
8
 73
4
 74
0
 40
0
 40
0
 40
0
 40
0
 40
1
 40
1
 40
1
 40
1
 10
47.696597
 20
212.331144
 30
0.0
 10
47.232296
 20
212.062892
 30
0.0
 10
46.660112
 20
212.062892
 30
0.0
 10
46.195810
 20
212.331144
 30
0.0
  0
SPLINE
  5
132
100
AcDbEntity
  8
Layer_1
 62
7
100
AcDbSpline
 70
8
 71
3
 72
8
 73
4
 74
0
 40
0
 40
0
 40
0
 40
0
 40
1
 40
1
 40
1
 40
1
 10
46.195810
 20
212.331144
 30
0.0
 10
45.731508
 20
212.599397
 30
0.0
 10
45.445717
 20
213.095096
 30
0.0
 10
45.446204
 20
213.631319
 30
0.0
  0
SPLINE
  5
133
100
AcDbEntity
  8
Layer_1
 62
7
100
AcDbSpline
 70
8
 71
3
 72
8
 73
4
 74
0
 40
0
 40
0
 40
0
 40
0
 40
1
 40
1
 40
1
 40
1
 10
45.446204
 20
213.631319
 30
0.0
 10
45.445717
 20
214.167542
 30
0.0
 10
45.731508
 20
214.663241
 30
0.0
 10
46.195810
 20
214.931494
 30
0.0
  0
SPLINE
  5
134
100
AcDbEntity
  8
Layer_1
 62
7
100
AcDbSpline
 70
8
 71
3
 72
8
 73
4
 74
0
 40
0
 40
0
 40
0
 40
0
 40
1
 40
1
 40
1
 40
1
 10
46.195810
 20
214.931494
 30
0.0
 10
46.660112
 20
215.199746
 30
0.0
 10
47.232296
 20
215.199746
 30
0.0
 10
47.696597
 20
214.931494
 30
0.0
  0
SPLINE
  5
135
100
AcDbEntity
  8
Layer_1
 62
7
100
AcDbSpline
 70
8
 71
3
 72
8
 73
4
 74
0
 40
0
 40
0
 40
0
 40
0
 40
1
 40
1
 40
1
 40
1
 10
47.696597
 20
214.931494
 30
0.0
 10
48.160899
 20
214.663241
 30
0.0
 10
48.446691
 20
214.167542
 30
0.0
 10
48.446203
 20
213.631319
 30
0.0
  0
LWPOLYLINE
  5
136
100
AcDbEntity
  8
Layer_1
 62
7
100
AcDbPolyline
 90
2
 70
0
 10
48.446203
 20
285.629595
 30
0.0
 10
48.446203
 20
285.629595
 30
0.0
  0
SPLINE
  5
137
100
AcDbEntity
  8
Layer_1
 62
7
100
AcDbSpline
 70
8
 71
3
 72
8
 73
4
 74
0
 40
0
 40
0
 40
0
 40
0
 40
1
 40
1
 40
1
 40
1
 10
84.445338
 20
249.630457
 30
0.0
 10
84.445825
 20
249.094234
 30
0.0
 10
84.160034
 20
248.598535
 30
0.0
 10
83.695732
 20
248.330282
 30
0.0
  0
SPLINE
  5
138
100
AcDbEntity
  8
Layer_1
 62
7
100
AcDbSpline
 70
8
 71
3
 72
8
 73
4
 74
0
 40
0
 40
0
 40
0
 40
0
 40
1
 40
1
 40
1
 40
1
 10
83.695732
 20
248.330282
 30
0.0
 10
83.231431
 20
248.062030
 30
0.0
 10
82.659246
 20
248.062030
 30
0.0
 10
82.194945
 20
248.330282
 30
0.0
  0
SPLINE
  5
139
100
AcDbEntity
  8
Layer_1
 62
7
100
AcDbSpline
 70
8
 71
3
 72
8
 73
4
 74
0
 40
0
 40
0
 40
0
 40
0
 40
1
 40
1
 40
1
 40
1
 10
82.194945
 20
248.330282
 30
0.0
 10
81.730643
 20
248.598535
 30
0.0
 10
81.444852
 20
249.094234
 30
0.0
 10
81.445339
 20
249.630457
 30
0.0
  0
SPLINE
  5
13a
100
AcDbEntity
  8
Layer_1
 62
7
100
AcDbSpline
 70
8
 71
3
 72
8
 73
4
 74
0
 40
0
 40
0
 40
0
 40
0
 40
1
 40
1
 40
1
 40
1
 10
81.445339
 20
249.630457
 30
0.0
 10
81.444852
 20
250.166680
 30
0.0
 10
81.730643
 20
250.662379
 30
0.0
 10
82.194945
 20
250.930632
 30
0.0
  0
SPLINE
  5
13b
100
AcDbEntity
  8
Layer_1
 62
7
100
AcDbSpline
 70
8
 71
3
 72
8
 73
4
 74
0
 40
0
 40
0
 40
0
 40
0
 40
1
 40
1
 40
1
 40
1
 10
82.194945
 20
250.930632
 30
0.0
 10
82.659246
 20
251.198884
 30
0.0
 10
83.231431
 20
251.198884
 30
0.0
 10
83.695732
 20
250.930632
 30
0.0
  0
SPLINE
  5
13c
100
AcDbEntity
  8
Layer_1
 62
7
100
AcDbSpline
 70
8
 71
3
 72
8
 73
4
 74
0
 40
0
 40
0
 40
0
 40
0
 40
1
 40
1
 40
1
 40
1
 10
83.695732
 20
250.930632
 30
0.0
 10
84.160034
 20
250.662379
 30
0.0
 10
84.445825
 20
250.166680
 30
0.0
 10
84.445338
 20
249.630457
 30
0.0
  0
LWPOLYLINE
  5
13d
100
AcDbEntity
  8
Layer_1
 62
7
100
AcDbPolyline
 90
2
 70
0
 10
48.446203
 20
213.631319
 30
0.0
 10
48.446203
 20
213.631319
 30
0.0
  0
SPLINE
  5
13e
100
AcDbEntity
  8
Layer_1
 62
7
100
AcDbSpline
 70
8
 71
3
 72
8
 73
4
 74
0
 40
0
 40
0
 40
0
 40
0
 40
1
 40
1
 40
1
 40
1
 10
12.447062
 20
249.630457
 30
0.0
 10
12.447550
 20
249.094234
 30
0.0
 10
12.161758
 20
248.598535
 30
0.0
 10
11.697457
 20
248.330282
 30
0.0
  0
SPLINE
  5
13f
100
AcDbEntity
  8
Layer_1
 62
7
100
AcDbSpline
 70
8
 71
3
 72
8
 73
4
 74
0
 40
0
 40
0
 40
0
 40
0
 40
1
 40
1
 40
1
 40
1
 10
11.697457
 20
248.330282
 30
0.0
 10
11.233155
 20
248.062030
 30
0.0
 10
10.660971
 20
248.062030
 30
0.0
 10
10.196669
 20
248.330282
 30
0.0
  0
SPLINE
  5
140
100
AcDbEntity
  8
Layer_1
 62
7
100
AcDbSpline
 70
8
 71
3
 72
8
 73
4
 74
0
 40
0
 40
0
 40
0
 40
0
 40
1
 40
1
 40
1
 40
1
 10
10.196669
 20
248.330282
 30
0.0
 10
9.732368
 20
248.598535
 30
0.0
 10
9.446576
 20
249.094234
 30
0.0
 10
9.447064
 20
249.630457
 30
0.0
  0
SPLINE
  5
141
100
AcDbEntity
  8
Layer_1
 62
7
100
AcDbSpline
 70
8
 71
3
 72
8
 73
4
 74
0
 40
0
 40
0
 40
0
 40
0
 40
1
 40
1
 40
1
 40
1
 10
9.447064
 20
249.630457
 30
0.0
 10
9.446576
 20
250.166680
 30
0.0
 10
9.732368
 20
250.662379
 30
0.0
 10
10.196669
 20
250.930632
 30
0.0
  0
SPLINE
  5
142
100
AcDbEntity
  8
Layer_1
 62
7
100
AcDbSpline
 70
8
 71
3
 72
8
 73
4
 74
0
 40
0
 40
0
 40
0
 40
0
 40
1
 40
1
 40
1
 40
1
 10
10.196669
 20
250.930632
 30
0.0
 10
10.660971
 20
251.198884
 30
0.0
 10
11.233155
 20
251.198884
 30
0.0
 10
11.697457
 20
250.930632
 30
0.0
  0
SPLINE
  5
143
100
AcDbEntity
  8
Layer_1
 62
7
100
AcDbSpline
 70
8
 71
3
 72
8
 73
4
 74
0
 40
0
 40
0
 40
0
 40
0
 40
1
 40
1
 40
1
 40
1
 10
11.697457
 20
250.930632
 30
0.0
 10
12.161758
 20
250.662379
 30
0.0
 10
12.447550
 20
250.166680
 30
0.0
 10
12.447062
 20
249.630457
 30
0.0
  0
LWPOLYLINE
  5
144
100
AcDbEntity
  8
Layer_1
 62
7
100
AcDbPolyline
 90
2
 70
0
 10
84.445338
 20
249.630457
 30
0.0
 10
84.445338
 20
249.630457
 30
0.0
  0
SPLINE
  5
145
100
AcDbEntity
  8
Layer_1
 62
7
100
AcDbSpline
 70
8
 71
3
 72
8
 73
4
 74
0
 40
0
 40
0
 40
0
 40
0
 40
1
 40
1
 40
1
 40
1
 10
60.946205
 20
249.630453
 30
0.0
 10
60.946205
 20
241.898470
 30
0.0
 10
54.678191
 20
235.630456
 30
0.0
 10
46.946205
 20
235.630456
 30
0.0
  0
SPLINE
  5
146
100
AcDbEntity
  8
Layer_1
 62
7
100
AcDbSpline
 70
8
 71
3
 72
8
 73
4
 74
0
 40
0
 40
0
 40
0
 40
0
 40
1
 40
1
 40
1
 40
1
 10
46.946205
 20
235.630456
 30
0.0
 10
39.214219
 20
235.630456
 30
0.0
 10
32.946205
 20
241.898470
 30
0.0
 10
32.946205
 20
249.630453
 30
0.0
  0
SPLINE
  5
147
100
AcDbEntity
  8
Layer_1
 62
7
100
AcDbSpline
 70
8
 71
3
 72
8
 73
4
 74
0
 40
0
 40
0
 40
0
 40
0
 40
1
 40
1
 40
1
 40
1
 10
32.946205
 20
249.630453
 30
0.0
 10
32.946205
 20
257.362442
 30
0.0
 10
39.214219
 20
263.630456
 30
0.0
 10
46.946205
 20
263.630456
 30
0.0
  0
SPLINE
  5
148
100
AcDbEntity
  8
Layer_1
 62
7
100
AcDbSpline
 70
8
 71
3
 72
8
 73
4
 74
0
 40
0
 40
0
 40
0
 40
0
 40
1
 40
1
 40
1
 40
1
 10
46.946205
 20
263.630456
 30
0.0
 10
54.678191
 20
263.630456
 30
0.0
 10
60.946205
 20
257.362442
 30
0.0
 10
60.946205
 20
249.630453
 30
0.0
  0
LWPOLYLINE
  5
149
100
AcDbEntity
  8
Layer_1
 62
7
100
AcDbPolyline
 90
2
 70
0
 10
12.447062
 20
249.630457
 30
0.0
 10
12.447062
 20
249.630457
 30
0.0
  0
SPLINE
  5
14a
100
AcDbEntity
  8
Layer_1
 62
7
100
AcDbSpline
 70
8
 71
3
 72
8
 73
4
 74
0
 40
0
 40
0
 40
0
 40
0
 40
1
 40
1
 40
1
 40
1
 10
49.946204
 20
213.631319
 30
0.0
 10
49.946204
 20
212.559522
 30
0.0
 10
49.374407
 20
211.569141
 30
0.0
 10
48.446204
 20
211.033242
 30
0.0
  0
SPLINE
  5
14b
100
AcDbEntity
  8
Layer_1
 62
7
100
AcDbSpline
 70
8
 71
3
 72
8
 73
4
 74
0
 40
0
 40
0
 40
0
 40
0
 40
1
 40
1
 40
1
 40
1
 10
48.446204
 20
211.033242
 30
0.0
 10
47.518000
 20
210.497344
 30
0.0
 10
46.374407
 20
210.497344
 30
0.0
 10
45.446204
 20
211.033242
 30
0.0
  0
SPLINE
  5
14c
100
AcDbEntity
  8
Layer_1
 62
7
100
AcDbSpline
 70
8
 71
3
 72
8
 73
4
 74
0
 40
0
 40
0
 40
0
 40
0
 40
1
 40
1
 40
1
 40
1
 10
45.446204
 20
211.033242
 30
0.0
 10
44.518000
 20
211.569141
 30
0.0
 10
43.946204
 20
212.559522
 30
0.0
 10
43.946204
 20
213.631319
 30
0.0
  0
SPLINE
  5
14d
100
AcDbEntity
  8
Layer_1
 62
7
100
AcDbSpline
 70
8
 71
3
 72
8
 73
4
 74
0
 40
0
 40
0
 40
0
 40
0
 40
1
 40
1
 40
1
 40
1
 10
43.946204
 20
213.631319
 30
0.0
 10
43.946204
 20
214.703115
 30
0.0
 10
44.518000
 20
215.693496
 30
0.0
 10
45.446204
 20
216.229395
 30
0.0
  0
SPLINE
  5
14e
100
AcDbEntity
  8
Layer_1
 62
7
100
AcDbSpline
 70
8
 71
3
 72
8
 73
4
 74
0
 40
0
 40
0
 40
0
 40
0
 40
1
 40
1
 40
1
 40
1
 10
45.446204
 20
216.229395
 30
0.0
 10
46.374407
 20
216.765293
 30
0.0
 10
47.518000
 20
216.765293
 30
0.0
 10
48.446204
 20
216.229395
 30
0.0
  0
SPLINE
  5
14f
100
AcDbEntity
  8
Layer_1
 62
7
100
AcDbSpline
 70
8
 71
3
 72
8
 73
4
 74
0
 40
0
 40
0
 40
0
 40
0
 40
1
 40
1
 40
1
 40
1
 10
48.446204
 20
216.229395
 30
0.0
 10
49.374407
 20
215.693496
 30
0.0
 10
49.946204
 20
214.703115
 30
0.0
 10
49.946204
 20
213.631319
 30
0.0
  0
LWPOLYLINE
  5
150
100
AcDbEntity
  8
Layer_1
 62
7
100
AcDbPolyline
 90
2
 70
0
 10
60.946205
 20
249.630453
 30
0.0
 10
60.946205
 20
249.630453
 30
0.0
  0
SPLINE
  5
151
100
AcDbEntity
  8
Layer_1
 62
7
100
AcDbSpline
 70
8
 71
3
 72
8
 73
4
 74
0
 40
0
 40
0
 40
0
 40
0
 40
1
 40
1
 40
1
 40
1
 10
13.947063
 20
249.630456
 30
0.0
 10
13.947063
 20
248.558660
 30
0.0
 10
13.375266
 20
247.568279
 30
0.0
 10
12.447063
 20
247.032380
 30
0.0
  0
SPLINE
  5
152
100
AcDbEntity
  8
Layer_1
 62
7
100
AcDbSpline
 70
8
 71
3
 72
8
 73
4
 74
0
 40
0
 40
0
 40
0
 40
0
 40
1
 40
1
 40
1
 40
1
 10
12.447063
 20
247.032380
 30
0.0
 10
11.518859
 20
246.496482
 30
0.0
 10
10.375266
 20
246.496482
 30
0.0
 10
9.447063
 20
247.032380
 30
0.0
  0
SPLINE
  5
153
100
AcDbEntity
  8
Layer_1
 62
7
100
AcDbSpline
 70
8
 71
3
 72
8
 73
4
 74
0
 40
0
 40
0
 40
0
 40
0
 40
1
 40
1
 40
1
 40
1
 10
9.447063
 20
247.032380
 30
0.0
 10
8.518859
 20
247.568279
 30
0.0
 10
7.947063
 20
248.558660
 30
0.0
 10
7.947063
 20
249.630456
 30
0.0
  0
SPLINE
  5
154
100
AcDbEntity
  8
Layer_1
 62
7
100
AcDbSpline
 70
8
 71
3
 72
8
 73
4
 74
0
 40
0
 40
0
 40
0
 40
0
 40
1
 40
1
 40
1
 40
1
 10
7.947063
 20
249.630456
 30
0.0
 10
7.947063
 20
250.702253
 30
0.0
 10
8.518859
 20
251.692634
 30
0.0
 10
9.447063
 20
252.228533
 30
0.0
  0
SPLINE
  5
155
100
AcDbEntity
  8
Layer_1
 62
7
100
AcDbSpline
 70
8
 71
3
 72
8
 73
4
 74
0
 40
0
 40
0
 40
0
 40
0
 40
1
 40
1
 40
1
 40
1
 10
9.447063
 20
252.228533
 30
0.0
 10
10.375266
 20
252.764431
 30
0.0
 10
11.518859
 20
252.764431
 30
0.0
 10
12.447063
 20
252.228533
 30
0.0
  0
SPLINE
  5
156
100
AcDbEntity
  8
Layer_1
 62
7
100
AcDbSpline
 70
8
 71
3
 72
8
 73
4
 74
0
 40
0
 40
0
 40
0
 40
0
 40
1
 40
1
 40
1
 40
1
 10
12.447063
 20
252.228533
 30
0.0
 10
13.375266
 20
251.692634
 30
0.0
 10
13.947063
 20
250.702253
 30
0.0
 10
13.947063
 20
249.630456
 30
0.0
  0
LWPOLYLINE
  5
157
100
AcDbEntity
  8
Layer_1
 62
7
100
AcDbPolyline
 90
2
 70
0
 10
49.946204
 20
213.631319
 30
0.0
 10
49.946204
 20
213.631319
 30
0.0
  0
SPLINE
  5
158
100
AcDbEntity
  8
Layer_1
 62
7
100
AcDbSpline
 70
8
 71
3
 72
8
 73
4
 74
0
 40
0
 40
0
 40
0
 40
0
 40
1
 40
1
 40
1
 40
1
 10
85.945338
 20
249.630456
 30
0.0
 10
85.945338
 20
248.558660
 30
0.0
 10
85.373541
 20
247.568279
 30
0.0
 10
84.445338
 20
247.032380
 30
0.0
  0
SPLINE
  5
159
100
AcDbEntity
  8
Layer_1
 62
7
100
AcDbSpline
 70
8
 71
3
 72
8
 73
4
 74
0
 40
0
 40
0
 40
0
 40
0
 40
1
 40
1
 40
1
 40
1
 10
84.445338
 20
247.032380
 30
0.0
 10
83.517135
 20
246.496482
 30
0.0
 10
82.373541
 20
246.496482
 30
0.0
 10
81.445338
 20
247.032380
 30
0.0
  0
SPLINE
  5
15a
100
AcDbEntity
  8
Layer_1
 62
7
100
AcDbSpline
 70
8
 71
3
 72
8
 73
4
 74
0
 40
0
 40
0
 40
0
 40
0
 40
1
 40
1
 40
1
 40
1
 10
81.445338
 20
247.032380
 30
0.0
 10
80.517135
 20
247.568279
 30
0.0
 10
79.945338
 20
248.558660
 30
0.0
 10
79.945338
 20
249.630456
 30
0.0
  0
SPLINE
  5
15b
100
AcDbEntity
  8
Layer_1
 62
7
100
AcDbSpline
 70
8
 71
3
 72
8
 73
4
 74
0
 40
0
 40
0
 40
0
 40
0
 40
1
 40
1
 40
1
 40
1
 10
79.945338
 20
249.630456
 30
0.0
 10
79.945338
 20
250.702253
 30
0.0
 10
80.517135
 20
251.692634
 30
0.0
 10
81.445338
 20
252.228533
 30
0.0
  0
SPLINE
  5
15c
100
AcDbEntity
  8
Layer_1
 62
7
100
AcDbSpline
 70
8
 71
3
 72
8
 73
4
 74
0
 40
0
 40
0
 40
0
 40
0
 40
1
 40
1
 40
1
 40
1
 10
81.445338
 20
252.228533
 30
0.0
 10
82.373541
 20
252.764431
 30
0.0
 10
83.517135
 20
252.764431
 30
0.0
 10
84.445338
 20
252.228533
 30
0.0
  0
SPLINE
  5
15d
100
AcDbEntity
  8
Layer_1
 62
7
100
AcDbSpline
 70
8
 71
3
 72
8
 73
4
 74
0
 40
0
 40
0
 40
0
 40
0
 40
1
 40
1
 40
1
 40
1
 10
84.445338
 20
252.228533
 30
0.0
 10
85.373541
 20
251.692634
 30
0.0
 10
85.945338
 20
250.702253
 30
0.0
 10
85.945338
 20
249.630456
 30
0.0
  0
LWPOLYLINE
  5
15e
100
AcDbEntity
  8
Layer_1
 62
7
100
AcDbPolyline
 90
2
 70
0
 10
13.947063
 20
249.630456
 30
0.0
 10
13.947063
 20
249.630456
 30
0.0
  0
SPLINE
  5
15f
100
AcDbEntity
  8
Layer_1
 62
7
100
AcDbSpline
 70
8
 71
3
 72
8
 73
4
 74
0
 40
0
 40
0
 40
0
 40
0
 40
1
 40
1
 40
1
 40
1
 10
49.946204
 20
285.629594
 30
0.0
 10
49.946204
 20
284.557797
 30
0.0
 10
49.374407
 20
283.567416
 30
0.0
 10
48.446204
 20
283.031518
 30
0.0
  0
SPLINE
  5
160
100
AcDbEntity
  8
Layer_1
 62
7
100
AcDbSpline
 70
8
 71
3
 72
8
 73
4
 74
0
 40
0
 40
0
 40
0
 40
0
 40
1
 40
1
 40
1
 40
1
 10
48.446204
 20
283.031518
 30
0.0
 10
47.518000
 20
282.495619
 30
0.0
 10
46.374407
 20
282.495619
 30
0.0
 10
45.446204
 20
283.031518
 30
0.0
  0
SPLINE
  5
161
100
AcDbEntity
  8
Layer_1
 62
7
100
AcDbSpline
 70
8
 71
3
 72
8
 73
4
 74
0
 40
0
 40
0
 40
0
 40
0
 40
1
 40
1
 40
1
 40
1
 10
45.446204
 20
283.031518
 30
0.0
 10
44.518000
 20
283.567416
 30
0.0
 10
43.946204
 20
284.557797
 30
0.0
 10
43.946204
 20
285.629594
 30
0.0
  0
SPLINE
  5
162
100
AcDbEntity
  8
Layer_1
 62
7
100
AcDbSpline
 70
8
 71
3
 72
8
 73
4
 74
0
 40
0
 40
0
 40
0
 40
0
 40
1
 40
1
 40
1
 40
1
 10
43.946204
 20
285.629594
 30
0.0
 10
43.946204
 20
286.701391
 30
0.0
 10
44.518000
 20
287.691772
 30
0.0
 10
45.446204
 20
288.227670
 30
0.0
  0
SPLINE
  5
163
100
AcDbEntity
  8
Layer_1
 62
7
100
AcDbSpline
 70
8
 71
3
 72
8
 73
4
 74
0
 40
0
 40
0
 40
0
 40
0
 40
1
 40
1
 40
1
 40
1
 10
45.446204
 20
288.227670
 30
0.0
 10
46.374407
 20
288.763569
 30
0.0
 10
47.518000
 20
288.763569
 30
0.0
 10
48.446204
 20
288.227670
 30
0.0
  0
SPLINE
  5
164
100
AcDbEntity
  8
Layer_1
 62
7
100
AcDbSpline
 70
8
 71
3
 72
8
 73
4
 74
0
 40
0
 40
0
 40
0
 40
0
 40
1
 40
1
 40
1
 40
1
 10
48.446204
 20
288.227670
 30
0.0
 10
49.374407
 20
287.691772
 30
0.0
 10
49.946204
 20
286.701391
 30
0.0
 10
49.946204
 20
285.629594
 30
0.0
  0
LWPOLYLINE
  5
165
100
AcDbEntity
  8
Layer_1
 62
7
100
AcDbPolyline
 90
2
 70
0
 10
85.945338
 20
249.630456
 30
0.0
 10
85.945338
 20
249.630456
 30
0.0
  0
LWPOLYLINE
  5
166
100
AcDbEntity
  8
Layer_1
 62
7
100
AcDbPolyline
 90
2
 70
0
 10
49.946204
 20
285.629594
 30
0.0
 10
49.946204
 20
285.629594
 30
0.0
  0
LWPOLYLINE
  5
167
100
AcDbEntity
  8
Layer_1
 62
7
100
AcDbPolyline
 90
7
 70
0
 10
98.248608
 20
237.131422
 30
0.0
 10
101.250801
 20
237.131422
 30
0.0
 10
101.250801
 20
215.132199
 30
0.0
 10
123.250023
 20
215.132199
 30
0.0
 10
123.250023
 20
212.130179
 30
0.0
 10
98.248608
 20
212.130179
 30
0.0
 10
98.248608
 20
237.131422
 30
0.0
  0
LWPOLYLINE
  5
168
100
AcDbEntity
  8
Layer_1
 62
7
100
AcDbPolyline
 90
7
 70
0
 10
123.250023
 20
287.130734
 30
0.0
 10
123.250023
 20
284.132005
 30
0.0
 10
101.250888
 20
284.132005
 30
0.0
 10
101.250801
 20
262.129255
 30
0.0
 10
98.248608
 20
262.129255
 30
0.0
 10
98.248608
 20
287.130734
 30
0.0
 10
123.250023
 20
287.130734
 30
0.0
  0
LWPOLYLINE
  5
169
100
AcDbEntity
  8
Layer_1
 62
7
100
AcDbPolyline
 90
7
 70
0
 10
173.249164
 20
237.131422
 30
0.0
 10
170.250606
 20
237.131422
 30
0.0
 10
170.250606
 20
215.132199
 30
0.0
 10
148.247856
 20
215.132199
 30
0.0
 10
148.247856
 20
212.130179
 30
0.0
 10
173.249164
 20
212.130179
 30
0.0
 10
173.249164
 20
237.131422
 30
0.0
  0
SPLINE
  5
16a
100
AcDbEntity
  8
Layer_1
 62
7
100
AcDbSpline
 70
8
 71
3
 72
8
 73
4
 74
0
 40
0
 40
0
 40
0
 40
0
 40
1
 40
1
 40
1
 40
1
 10
170.250606
 20
284.132005
 30
0.0
 10
162.916356
 20
284.132005
 30
0.0
 10
155.582106
 20
284.132005
 30
0.0
 10
148.247856
 20
284.132005
 30
0.0
  0
SPLINE
  5
16b
100
AcDbEntity
  8
Layer_1
 62
7
100
AcDbSpline
 70
8
 71
3
 72
8
 73
4
 74
0
 40
0
 40
0
 40
0
 40
0
 40
1
 40
1
 40
1
 40
1
 10
148.247856
 20
284.132005
 30
0.0
 10
148.247856
 20
285.131543
 30
0.0
 10
148.247856
 20
286.131196
 30
0.0
 10
148.247856
 20
287.130734
 30
0.0
  0
LWPOLYLINE
  5
16c
100
AcDbEntity
  8
Layer_1
 62
7
100
AcDbPolyline
 90
3
 70
0
 10
173.249164
 20
262.129255
 30
0.0
 10
170.250606
 20
262.129255
 30
0.0
 10
170.250606
 20
284.132005
 30
0.0
  0
LWPOLYLINE
  5
16d
100
AcDbEntity
  8
Layer_1
 62
7
100
AcDbPolyline
 90
3
 70
0
 10
148.247856
 20
287.130734
 30
0.0
 10
173.249164
 20
287.130734
 30
0.0
 10
173.249164
 20
262.129255
 30
0.0
  0
SPLINE
  5
16e
100
AcDbEntity
  8
Layer_1
 62
7
100
AcDbSpline
 70
8
 71
3
 72
8
 73
4
 74
0
 40
0
 40
0
 40
0
 40
0
 40
1
 40
1
 40
1
 40
1
 10
173.248887
 20
292.130455
 30
0.0
 10
176.018887
 20
292.130455
 30
0.0
 10
178.248889
 20
289.900454
 30
0.0
 10
178.248889
 20
287.130454
 30
0.0
  0
LWPOLYLINE
  5
16f
100
AcDbEntity
  8
Layer_1
 62
7
100
AcDbPolyline
 90
2
 70
0
 10
98.248891
 20
292.130455
 30
0.0
 10
173.248887
 20
292.130455
 30
0.0
  0
SPLINE
  5
170
100
AcDbEntity
  8
Layer_1
 62
7
100
AcDbSpline
 70
8
 71
3
 72
8
 73
4
 74
0
 40
0
 40
0
 40
0
 40
0
 40
1
 40
1
 40
1
 40
1
 10
178.248889
 20
212.130458
 30
0.0
 10
178.248889
 20
209.360459
 30
0.0
 10
176.018887
 20
207.130457
 30
0.0
 10
173.248887
 20
207.130457
 30
0.0
  0
LWPOLYLINE
  5
171
100
AcDbEntity
  8
Layer_1
 62
7
100
AcDbPolyline
 90
2
 70
0
 10
178.248889
 20
287.130454
 30
0.0
 10
178.248889
 20
212.130458
 30
0.0
  0
SPLINE
  5
172
100
AcDbEntity
  8
Layer_1
 62
7
100
AcDbSpline
 70
8
 71
3
 72
8
 73
4
 74
0
 40
0
 40
0
 40
0
 40
0
 40
1
 40
1
 40
1
 40
1
 10
98.248891
 20
207.130457
 30
0.0
 10
95.478891
 20
207.130457
 30
0.0
 10
93.248889
 20
209.360459
 30
0.0
 10
93.248889
 20
212.130458
 30
0.0
  0
LWPOLYLINE
  5
173
100
AcDbEntity
  8
Layer_1
 62
7
100
AcDbPolyline
 90
2
 70
0
 10
173.248887
 20
207.130457
 30
0.0
 10
98.248891
 20
207.130457
 30
0.0
  0
SPLINE
  5
174
100
AcDbEntity
  8
Layer_1
 62
7
100
AcDbSpline
 70
8
 71
3
 72
8
 73
4
 74
0
 40
0
 40
0
 40
0
 40
0
 40
1
 40
1
 40
1
 40
1
 10
93.248889
 20
287.130454
 30
0.0
 10
93.248889
 20
289.900454
 30
0.0
 10
95.478891
 20
292.130455
 30
0.0
 10
98.248891
 20
292.130455
 30
0.0
  0
LWPOLYLINE
  5
175
100
AcDbEntity
  8
Layer_1
 62
7
100
AcDbPolyline
 90
2
 70
0
 10
93.248889
 20
212.130458
 30
0.0
 10
93.248889
 20
287.130454
 30
0.0
  0
SPLINE
  5
176
100
AcDbEntity
  8
Layer_1
 62
7
100
AcDbSpline
 70
8
 71
3
 72
8
 73
4
 74
0
 40
0
 40
0
 40
0
 40
0
 40
1
 40
1
 40
1
 40
1
 10
137.248887
 20
285.629595
 30
0.0
 10
137.248887
 20
284.801168
 30
0.0
 10
136.577314
 20
284.129595
 30
0.0
 10
135.748889
 20
284.129595
 30
0.0
  0
SPLINE
  5
177
100
AcDbEntity
  8
Layer_1
 62
7
100
AcDbSpline
 70
8
 71
3
 72
8
 73
4
 74
0
 40
0
 40
0
 40
0
 40
0
 40
1
 40
1
 40
1
 40
1
 10
135.748889
 20
284.129595
 30
0.0
 10
134.920461
 20
284.129595
 30
0.0
 10
134.248888
 20
284.801168
 30
0.0
 10
134.248888
 20
285.629595
 30
0.0
  0
SPLINE
  5
178
100
AcDbEntity
  8
Layer_1
 62
7
100
AcDbSpline
 70
8
 71
3
 72
8
 73
4
 74
0
 40
0
 40
0
 40
0
 40
0
 40
1
 40
1
 40
1
 40
1
 10
134.248888
 20
285.629595
 30
0.0
 10
134.248888
 20
286.458023
 30
0.0
 10
134.920461
 20
287.129593
 30
0.0
 10
135.748889
 20
287.129593
 30
0.0
  0
SPLINE
  5
179
100
AcDbEntity
  8
Layer_1
 62
7
100
AcDbSpline
 70
8
 71
3
 72
8
 73
4
 74
0
 40
0
 40
0
 40
0
 40
0
 40
1
 40
1
 40
1
 40
1
 10
135.748889
 20
287.129593
 30
0.0
 10
136.577314
 20
287.129593
 30
0.0
 10
137.248887
 20
286.458023
 30
0.0
 10
137.248887
 20
285.629595
 30
0.0
  0
LWPOLYLINE
  5
17a
100
AcDbEntity
  8
Layer_1
 62
7
100
AcDbPolyline
 90
2
 70
0
 10
98.248891
 20
292.130455
 30
0.0
 10
98.248891
 20
292.130455
 30
0.0
  0
SPLINE
  5
17b
100
AcDbEntity
  8
Layer_1
 62
7
100
AcDbSpline
 70
8
 71
3
 72
8
 73
4
 74
0
 40
0
 40
0
 40
0
 40
0
 40
1
 40
1
 40
1
 40
1
 10
137.248887
 20
213.631319
 30
0.0
 10
137.248887
 20
212.802892
 30
0.0
 10
136.577314
 20
212.131319
 30
0.0
 10
135.748889
 20
212.131319
 30
0.0
  0
SPLINE
  5
17c
100
AcDbEntity
  8
Layer_1
 62
7
100
AcDbSpline
 70
8
 71
3
 72
8
 73
4
 74
0
 40
0
 40
0
 40
0
 40
0
 40
1
 40
1
 40
1
 40
1
 10
135.748889
 20
212.131319
 30
0.0
 10
134.920461
 20
212.131319
 30
0.0
 10
134.248888
 20
212.802892
 30
0.0
 10
134.248888
 20
213.631319
 30
0.0
  0
SPLINE
  5
17d
100
AcDbEntity
  8
Layer_1
 62
7
100
AcDbSpline
 70
8
 71
3
 72
8
 73
4
 74
0
 40
0
 40
0
 40
0
 40
0
 40
1
 40
1
 40
1
 40
1
 10
134.248888
 20
213.631319
 30
0.0
 10
134.248888
 20
214.459747
 30
0.0
 10
134.920461
 20
215.131318
 30
0.0
 10
135.748889
 20
215.131318
 30
0.0
  0
SPLINE
  5
17e
100
AcDbEntity
  8
Layer_1
 62
7
100
AcDbSpline
 70
8
 71
3
 72
8
 73
4
 74
0
 40
0
 40
0
 40
0
 40
0
 40
1
 40
1
 40
1
 40
1
 10
135.748889
 20
215.131318
 30
0.0
 10
136.577314
 20
215.131318
 30
0.0
 10
137.248887
 20
214.459747
 30
0.0
 10
137.248887
 20
213.631319
 30
0.0
  0
LWPOLYLINE
  5
17f
100
AcDbEntity
  8
Layer_1
 62
7
100
AcDbPolyline
 90
2
 70
0
 10
137.248887
 20
285.629595
 30
0.0
 10
137.248887
 20
285.629595
 30
0.0
  0
SPLINE
  5
180
100
AcDbEntity
  8
Layer_1
 62
7
100
AcDbSpline
 70
8
 71
3
 72
8
 73
4
 74
0
 40
0
 40
0
 40
0
 40
0
 40
1
 40
1
 40
1
 40
1
 10
173.248022
 20
249.630457
 30
0.0
 10
173.248022
 20
248.802030
 30
0.0
 10
172.576449
 20
248.130457
 30
0.0
 10
171.748024
 20
248.130457
 30
0.0
  0
SPLINE
  5
181
100
AcDbEntity
  8
Layer_1
 62
7
100
AcDbSpline
 70
8
 71
3
 72
8
 73
4
 74
0
 40
0
 40
0
 40
0
 40
0
 40
1
 40
1
 40
1
 40
1
 10
171.748024
 20
248.130457
 30
0.0
 10
170.919596
 20
248.130457
 30
0.0
 10
170.248023
 20
248.802030
 30
0.0
 10
170.248023
 20
249.630457
 30
0.0
  0
SPLINE
  5
182
100
AcDbEntity
  8
Layer_1
 62
7
100
AcDbSpline
 70
8
 71
3
 72
8
 73
4
 74
0
 40
0
 40
0
 40
0
 40
0
 40
1
 40
1
 40
1
 40
1
 10
170.248023
 20
249.630457
 30
0.0
 10
170.248023
 20
250.458885
 30
0.0
 10
170.919596
 20
251.130456
 30
0.0
 10
171.748024
 20
251.130456
 30
0.0
  0
SPLINE
  5
183
100
AcDbEntity
  8
Layer_1
 62
7
100
AcDbSpline
 70
8
 71
3
 72
8
 73
4
 74
0
 40
0
 40
0
 40
0
 40
0
 40
1
 40
1
 40
1
 40
1
 10
171.748024
 20
251.130456
 30
0.0
 10
172.576449
 20
251.130456
 30
0.0
 10
173.248022
 20
250.458885
 30
0.0
 10
173.248022
 20
249.630457
 30
0.0
  0
LWPOLYLINE
  5
184
100
AcDbEntity
  8
Layer_1
 62
7
100
AcDbPolyline
 90
2
 70
0
 10
137.248887
 20
213.631319
 30
0.0
 10
137.248887
 20
213.631319
 30
0.0
  0
SPLINE
  5
185
100
AcDbEntity
  8
Layer_1
 62
7
100
AcDbSpline
 70
8
 71
3
 72
8
 73
4
 74
0
 40
0
 40
0
 40
0
 40
0
 40
1
 40
1
 40
1
 40
1
 10
101.249746
 20
249.630457
 30
0.0
 10
101.249746
 20
248.802030
 30
0.0
 10
100.578173
 20
248.130457
 30
0.0
 10
99.749748
 20
248.130457
 30
0.0
  0
SPLINE
  5
186
100
AcDbEntity
  8
Layer_1
 62
7
100
AcDbSpline
 70
8
 71
3
 72
8
 73
4
 74
0
 40
0
 40
0
 40
0
 40
0
 40
1
 40
1
 40
1
 40
1
 10
99.749748
 20
248.130457
 30
0.0
 10
98.921321
 20
248.130457
 30
0.0
 10
98.249748
 20
248.802030
 30
0.0
 10
98.249748
 20
249.630457
 30
0.0
  0
SPLINE
  5
187
100
AcDbEntity
  8
Layer_1
 62
7
100
AcDbSpline
 70
8
 71
3
 72
8
 73
4
 74
0
 40
0
 40
0
 40
0
 40
0
 40
1
 40
1
 40
1
 40
1
 10
98.249748
 20
249.630457
 30
0.0
 10
98.249748
 20
250.458885
 30
0.0
 10
98.921321
 20
251.130456
 30
0.0
 10
99.749748
 20
251.130456
 30
0.0
  0
SPLINE
  5
188
100
AcDbEntity
  8
Layer_1
 62
7
100
AcDbSpline
 70
8
 71
3
 72
8
 73
4
 74
0
 40
0
 40
0
 40
0
 40
0
 40
1
 40
1
 40
1
 40
1
 10
99.749748
 20
251.130456
 30
0.0
 10
100.578173
 20
251.130456
 30
0.0
 10
101.249746
 20
250.458885
 30
0.0
 10
101.249746
 20
249.630457
 30
0.0
  0
LWPOLYLINE
  5
189
100
AcDbEntity
  8
Layer_1
 62
7
100
AcDbPolyline
 90
2
 70
0
 10
173.248022
 20
249.630457
 30
0.0
 10
173.248022
 20
249.630457
 30
0.0
  0
SPLINE
  5
18a
100
AcDbEntity
  8
Layer_1
 62
7
100
AcDbSpline
 70
8
 71
3
 72
8
 73
4
 74
0
 40
0
 40
0
 40
0
 40
0
 40
1
 40
1
 40
1
 40
1
 10
138.748887
 20
213.631319
 30
0.0
 10
138.748887
 20
211.974465
 30
0.0
 10
137.405742
 20
210.631319
 30
0.0
 10
135.748889
 20
210.631319
 30
0.0
  0
SPLINE
  5
18b
100
AcDbEntity
  8
Layer_1
 62
7
100
AcDbSpline
 70
8
 71
3
 72
8
 73
4
 74
0
 40
0
 40
0
 40
0
 40
0
 40
1
 40
1
 40
1
 40
1
 10
135.748889
 20
210.631319
 30
0.0
 10
134.092033
 20
210.631319
 30
0.0
 10
132.748887
 20
211.974465
 30
0.0
 10
132.748887
 20
213.631319
 30
0.0
  0
SPLINE
  5
18c
100
AcDbEntity
  8
Layer_1
 62
7
100
AcDbSpline
 70
8
 71
3
 72
8
 73
4
 74
0
 40
0
 40
0
 40
0
 40
0
 40
1
 40
1
 40
1
 40
1
 10
132.748887
 20
213.631319
 30
0.0
 10
132.748887
 20
215.288173
 30
0.0
 10
134.092033
 20
216.631319
 30
0.0
 10
135.748889
 20
216.631319
 30
0.0
  0
SPLINE
  5
18d
100
AcDbEntity
  8
Layer_1
 62
7
100
AcDbSpline
 70
8
 71
3
 72
8
 73
4
 74
0
 40
0
 40
0
 40
0
 40
0
 40
1
 40
1
 40
1
 40
1
 10
135.748889
 20
216.631319
 30
0.0
 10
137.405742
 20
216.631319
 30
0.0
 10
138.748887
 20
215.288173
 30
0.0
 10
138.748887
 20
213.631319
 30
0.0
  0
LWPOLYLINE
  5
18e
100
AcDbEntity
  8
Layer_1
 62
7
100
AcDbPolyline
 90
2
 70
0
 10
101.249746
 20
249.630457
 30
0.0
 10
101.249746
 20
249.630457
 30
0.0
  0
SPLINE
  5
18f
100
AcDbEntity
  8
Layer_1
 62
7
100
AcDbSpline
 70
8
 71
3
 72
8
 73
4
 74
0
 40
0
 40
0
 40
0
 40
0
 40
1
 40
1
 40
1
 40
1
 10
102.749747
 20
249.630457
 30
0.0
 10
102.749747
 20
247.973603
 30
0.0
 10
101.406602
 20
246.630457
 30
0.0
 10
99.749748
 20
246.630457
 30
0.0
  0
SPLINE
  5
190
100
AcDbEntity
  8
Layer_1
 62
7
100
AcDbSpline
 70
8
 71
3
 72
8
 73
4
 74
0
 40
0
 40
0
 40
0
 40
0
 40
1
 40
1
 40
1
 40
1
 10
99.749748
 20
246.630457
 30
0.0
 10
98.092892
 20
246.630457
 30
0.0
 10
96.749747
 20
247.973603
 30
0.0
 10
96.749747
 20
249.630457
 30
0.0
  0
SPLINE
  5
191
100
AcDbEntity
  8
Layer_1
 62
7
100
AcDbSpline
 70
8
 71
3
 72
8
 73
4
 74
0
 40
0
 40
0
 40
0
 40
0
 40
1
 40
1
 40
1
 40
1
 10
96.749747
 20
249.630457
 30
0.0
 10
96.749747
 20
251.287311
 30
0.0
 10
98.092892
 20
252.630457
 30
0.0
 10
99.749748
 20
252.630457
 30
0.0
  0
SPLINE
  5
192
100
AcDbEntity
  8
Layer_1
 62
7
100
AcDbSpline
 70
8
 71
3
 72
8
 73
4
 74
0
 40
0
 40
0
 40
0
 40
0
 40
1
 40
1
 40
1
 40
1
 10
99.749748
 20
252.630457
 30
0.0
 10
101.406602
 20
252.630457
 30
0.0
 10
102.749747
 20
251.287311
 30
0.0
 10
102.749747
 20
249.630457
 30
0.0
  0
LWPOLYLINE
  5
193
100
AcDbEntity
  8
Layer_1
 62
7
100
AcDbPolyline
 90
2
 70
0
 10
138.748887
 20
213.631319
 30
0.0
 10
138.748887
 20
213.631319
 30
0.0
  0
SPLINE
  5
194
100
AcDbEntity
  8
Layer_1
 62
7
100
AcDbSpline
 70
8
 71
3
 72
8
 73
4
 74
0
 40
0
 40
0
 40
0
 40
0
 40
1
 40
1
 40
1
 40
1
 10
174.748022
 20
249.630457
 30
0.0
 10
174.748022
 20
247.973603
 30
0.0
 10
173.404877
 20
246.630457
 30
0.0
 10
171.748024
 20
246.630457
 30
0.0
  0
SPLINE
  5
195
100
AcDbEntity
  8
Layer_1
 62
7
100
AcDbSpline
 70
8
 71
3
 72
8
 73
4
 74
0
 40
0
 40
0
 40
0
 40
0
 40
1
 40
1
 40
1
 40
1
 10
171.748024
 20
246.630457
 30
0.0
 10
170.091168
 20
246.630457
 30
0.0
 10
168.748022
 20
247.973603
 30
0.0
 10
168.748022
 20
249.630457
 30
0.0
  0
SPLINE
  5
196
100
AcDbEntity
  8
Layer_1
 62
7
100
AcDbSpline
 70
8
 71
3
 72
8
 73
4
 74
0
 40
0
 40
0
 40
0
 40
0
 40
1
 40
1
 40
1
 40
1
 10
168.748022
 20
249.630457
 30
0.0
 10
168.748022
 20
251.287311
 30
0.0
 10
170.091168
 20
252.630457
 30
0.0
 10
171.748024
 20
252.630457
 30
0.0
  0
SPLINE
  5
197
100
AcDbEntity
  8
Layer_1
 62
7
100
AcDbSpline
 70
8
 71
3
 72
8
 73
4
 74
0
 40
0
 40
0
 40
0
 40
0
 40
1
 40
1
 40
1
 40
1
 10
171.748024
 20
252.630457
 30
0.0
 10
173.404877
 20
252.630457
 30
0.0
 10
174.748022
 20
251.287311
 30
0.0
 10
174.748022
 20
249.630457
 30
0.0
  0
LWPOLYLINE
  5
198
100
AcDbEntity
  8
Layer_1
 62
7
100
AcDbPolyline
 90
2
 70
0
 10
102.749747
 20
249.630457
 30
0.0
 10
102.749747
 20
249.630457
 30
0.0
  0
SPLINE
  5
199
100
AcDbEntity
  8
Layer_1
 62
7
100
AcDbSpline
 70
8
 71
3
 72
8
 73
4
 74
0
 40
0
 40
0
 40
0
 40
0
 40
1
 40
1
 40
1
 40
1
 10
138.748887
 20
285.629594
 30
0.0
 10
138.748887
 20
283.972740
 30
0.0
 10
137.405742
 20
282.629594
 30
0.0
 10
135.748889
 20
282.629594
 30
0.0
  0
SPLINE
  5
19a
100
AcDbEntity
  8
Layer_1
 62
7
100
AcDbSpline
 70
8
 71
3
 72
8
 73
4
 74
0
 40
0
 40
0
 40
0
 40
0
 40
1
 40
1
 40
1
 40
1
 10
135.748889
 20
282.629594
 30
0.0
 10
134.092033
 20
282.629594
 30
0.0
 10
132.748887
 20
283.972740
 30
0.0
 10
132.748887
 20
285.629594
 30
0.0
  0
SPLINE
  5
19b
100
AcDbEntity
  8
Layer_1
 62
7
100
AcDbSpline
 70
8
 71
3
 72
8
 73
4
 74
0
 40
0
 40
0
 40
0
 40
0
 40
1
 40
1
 40
1
 40
1
 10
132.748887
 20
285.629594
 30
0.0
 10
132.748887
 20
287.286448
 30
0.0
 10
134.092033
 20
288.629594
 30
0.0
 10
135.748889
 20
288.629594
 30
0.0
  0
SPLINE
  5
19c
100
AcDbEntity
  8
Layer_1
 62
7
100
AcDbSpline
 70
8
 71
3
 72
8
 73
4
 74
0
 40
0
 40
0
 40
0
 40
0
 40
1
 40
1
 40
1
 40
1
 10
135.748889
 20
288.629594
 30
0.0
 10
137.405742
 20
288.629594
 30
0.0
 10
138.748887
 20
287.286448
 30
0.0
 10
138.748887
 20
285.629594
 30
0.0
  0
LWPOLYLINE
  5
19d
100
AcDbEntity
  8
Layer_1
 62
7
100
AcDbPolyline
 90
2
 70
0
 10
174.748022
 20
249.630457
 30
0.0
 10
174.748022
 20
249.630457
 30
0.0
  0
LWPOLYLINE
  5
19e
100
AcDbEntity
  8
Layer_1
 62
7
100
AcDbPolyline
 90
2
 70
0
 10
138.748887
 20
285.629594
 30
0.0
 10
138.748887
 20
285.629594
 30
0.0
  0
ENDSEC
  0
SECTION
  2
OBJECTS
  0
DICTIONARY
  5
C
330
0
100
AcDbDictionary
  3
ACAD_GROUP
350
D
  3
ACAD_MLINESTYLE
350
17
  0
DICTIONARY
  5
D
330
C
100
AcDbDictionary
  0
DICTIONARY
  5
1A
330
C
100
AcDbDictionary
  0
DICTIONARY
  5
17
330
C
100
AcDbDictionary
  3
STANDARD
350
18
  0
DICTIONARY
  5
19
330
C
100
AcDbDictionary
  0
ENDSEC
  0
EOF
