  0
SECTION
  2
HEADER
  9
$ACADVER
  1
AC1014
  9
$HANDSEED
  5
FFFF
  9
$MEASUREMENT
 70
     1
  0
ENDSEC
  0
SECTION
  2
TABLES
  0
TABLE
  2
VPORT
  5
8
330
0
100
AcDbSymbolTable
 70
     4
  0
VPORT
  5
2E
330
8
100
AcDbSymbolTableRecord
100
AcDbViewportTableRecord
  2
*ACTIVE
 70
     0
 10
0.0
 20
0.0
 11
1.0
 21
1.0
 12
210.0
 22
148.5
 13
0.0
 23
0.0
 14
10.0
 24
10.0
 15
10.0
 25
10.0
 16
0.0
 26
0.0
 36
1.0
 17
0.0
 27
0.0
 37
0.0
 40
341.0
 41
1.24
 42
50.0
 43
0.0
 44
0.0
 50
0.0
 51
0.0
 71
     0
 72
   100
 73
     1
 74
     3
 75
     0
 76
     0
 77
     0
 78
     0
  0
ENDTAB
  0
TABLE
  2
LTYPE
  5
5
330
0
100
AcDbSymbolTable
 70
     1
  0
LTYPE
  5
14
330
5
100
AcDbSymbolTableRecord
100
AcDbLinetypeTableRecord
  2
BYBLOCK
 70
     0
  3

 72
    65
 73
     0
 40
0.0
  0
LTYPE
  5
15
330
5
100
AcDbSymbolTableRecord
100
AcDbLinetypeTableRecord
  2
BYLAYER
 70
     0
  3

 72
    65
 73
     0
 40
0.0
  0
LTYPE
  5
16
330
5
100
AcDbSymbolTableRecord
100
AcDbLinetypeTableRecord
  2
CONTINUOUS
 70
     0
  3
Solid line
 72
    65
 73
     0
 40
0.0
  0
ENDTAB
  0
TABLE
  2
LAYER
  5
2
100
AcDbSymbolTable
 70
2
  0
LAYER
  5
50
100
AcDbSymbolTableRecord
100
AcDbLayerTableRecord
  2
0
 70
0
  6
CONTINUOUS
  0
LAYER
  5
51
100
AcDbSymbolTableRecord
100
AcDbLayerTableRecord
  2
Layer_1
 70
0
  6
CONTINUOUS
  0
ENDTAB
  0
TABLE
  2
STYLE
  5
3
330
0
100
AcDbSymbolTable
 70
     1
  0
STYLE
  5
11
330
3
100
AcDbSymbolTableRecord
100
AcDbTextStyleTableRecord
  2
STANDARD
 70
     0
 40
0.0
 41
1.0
 50
0.0
 71
     0
 42
2.5
  3
txt
  4

  0
ENDTAB
  0
TABLE
  2
VIEW
  5
6
330
0
100
AcDbSymbolTable
 70
     0
  0
ENDTAB
  0
TABLE
  2
UCS
  5
7
330
0
100
AcDbSymbolTable
 70
     0
  0
ENDTAB
  0
TABLE
  2
APPID
  5
9
330
0
100
AcDbSymbolTable
 70
     2
  0
APPID
  5
12
330
9
100
AcDbSymbolTableRecord
100
AcDbRegAppTableRecord
  2
ACAD
 70
     0
  0
ENDTAB
  0
TABLE
  2
DIMSTYLE
  5
A
330
0
100
AcDbSymbolTable
 70
     1
  0
DIMSTYLE
105
27
330
A
100
AcDbSymbolTableRecord
100
AcDbDimStyleTableRecord
  2
ISO-25
 70
     0
  3

  4

  5

  6

  7

 40
1.0
 41
2.5
 42
0.625
 43
3.75
 44
1.25
 45
0.0
 46
0.0
 47
0.0
 48
0.0
140
2.5
141
2.5
142
0.0
143
0.03937007874016
144
1.0
145
0.0
146
1.0
147
0.625
 71
     0
 72
     0
 73
     0
 74
     0
 75
     0
 76
     0
 77
     1
 78
     8
170
     0
171
     3
172
     1
173
     0
174
     0
175
     0
176
     0
177
     0
178
     0
270
     2
271
     2
272
     2
273
     2
274
     3
340
11
275
     0
280
     0
281
     0
282
     0
283
     0
284
     8
285
     0
286
     0
287
     3
288
     0
  0
ENDTAB
  0
TABLE
  2
BLOCK_RECORD
  5
1
330
0
100
AcDbSymbolTable
 70
     1
  0
BLOCK_RECORD
  5
1F
330
1
100
AcDbSymbolTableRecord
100
AcDbBlockTableRecord
  2
*MODEL_SPACE
  0
BLOCK_RECORD
  5
1B
330
1
100
AcDbSymbolTableRecord
100
AcDbBlockTableRecord
  2
*PAPER_SPACE
  0
ENDTAB
  0
ENDSEC
  0
SECTION
  2
BLOCKS
  0
BLOCK
  5
20
330
1F
100
AcDbEntity
  8
0
100
AcDbBlockBegin
  2
*MODEL_SPACE
 70
     0
 10
0.0
 20
0.0
 30
0.0
  3
*MODEL_SPACE
  1

  0
ENDBLK
  5
21
330
1F
100
AcDbEntity
  8
0
100
AcDbBlockEnd
  0
BLOCK
  5
1C
330
1B
100
AcDbEntity
 67
     1
  8
0
100
AcDbBlockBegin
  2
*PAPER_SPACE
  1

  0
ENDBLK
  5
1D
330
1B
100
AcDbEntity
 67
     1
  8
0
100
AcDbBlockEnd
  0
ENDSEC
  0
SECTION
  2
ENTITIES
  0
LWPOLYLINE
  5
100
100
AcDbEntity
  8
Layer_1
 62
7
100
AcDbPolyline
 90
7
 70
0
 10
42.492021
 20
239.409733
 30
0.0
 10
42.492021
 20
242.412002
 30
0.0
 10
54.493521
 20
242.412002
 30
0.0
 10
54.493521
 20
254.409974
 30
0.0
 10
57.492203
 20
254.409974
 30
0.0
 10
57.492203
 20
239.409733
 30
0.0
 10
42.492021
 20
239.409733
 30
0.0
  0
LWPOLYLINE
  5
101
100
AcDbEntity
  8
Layer_1
 62
7
100
AcDbPolyline
 90
7
 70
0
 10
27.491910
 20
284.410067
 30
0.0
 10
27.491910
 20
281.411585
 30
0.0
 10
15.493938
 20
281.411585
 30
0.0
 10
15.493938
 20
269.410085
 30
0.0
 10
12.491870
 20
269.410085
 30
0.0
 10
12.491870
 20
284.410067
 30
0.0
 10
27.491910
 20
284.410067
 30
0.0
  0
LWPOLYLINE
  5
102
100
AcDbEntity
  8
Layer_1
 62
7
100
AcDbPolyline
 90
7
 70
0
 10
12.491870
 20
254.409974
 30
0.0
 10
15.493938
 20
254.409974
 30
0.0
 10
15.493938
 20
242.412002
 30
0.0
 10
27.491910
 20
242.412002
 30
0.0
 10
27.491910
 20
239.409733
 30
0.0
 10
12.491870
 20
239.409733
 30
0.0
 10
12.491870
 20
254.409974
 30
0.0
  0
LWPOLYLINE
  5
103
100
AcDbEntity
  8
Layer_1
 62
7
100
AcDbPolyline
 90
7
 70
0
 10
57.492203
 20
269.410085
 30
0.0
 10
54.493521
 20
269.410085
 30
0.0
 10
54.493521
 20
281.411585
 30
0.0
 10
42.492021
 20
281.411585
 30
0.0
 10
42.492021
 20
284.410067
 30
0.0
 10
57.492203
 20
284.410067
 30
0.0
 10
57.492203
 20
269.410085
 30
0.0
  0
SPLINE
  5
104
100
AcDbEntity
  8
Layer_1
 62
7
100
AcDbSpline
 70
8
 71
3
 72
8
 73
4
 74
0
 40
0
 40
0
 40
0
 40
0
 40
1
 40
1
 40
1
 40
1
 10
36.491999
 20
282.910067
 30
0.0
 10
36.491999
 20
282.081640
 30
0.0
 10
35.820426
 20
281.410067
 30
0.0
 10
34.992000
 20
281.410067
 30
0.0
  0
SPLINE
  5
105
100
AcDbEntity
  8
Layer_1
 62
7
100
AcDbSpline
 70
8
 71
3
 72
8
 73
4
 74
0
 40
0
 40
0
 40
0
 40
0
 40
1
 40
1
 40
1
 40
1
 10
34.992000
 20
281.410067
 30
0.0
 10
34.163570
 20
281.410067
 30
0.0
 10
33.492000
 20
282.081640
 30
0.0
 10
33.492000
 20
282.910067
 30
0.0
  0
SPLINE
  5
106
100
AcDbEntity
  8
Layer_1
 62
7
100
AcDbSpline
 70
8
 71
3
 72
8
 73
4
 74
0
 40
0
 40
0
 40
0
 40
0
 40
1
 40
1
 40
1
 40
1
 10
33.492000
 20
282.910067
 30
0.0
 10
33.492000
 20
283.738493
 30
0.0
 10
34.163570
 20
284.410067
 30
0.0
 10
34.992000
 20
284.410067
 30
0.0
  0
SPLINE
  5
107
100
AcDbEntity
  8
Layer_1
 62
7
100
AcDbSpline
 70
8
 71
3
 72
8
 73
4
 74
0
 40
0
 40
0
 40
0
 40
0
 40
1
 40
1
 40
1
 40
1
 10
34.992000
 20
284.410067
 30
0.0
 10
35.820426
 20
284.410067
 30
0.0
 10
36.491999
 20
283.738493
 30
0.0
 10
36.491999
 20
282.910067
 30
0.0
  0
LWPOLYLINE
  5
108
100
AcDbEntity
  8
Layer_1
 62
7
100
AcDbPolyline
 90
5
 70
0
 10
7.492035
 20
289.409899
 30
0.0
 10
62.492038
 20
289.409899
 30
0.0
 10
62.492038
 20
234.409896
 30
0.0
 10
7.492035
 20
234.409896
 30
0.0
 10
7.492035
 20
289.409899
 30
0.0
  0
SPLINE
  5
109
100
AcDbEntity
  8
Layer_1
 62
7
100
AcDbSpline
 70
8
 71
3
 72
8
 73
4
 74
0
 40
0
 40
0
 40
0
 40
0
 40
1
 40
1
 40
1
 40
1
 10
15.491869
 20
261.909956
 30
0.0
 10
15.491869
 20
261.081530
 30
0.0
 10
14.820296
 20
260.409957
 30
0.0
 10
13.991869
 20
260.409957
 30
0.0
  0
SPLINE
  5
10a
100
AcDbEntity
  8
Layer_1
 62
7
100
AcDbSpline
 70
8
 71
3
 72
8
 73
4
 74
0
 40
0
 40
0
 40
0
 40
0
 40
1
 40
1
 40
1
 40
1
 10
13.991869
 20
260.409957
 30
0.0
 10
13.163440
 20
260.409957
 30
0.0
 10
12.491870
 20
261.081530
 30
0.0
 10
12.491870
 20
261.909956
 30
0.0
  0
SPLINE
  5
10b
100
AcDbEntity
  8
Layer_1
 62
7
100
AcDbSpline
 70
8
 71
3
 72
8
 73
4
 74
0
 40
0
 40
0
 40
0
 40
0
 40
1
 40
1
 40
1
 40
1
 10
12.491870
 20
261.909956
 30
0.0
 10
12.491870
 20
262.738383
 30
0.0
 10
13.163440
 20
263.409956
 30
0.0
 10
13.991869
 20
263.409956
 30
0.0
  0
SPLINE
  5
10c
100
AcDbEntity
  8
Layer_1
 62
7
100
AcDbSpline
 70
8
 71
3
 72
8
 73
4
 74
0
 40
0
 40
0
 40
0
 40
0
 40
1
 40
1
 40
1
 40
1
 10
13.991869
 20
263.409956
 30
0.0
 10
14.820296
 20
263.409956
 30
0.0
 10
15.491869
 20
262.738383
 30
0.0
 10
15.491869
 20
261.909956
 30
0.0
  0
LWPOLYLINE
  5
10d
100
AcDbEntity
  8
Layer_1
 62
7
100
AcDbPolyline
 90
2
 70
0
 10
36.491999
 20
282.910067
 30
0.0
 10
36.491999
 20
282.910067
 30
0.0
  0
SPLINE
  5
10e
100
AcDbEntity
  8
Layer_1
 62
7
100
AcDbSpline
 70
8
 71
3
 72
8
 73
4
 74
0
 40
0
 40
0
 40
0
 40
0
 40
1
 40
1
 40
1
 40
1
 10
36.492002
 20
240.909733
 30
0.0
 10
36.492002
 20
240.081307
 30
0.0
 10
35.820429
 20
239.409733
 30
0.0
 10
34.992002
 20
239.409733
 30
0.0
  0
SPLINE
  5
10f
100
AcDbEntity
  8
Layer_1
 62
7
100
AcDbSpline
 70
8
 71
3
 72
8
 73
4
 74
0
 40
0
 40
0
 40
0
 40
0
 40
1
 40
1
 40
1
 40
1
 10
34.992002
 20
239.409733
 30
0.0
 10
34.163573
 20
239.409733
 30
0.0
 10
33.492003
 20
240.081307
 30
0.0
 10
33.492003
 20
240.909733
 30
0.0
  0
SPLINE
  5
110
100
AcDbEntity
  8
Layer_1
 62
7
100
AcDbSpline
 70
8
 71
3
 72
8
 73
4
 74
0
 40
0
 40
0
 40
0
 40
0
 40
1
 40
1
 40
1
 40
1
 10
33.492003
 20
240.909733
 30
0.0
 10
33.492003
 20
241.738160
 30
0.0
 10
34.163573
 20
242.409733
 30
0.0
 10
34.992002
 20
242.409733
 30
0.0
  0
SPLINE
  5
111
100
AcDbEntity
  8
Layer_1
 62
7
100
AcDbSpline
 70
8
 71
3
 72
8
 73
4
 74
0
 40
0
 40
0
 40
0
 40
0
 40
1
 40
1
 40
1
 40
1
 10
34.992002
 20
242.409733
 30
0.0
 10
35.820429
 20
242.409733
 30
0.0
 10
36.492002
 20
241.738160
 30
0.0
 10
36.492002
 20
240.909733
 30
0.0
  0
LWPOLYLINE
  5
112
100
AcDbEntity
  8
Layer_1
 62
7
100
AcDbPolyline
 90
2
 70
0
 10
15.491869
 20
261.909956
 30
0.0
 10
15.491869
 20
261.909956
 30
0.0
  0
SPLINE
  5
113
100
AcDbEntity
  8
Layer_1
 62
7
100
AcDbSpline
 70
8
 71
3
 72
8
 73
4
 74
0
 40
0
 40
0
 40
0
 40
0
 40
1
 40
1
 40
1
 40
1
 10
57.492203
 20
261.909956
 30
0.0
 10
57.492203
 20
261.081530
 30
0.0
 10
56.820630
 20
260.409957
 30
0.0
 10
55.992203
 20
260.409957
 30
0.0
  0
SPLINE
  5
114
100
AcDbEntity
  8
Layer_1
 62
7
100
AcDbSpline
 70
8
 71
3
 72
8
 73
4
 74
0
 40
0
 40
0
 40
0
 40
0
 40
1
 40
1
 40
1
 40
1
 10
55.992203
 20
260.409957
 30
0.0
 10
55.163774
 20
260.409957
 30
0.0
 10
54.492203
 20
261.081530
 30
0.0
 10
54.492203
 20
261.909956
 30
0.0
  0
SPLINE
  5
115
100
AcDbEntity
  8
Layer_1
 62
7
100
AcDbSpline
 70
8
 71
3
 72
8
 73
4
 74
0
 40
0
 40
0
 40
0
 40
0
 40
1
 40
1
 40
1
 40
1
 10
54.492203
 20
261.909956
 30
0.0
 10
54.492203
 20
262.738383
 30
0.0
 10
55.163774
 20
263.409956
 30
0.0
 10
55.992203
 20
263.409956
 30
0.0
  0
SPLINE
  5
116
100
AcDbEntity
  8
Layer_1
 62
7
100
AcDbSpline
 70
8
 71
3
 72
8
 73
4
 74
0
 40
0
 40
0
 40
0
 40
0
 40
1
 40
1
 40
1
 40
1
 10
55.992203
 20
263.409956
 30
0.0
 10
56.820630
 20
263.409956
 30
0.0
 10
57.492203
 20
262.738383
 30
0.0
 10
57.492203
 20
261.909956
 30
0.0
  0
LWPOLYLINE
  5
117
100
AcDbEntity
  8
Layer_1
 62
7
100
AcDbPolyline
 90
2
 70
0
 10
36.492002
 20
240.909733
 30
0.0
 10
36.492002
 20
240.909733
 30
0.0
  0
LWPOLYLINE
  5
118
100
AcDbEntity
  8
Layer_1
 62
7
100
AcDbPolyline
 90
2
 70
0
 10
57.492203
 20
261.909956
 30
0.0
 10
57.492203
 20
261.909956
 30
0.0
  0
LWPOLYLINE
  5
119
100
AcDbEntity
  8
Layer_1
 62
7
100
AcDbPolyline
 90
7
 70
0
 10
103.419092
 20
238.864641
 30
0.0
 10
103.419092
 20
241.866910
 30
0.0
 10
115.420592
 20
241.866910
 30
0.0
 10
115.420592
 20
253.864882
 30
0.0
 10
118.419274
 20
253.864882
 30
0.0
 10
118.419274
 20
238.864641
 30
0.0
 10
103.419092
 20
238.864641
 30
0.0
  0
LWPOLYLINE
  5
11a
100
AcDbEntity
  8
Layer_1
 62
7
100
AcDbPolyline
 90
7
 70
0
 10
88.418981
 20
283.864974
 30
0.0
 10
88.418981
 20
280.866493
 30
0.0
 10
76.421009
 20
280.866493
 30
0.0
 10
76.421009
 20
268.864993
 30
0.0
 10
73.418941
 20
268.864993
 30
0.0
 10
73.418941
 20
283.864974
 30
0.0
 10
88.418981
 20
283.864974
 30
0.0
  0
LWPOLYLINE
  5
11b
100
AcDbEntity
  8
Layer_1
 62
7
100
AcDbPolyline
 90
7
 70
0
 10
73.418941
 20
253.864882
 30
0.0
 10
76.421009
 20
253.864882
 30
0.0
 10
76.421009
 20
241.866910
 30
0.0
 10
88.418981
 20
241.866910
 30
0.0
 10
88.418981
 20
238.864641
 30
0.0
 10
73.418941
 20
238.864641
 30
0.0
 10
73.418941
 20
253.864882
 30
0.0
  0
LWPOLYLINE
  5
11c
100
AcDbEntity
  8
Layer_1
 62
7
100
AcDbPolyline
 90
7
 70
0
 10
118.419274
 20
268.864993
 30
0.0
 10
115.420592
 20
268.864993
 30
0.0
 10
115.420592
 20
280.866493
 30
0.0
 10
103.419092
 20
280.866493
 30
0.0
 10
103.419092
 20
283.864974
 30
0.0
 10
118.419274
 20
283.864974
 30
0.0
 10
118.419274
 20
268.864993
 30
0.0
  0
SPLINE
  5
11d
100
AcDbEntity
  8
Layer_1
 62
7
100
AcDbSpline
 70
8
 71
3
 72
8
 73
4
 74
0
 40
0
 40
0
 40
0
 40
0
 40
1
 40
1
 40
1
 40
1
 10
97.419071
 20
282.364974
 30
0.0
 10
97.419071
 20
281.536548
 30
0.0
 10
96.747497
 20
280.864975
 30
0.0
 10
95.919071
 20
280.864975
 30
0.0
  0
SPLINE
  5
11e
100
AcDbEntity
  8
Layer_1
 62
7
100
AcDbSpline
 70
8
 71
3
 72
8
 73
4
 74
0
 40
0
 40
0
 40
0
 40
0
 40
1
 40
1
 40
1
 40
1
 10
95.919071
 20
280.864975
 30
0.0
 10
95.090641
 20
280.864975
 30
0.0
 10
94.419071
 20
281.536548
 30
0.0
 10
94.419071
 20
282.364974
 30
0.0
  0
SPLINE
  5
11f
100
AcDbEntity
  8
Layer_1
 62
7
100
AcDbSpline
 70
8
 71
3
 72
8
 73
4
 74
0
 40
0
 40
0
 40
0
 40
0
 40
1
 40
1
 40
1
 40
1
 10
94.419071
 20
282.364974
 30
0.0
 10
94.419071
 20
283.193401
 30
0.0
 10
95.090641
 20
283.864974
 30
0.0
 10
95.919071
 20
283.864974
 30
0.0
  0
SPLINE
  5
120
100
AcDbEntity
  8
Layer_1
 62
7
100
AcDbSpline
 70
8
 71
3
 72
8
 73
4
 74
0
 40
0
 40
0
 40
0
 40
0
 40
1
 40
1
 40
1
 40
1
 10
95.919071
 20
283.864974
 30
0.0
 10
96.747497
 20
283.864974
 30
0.0
 10
97.419071
 20
283.193401
 30
0.0
 10
97.419071
 20
282.364974
 30
0.0
  0
LWPOLYLINE
  5
121
100
AcDbEntity
  8
Layer_1
 62
7
100
AcDbPolyline
 90
5
 70
0
 10
68.419106
 20
288.864806
 30
0.0
 10
123.419109
 20
288.864806
 30
0.0
 10
123.419109
 20
233.864803
 30
0.0
 10
68.419106
 20
233.864803
 30
0.0
 10
68.419106
 20
288.864806
 30
0.0
  0
SPLINE
  5
122
100
AcDbEntity
  8
Layer_1
 62
7
100
AcDbSpline
 70
8
 71
3
 72
8
 73
4
 74
0
 40
0
 40
0
 40
0
 40
0
 40
1
 40
1
 40
1
 40
1
 10
76.418940
 20
261.364864
 30
0.0
 10
76.418940
 20
260.536437
 30
0.0
 10
75.747367
 20
259.864864
 30
0.0
 10
74.918941
 20
259.864864
 30
0.0
  0
SPLINE
  5
123
100
AcDbEntity
  8
Layer_1
 62
7
100
AcDbSpline
 70
8
 71
3
 72
8
 73
4
 74
0
 40
0
 40
0
 40
0
 40
0
 40
1
 40
1
 40
1
 40
1
 10
74.918941
 20
259.864864
 30
0.0
 10
74.090511
 20
259.864864
 30
0.0
 10
73.418941
 20
260.536437
 30
0.0
 10
73.418941
 20
261.364864
 30
0.0
  0
SPLINE
  5
124
100
AcDbEntity
  8
Layer_1
 62
7
100
AcDbSpline
 70
8
 71
3
 72
8
 73
4
 74
0
 40
0
 40
0
 40
0
 40
0
 40
1
 40
1
 40
1
 40
1
 10
73.418941
 20
261.364864
 30
0.0
 10
73.418941
 20
262.193291
 30
0.0
 10
74.090511
 20
262.864864
 30
0.0
 10
74.918941
 20
262.864864
 30
0.0
  0
SPLINE
  5
125
100
AcDbEntity
  8
Layer_1
 62
7
100
AcDbSpline
 70
8
 71
3
 72
8
 73
4
 74
0
 40
0
 40
0
 40
0
 40
0
 40
1
 40
1
 40
1
 40
1
 10
74.918941
 20
262.864864
 30
0.0
 10
75.747367
 20
262.864864
 30
0.0
 10
76.418940
 20
262.193291
 30
0.0
 10
76.418940
 20
261.364864
 30
0.0
  0
LWPOLYLINE
  5
126
100
AcDbEntity
  8
Layer_1
 62
7
100
AcDbPolyline
 90
2
 70
0
 10
97.419071
 20
282.364974
 30
0.0
 10
97.419071
 20
282.364974
 30
0.0
  0
SPLINE
  5
127
100
AcDbEntity
  8
Layer_1
 62
7
100
AcDbSpline
 70
8
 71
3
 72
8
 73
4
 74
0
 40
0
 40
0
 40
0
 40
0
 40
1
 40
1
 40
1
 40
1
 10
97.419073
 20
240.364641
 30
0.0
 10
97.419073
 20
239.536214
 30
0.0
 10
96.747500
 20
238.864641
 30
0.0
 10
95.919074
 20
238.864641
 30
0.0
  0
SPLINE
  5
128
100
AcDbEntity
  8
Layer_1
 62
7
100
AcDbSpline
 70
8
 71
3
 72
8
 73
4
 74
0
 40
0
 40
0
 40
0
 40
0
 40
1
 40
1
 40
1
 40
1
 10
95.919074
 20
238.864641
 30
0.0
 10
95.090644
 20
238.864641
 30
0.0
 10
94.419074
 20
239.536214
 30
0.0
 10
94.419074
 20
240.364641
 30
0.0
  0
SPLINE
  5
129
100
AcDbEntity
  8
Layer_1
 62
7
100
AcDbSpline
 70
8
 71
3
 72
8
 73
4
 74
0
 40
0
 40
0
 40
0
 40
0
 40
1
 40
1
 40
1
 40
1
 10
94.419074
 20
240.364641
 30
0.0
 10
94.419074
 20
241.193067
 30
0.0
 10
95.090644
 20
241.864641
 30
0.0
 10
95.919074
 20
241.864641
 30
0.0
  0
SPLINE
  5
12a
100
AcDbEntity
  8
Layer_1
 62
7
100
AcDbSpline
 70
8
 71
3
 72
8
 73
4
 74
0
 40
0
 40
0
 40
0
 40
0
 40
1
 40
1
 40
1
 40
1
 10
95.919074
 20
241.864641
 30
0.0
 10
96.747500
 20
241.864641
 30
0.0
 10
97.419073
 20
241.193067
 30
0.0
 10
97.419073
 20
240.364641
 30
0.0
  0
LWPOLYLINE
  5
12b
100
AcDbEntity
  8
Layer_1
 62
7
100
AcDbPolyline
 90
2
 70
0
 10
76.418940
 20
261.364864
 30
0.0
 10
76.418940
 20
261.364864
 30
0.0
  0
SPLINE
  5
12c
100
AcDbEntity
  8
Layer_1
 62
7
100
AcDbSpline
 70
8
 71
3
 72
8
 73
4
 74
0
 40
0
 40
0
 40
0
 40
0
 40
1
 40
1
 40
1
 40
1
 10
118.419274
 20
261.364864
 30
0.0
 10
118.419274
 20
260.536437
 30
0.0
 10
117.747701
 20
259.864864
 30
0.0
 10
116.919274
 20
259.864864
 30
0.0
  0
SPLINE
  5
12d
100
AcDbEntity
  8
Layer_1
 62
7
100
AcDbSpline
 70
8
 71
3
 72
8
 73
4
 74
0
 40
0
 40
0
 40
0
 40
0
 40
1
 40
1
 40
1
 40
1
 10
116.919274
 20
259.864864
 30
0.0
 10
116.090845
 20
259.864864
 30
0.0
 10
115.419274
 20
260.536437
 30
0.0
 10
115.419274
 20
261.364864
 30
0.0
  0
SPLINE
  5
12e
100
AcDbEntity
  8
Layer_1
 62
7
100
AcDbSpline
 70
8
 71
3
 72
8
 73
4
 74
0
 40
0
 40
0
 40
0
 40
0
 40
1
 40
1
 40
1
 40
1
 10
115.419274
 20
261.364864
 30
0.0
 10
115.419274
 20
262.193291
 30
0.0
 10
116.090845
 20
262.864864
 30
0.0
 10
116.919274
 20
262.864864
 30
0.0
  0
SPLINE
  5
12f
100
AcDbEntity
  8
Layer_1
 62
7
100
AcDbSpline
 70
8
 71
3
 72
8
 73
4
 74
0
 40
0
 40
0
 40
0
 40
0
 40
1
 40
1
 40
1
 40
1
 10
116.919274
 20
262.864864
 30
0.0
 10
117.747701
 20
262.864864
 30
0.0
 10
118.419274
 20
262.193291
 30
0.0
 10
118.419274
 20
261.364864
 30
0.0
  0
LWPOLYLINE
  5
130
100
AcDbEntity
  8
Layer_1
 62
7
100
AcDbPolyline
 90
2
 70
0
 10
97.419073
 20
240.364641
 30
0.0
 10
97.419073
 20
240.364641
 30
0.0
  0
LWPOLYLINE
  5
131
100
AcDbEntity
  8
Layer_1
 62
7
100
AcDbPolyline
 90
2
 70
0
 10
118.419274
 20
261.364864
 30
0.0
 10
118.419274
 20
261.364864
 30
0.0
  0
SPLINE
  5
132
100
AcDbEntity
  8
Layer_1
 62
7
100
AcDbSpline
 70
8
 71
3
 72
8
 73
4
 74
0
 40
0
 40
0
 40
0
 40
0
 40
1
 40
1
 40
1
 40
1
 10
30.359709
 20
153.830058
 30
0.0
 10
30.359709
 20
153.001632
 30
0.0
 10
29.688137
 20
152.330058
 30
0.0
 10
28.859709
 20
152.330058
 30
0.0
  0
SPLINE
  5
133
100
AcDbEntity
  8
Layer_1
 62
7
100
AcDbSpline
 70
8
 71
3
 72
8
 73
4
 74
0
 40
0
 40
0
 40
0
 40
0
 40
1
 40
1
 40
1
 40
1
 10
28.859709
 20
152.330058
 30
0.0
 10
28.031281
 20
152.330058
 30
0.0
 10
27.359709
 20
153.001632
 30
0.0
 10
27.359709
 20
153.830058
 30
0.0
  0
SPLINE
  5
134
100
AcDbEntity
  8
Layer_1
 62
7
100
AcDbSpline
 70
8
 71
3
 72
8
 73
4
 74
0
 40
0
 40
0
 40
0
 40
0
 40
1
 40
1
 40
1
 40
1
 10
27.359709
 20
153.830058
 30
0.0
 10
27.359709
 20
154.658486
 30
0.0
 10
28.031281
 20
155.330058
 30
0.0
 10
28.859709
 20
155.330058
 30
0.0
  0
SPLINE
  5
135
100
AcDbEntity
  8
Layer_1
 62
7
100
AcDbSpline
 70
8
 71
3
 72
8
 73
4
 74
0
 40
0
 40
0
 40
0
 40
0
 40
1
 40
1
 40
1
 40
1
 10
28.859709
 20
155.330058
 30
0.0
 10
29.688137
 20
155.330058
 30
0.0
 10
30.359709
 20
154.658486
 30
0.0
 10
30.359709
 20
153.830058
 30
0.0
  0
LWPOLYLINE
  5
136
100
AcDbEntity
  8
Layer_1
 62
7
100
AcDbPolyline
 90
46
 70
0
 10
6.361306
 20
176.328461
 30
0.0
 10
6.361306
 20
161.326586
 30
0.0
 10
9.359917
 20
161.326586
 30
0.0
 10
9.359917
 20
146.324711
 30
0.0
 10
6.361306
 20
146.324711
 30
0.0
 10
6.361306
 20
131.331656
 30
0.0
 10
21.354361
 20
131.331656
 30
0.0
 10
21.354361
 20
134.330267
 30
0.0
 10
27.360403
 20
134.330267
 30
0.0
 10
27.360403
 20
137.328878
 30
0.0
 10
26.160959
 20
137.328878
 30
0.0
 10
26.160959
 20
139.727767
 30
0.0
 10
27.360403
 20
139.727767
 30
0.0
 10
27.360403
 20
141.324086
 30
0.0
 10
30.359014
 20
141.324086
 30
0.0
 10
30.359014
 20
139.727767
 30
0.0
 10
31.558459
 20
139.727767
 30
0.0
 10
31.558459
 20
137.328878
 30
0.0
 10
30.359014
 20
137.328878
 30
0.0
 10
30.359014
 20
134.330267
 30
0.0
 10
36.356236
 20
134.330267
 30
0.0
 10
36.356236
 20
131.331656
 30
0.0
 10
48.359500
 20
131.331656
 30
0.0
 10
48.359500
 20
146.324711
 30
0.0
 10
51.358111
 20
146.324711
 30
0.0
 10
51.358111
 20
161.326586
 30
0.0
 10
48.359500
 20
161.326586
 30
0.0
 10
48.359500
 20
176.328461
 30
0.0
 10
36.356236
 20
176.328461
 30
0.0
 10
36.356236
 20
173.329850
 30
0.0
 10
30.359014
 20
173.329850
 30
0.0
 10
30.359014
 20
170.331239
 30
0.0
 10
31.558459
 20
170.331239
 30
0.0
 10
31.558459
 20
167.932350
 30
0.0
 10
30.359014
 20
167.932350
 30
0.0
 10
30.359014
 20
166.336031
 30
0.0
 10
27.360403
 20
166.336031
 30
0.0
 10
27.360403
 20
167.932350
 30
0.0
 10
26.160959
 20
167.932350
 30
0.0
 10
26.160959
 20
170.331239
 30
0.0
 10
27.360403
 20
170.331239
 30
0.0
 10
27.360403
 20
173.329850
 30
0.0
 10
21.354361
 20
173.329850
 30
0.0
 10
21.354361
 20
176.328461
 30
0.0
 10
6.361306
 20
176.328461
 30
0.0
 10
6.361306
 20
176.328461
 30
0.0
  0
LWPOLYLINE
  5
137
100
AcDbEntity
  8
Layer_1
 62
7
100
AcDbPolyline
 90
2
 70
0
 10
30.359709
 20
153.830058
 30
0.0
 10
30.359709
 20
153.830058
 30
0.0
  0
SPLINE
  5
138
100
AcDbEntity
  8
Layer_1
 62
7
100
AcDbSpline
 70
8
 71
3
 72
8
 73
4
 74
0
 40
0
 40
0
 40
0
 40
0
 40
1
 40
1
 40
1
 40
1
 10
88.736773
 20
155.657779
 30
0.0
 10
88.736773
 20
154.829353
 30
0.0
 10
88.065201
 20
154.157779
 30
0.0
 10
87.236773
 20
154.157779
 30
0.0
  0
SPLINE
  5
139
100
AcDbEntity
  8
Layer_1
 62
7
100
AcDbSpline
 70
8
 71
3
 72
8
 73
4
 74
0
 40
0
 40
0
 40
0
 40
0
 40
1
 40
1
 40
1
 40
1
 10
87.236773
 20
154.157779
 30
0.0
 10
86.408345
 20
154.157779
 30
0.0
 10
85.736773
 20
154.829353
 30
0.0
 10
85.736773
 20
155.657779
 30
0.0
  0
SPLINE
  5
13a
100
AcDbEntity
  8
Layer_1
 62
7
100
AcDbSpline
 70
8
 71
3
 72
8
 73
4
 74
0
 40
0
 40
0
 40
0
 40
0
 40
1
 40
1
 40
1
 40
1
 10
85.736773
 20
155.657779
 30
0.0
 10
85.736773
 20
156.486207
 30
0.0
 10
86.408345
 20
157.157779
 30
0.0
 10
87.236773
 20
157.157779
 30
0.0
  0
SPLINE
  5
13b
100
AcDbEntity
  8
Layer_1
 62
7
100
AcDbSpline
 70
8
 71
3
 72
8
 73
4
 74
0
 40
0
 40
0
 40
0
 40
0
 40
1
 40
1
 40
1
 40
1
 10
87.236773
 20
157.157779
 30
0.0
 10
88.065201
 20
157.157779
 30
0.0
 10
88.736773
 20
156.486207
 30
0.0
 10
88.736773
 20
155.657779
 30
0.0
  0
LWPOLYLINE
  5
13c
100
AcDbEntity
  8
Layer_1
 62
7
100
AcDbPolyline
 90
46
 70
0
 10
64.738371
 20
178.156182
 30
0.0
 10
64.738371
 20
163.154307
 30
0.0
 10
67.736982
 20
163.154307
 30
0.0
 10
67.736982
 20
148.152432
 30
0.0
 10
64.738371
 20
148.152432
 30
0.0
 10
64.738371
 20
133.159377
 30
0.0
 10
79.731427
 20
133.159377
 30
0.0
 10
79.731427
 20
136.157988
 30
0.0
 10
85.737469
 20
136.157988
 30
0.0
 10
85.737469
 20
139.156599
 30
0.0
 10
84.538024
 20
139.156599
 30
0.0
 10
84.538024
 20
141.555488
 30
0.0
 10
85.737469
 20
141.555488
 30
0.0
 10
85.737469
 20
143.151807
 30
0.0
 10
88.736080
 20
143.151807
 30
0.0
 10
88.736080
 20
141.555488
 30
0.0
 10
89.935524
 20
141.555488
 30
0.0
 10
89.935524
 20
139.156599
 30
0.0
 10
88.736080
 20
139.156599
 30
0.0
 10
88.736080
 20
136.157988
 30
0.0
 10
94.733302
 20
136.157988
 30
0.0
 10
94.733302
 20
133.159377
 30
0.0
 10
106.736566
 20
133.159377
 30
0.0
 10
106.736566
 20
148.152432
 30
0.0
 10
109.735177
 20
148.152432
 30
0.0
 10
109.735177
 20
163.154307
 30
0.0
 10
106.736566
 20
163.154307
 30
0.0
 10
106.736566
 20
178.156182
 30
0.0
 10
94.733302
 20
178.156182
 30
0.0
 10
94.733302
 20
175.157571
 30
0.0
 10
88.736080
 20
175.157571
 30
0.0
 10
88.736080
 20
172.158960
 30
0.0
 10
89.935524
 20
172.158960
 30
0.0
 10
89.935524
 20
169.760071
 30
0.0
 10
88.736080
 20
169.760071
 30
0.0
 10
88.736080
 20
168.163752
 30
0.0
 10
85.737469
 20
168.163752
 30
0.0
 10
85.737469
 20
169.760071
 30
0.0
 10
84.538024
 20
169.760071
 30
0.0
 10
84.538024
 20
172.158960
 30
0.0
 10
85.737469
 20
172.158960
 30
0.0
 10
85.737469
 20
175.157571
 30
0.0
 10
79.731427
 20
175.157571
 30
0.0
 10
79.731427
 20
178.156182
 30
0.0
 10
64.738371
 20
178.156182
 30
0.0
 10
64.738371
 20
178.156182
 30
0.0
  0
LWPOLYLINE
  5
13d
100
AcDbEntity
  8
Layer_1
 62
7
100
AcDbPolyline
 90
2
 70
0
 10
88.736773
 20
155.657779
 30
0.0
 10
88.736773
 20
155.657779
 30
0.0
  0
SPLINE
  5
13e
100
AcDbEntity
  8
Layer_1
 62
7
100
AcDbSpline
 70
8
 71
3
 72
8
 73
4
 74
0
 40
0
 40
0
 40
0
 40
0
 40
1
 40
1
 40
1
 40
1
 10
85.692601
 20
204.692827
 30
0.0
 10
85.692601
 20
203.864401
 30
0.0
 10
85.021029
 20
203.192827
 30
0.0
 10
84.192601
 20
203.192827
 30
0.0
  0
SPLINE
  5
13f
100
AcDbEntity
  8
Layer_1
 62
7
100
AcDbSpline
 70
8
 71
3
 72
8
 73
4
 74
0
 40
0
 40
0
 40
0
 40
0
 40
1
 40
1
 40
1
 40
1
 10
84.192601
 20
203.192827
 30
0.0
 10
83.364173
 20
203.192827
 30
0.0
 10
82.692601
 20
203.864401
 30
0.0
 10
82.692601
 20
204.692827
 30
0.0
  0
SPLINE
  5
140
100
AcDbEntity
  8
Layer_1
 62
7
100
AcDbSpline
 70
8
 71
3
 72
8
 73
4
 74
0
 40
0
 40
0
 40
0
 40
0
 40
1
 40
1
 40
1
 40
1
 10
82.692601
 20
204.692827
 30
0.0
 10
82.692601
 20
205.521255
 30
0.0
 10
83.364173
 20
206.192827
 30
0.0
 10
84.192601
 20
206.192827
 30
0.0
  0
SPLINE
  5
141
100
AcDbEntity
  8
Layer_1
 62
7
100
AcDbSpline
 70
8
 71
3
 72
8
 73
4
 74
0
 40
0
 40
0
 40
0
 40
0
 40
1
 40
1
 40
1
 40
1
 10
84.192601
 20
206.192827
 30
0.0
 10
85.021029
 20
206.192827
 30
0.0
 10
85.692601
 20
205.521255
 30
0.0
 10
85.692601
 20
204.692827
 30
0.0
  0
LWPOLYLINE
  5
142
100
AcDbEntity
  8
Layer_1
 62
7
100
AcDbPolyline
 90
46
 70
0
 10
68.729596
 20
227.191230
 30
0.0
 10
68.729596
 20
212.189355
 30
0.0
 10
71.728207
 20
212.189355
 30
0.0
 10
71.728207
 20
197.187480
 30
0.0
 10
68.729596
 20
197.187480
 30
0.0
 10
68.729596
 20
182.194424
 30
0.0
 10
83.722652
 20
182.194424
 30
0.0
 10
83.722652
 20
185.193035
 30
0.0
 10
89.728693
 20
185.193035
 30
0.0
 10
89.728693
 20
188.191647
 30
0.0
 10
88.529249
 20
188.191647
 30
0.0
 10
88.529249
 20
190.590535
 30
0.0
 10
89.728693
 20
190.590535
 30
0.0
 10
89.728693
 20
192.186855
 30
0.0
 10
92.727304
 20
192.186855
 30
0.0
 10
92.727304
 20
190.590535
 30
0.0
 10
93.926749
 20
190.590535
 30
0.0
 10
93.926749
 20
188.191647
 30
0.0
 10
92.727304
 20
188.191647
 30
0.0
 10
92.727304
 20
185.193035
 30
0.0
 10
98.724527
 20
185.193035
 30
0.0
 10
98.724527
 20
182.194424
 30
0.0
 10
110.727791
 20
182.194424
 30
0.0
 10
110.727791
 20
197.187480
 30
0.0
 10
113.726402
 20
197.187480
 30
0.0
 10
113.726402
 20
212.189355
 30
0.0
 10
110.727791
 20
212.189355
 30
0.0
 10
110.727791
 20
227.191230
 30
0.0
 10
98.724527
 20
227.191230
 30
0.0
 10
98.724527
 20
224.192619
 30
0.0
 10
92.727304
 20
224.192619
 30
0.0
 10
92.727304
 20
221.194008
 30
0.0
 10
93.926749
 20
221.194008
 30
0.0
 10
93.926749
 20
218.795119
 30
0.0
 10
92.727304
 20
218.795119
 30
0.0
 10
92.727304
 20
217.198799
 30
0.0
 10
89.728693
 20
217.198799
 30
0.0
 10
89.728693
 20
218.795119
 30
0.0
 10
88.529249
 20
218.795119
 30
0.0
 10
88.529249
 20
221.194008
 30
0.0
 10
89.728693
 20
221.194008
 30
0.0
 10
89.728693
 20
224.192619
 30
0.0
 10
83.722652
 20
224.192619
 30
0.0
 10
83.722652
 20
227.191230
 30
0.0
 10
68.729596
 20
227.191230
 30
0.0
 10
68.729596
 20
227.191230
 30
0.0
  0
SPLINE
  5
143
100
AcDbEntity
  8
Layer_1
 62
7
100
AcDbSpline
 70
8
 71
3
 72
8
 73
4
 74
0
 40
0
 40
0
 40
0
 40
0
 40
1
 40
1
 40
1
 40
1
 10
99.763394
 20
204.692827
 30
0.0
 10
99.763394
 20
203.864401
 30
0.0
 10
99.091822
 20
203.192827
 30
0.0
 10
98.263394
 20
203.192827
 30
0.0
  0
SPLINE
  5
144
100
AcDbEntity
  8
Layer_1
 62
7
100
AcDbSpline
 70
8
 71
3
 72
8
 73
4
 74
0
 40
0
 40
0
 40
0
 40
0
 40
1
 40
1
 40
1
 40
1
 10
98.263394
 20
203.192827
 30
0.0
 10
97.434966
 20
203.192827
 30
0.0
 10
96.763394
 20
203.864401
 30
0.0
 10
96.763394
 20
204.692827
 30
0.0
  0
SPLINE
  5
145
100
AcDbEntity
  8
Layer_1
 62
7
100
AcDbSpline
 70
8
 71
3
 72
8
 73
4
 74
0
 40
0
 40
0
 40
0
 40
0
 40
1
 40
1
 40
1
 40
1
 10
96.763394
 20
204.692827
 30
0.0
 10
96.763394
 20
205.521255
 30
0.0
 10
97.434966
 20
206.192827
 30
0.0
 10
98.263394
 20
206.192827
 30
0.0
  0
SPLINE
  5
146
100
AcDbEntity
  8
Layer_1
 62
7
100
AcDbSpline
 70
8
 71
3
 72
8
 73
4
 74
0
 40
0
 40
0
 40
0
 40
0
 40
1
 40
1
 40
1
 40
1
 10
98.263394
 20
206.192827
 30
0.0
 10
99.091822
 20
206.192827
 30
0.0
 10
99.763394
 20
205.521255
 30
0.0
 10
99.763394
 20
204.692827
 30
0.0
  0
LWPOLYLINE
  5
147
100
AcDbEntity
  8
Layer_1
 62
7
100
AcDbPolyline
 90
2
 70
0
 10
85.692601
 20
204.692827
 30
0.0
 10
85.692601
 20
204.692827
 30
0.0
  0
LWPOLYLINE
  5
148
100
AcDbEntity
  8
Layer_1
 62
7
100
AcDbPolyline
 90
2
 70
0
 10
99.763394
 20
204.692827
 30
0.0
 10
99.763394
 20
204.692827
 30
0.0
  0
LWPOLYLINE
  5
149
100
AcDbEntity
  8
Layer_1
 62
7
100
AcDbPolyline
 90
46
 70
0
 10
9.614163
 20
226.773310
 30
0.0
 10
9.614163
 20
211.771435
 30
0.0
 10
12.612774
 20
211.771435
 30
0.0
 10
12.612774
 20
196.769560
 30
0.0
 10
9.614163
 20
196.769560
 30
0.0
 10
9.614163
 20
181.776504
 30
0.0
 10
24.607219
 20
181.776504
 30
0.0
 10
24.607219
 20
184.775115
 30
0.0
 10
30.613261
 20
184.775115
 30
0.0
 10
30.613261
 20
187.773726
 30
0.0
 10
29.413816
 20
187.773726
 30
0.0
 10
29.413816
 20
190.172615
 30
0.0
 10
30.613261
 20
190.172615
 30
0.0
 10
30.613261
 20
191.768935
 30
0.0
 10
33.611872
 20
191.768935
 30
0.0
 10
33.611872
 20
190.172615
 30
0.0
 10
34.811316
 20
190.172615
 30
0.0
 10
34.811316
 20
187.773726
 30
0.0
 10
33.611872
 20
187.773726
 30
0.0
 10
33.611872
 20
184.775115
 30
0.0
 10
39.609094
 20
184.775115
 30
0.0
 10
39.609094
 20
181.776504
 30
0.0
 10
51.612358
 20
181.776504
 30
0.0
 10
51.612358
 20
196.769560
 30
0.0
 10
54.610969
 20
196.769560
 30
0.0
 10
54.610969
 20
211.771435
 30
0.0
 10
51.612358
 20
211.771435
 30
0.0
 10
51.612358
 20
226.773310
 30
0.0
 10
39.609094
 20
226.773310
 30
0.0
 10
39.609094
 20
223.774698
 30
0.0
 10
33.611872
 20
223.774698
 30
0.0
 10
33.611872
 20
220.776087
 30
0.0
 10
34.811316
 20
220.776087
 30
0.0
 10
34.811316
 20
218.377198
 30
0.0
 10
33.611872
 20
218.377198
 30
0.0
 10
33.611872
 20
216.780879
 30
0.0
 10
30.613261
 20
216.780879
 30
0.0
 10
30.613261
 20
218.377198
 30
0.0
 10
29.413816
 20
218.377198
 30
0.0
 10
29.413816
 20
220.776087
 30
0.0
 10
30.613261
 20
220.776087
 30
0.0
 10
30.613261
 20
223.774698
 30
0.0
 10
24.607219
 20
223.774698
 30
0.0
 10
24.607219
 20
226.773310
 30
0.0
 10
9.614163
 20
226.773310
 30
0.0
 10
9.614163
 20
226.773310
 30
0.0
  0
LWPOLYLINE
  5
14a
100
AcDbEntity
  8
Layer_1
 62
7
100
AcDbPolyline
 90
5
 70
0
 10
24.612567
 20
214.824128
 30
0.0
 10
39.612565
 20
214.824128
 30
0.0
 10
39.612565
 20
199.824127
 30
0.0
 10
24.612567
 20
199.824127
 30
0.0
 10
24.612567
 20
214.824128
 30
0.0
  0
ENDSEC
  0
SECTION
  2
OBJECTS
  0
DICTIONARY
  5
C
330
0
100
AcDbDictionary
  3
ACAD_GROUP
350
D
  3
ACAD_MLINESTYLE
350
17
  0
DICTIONARY
  5
D
330
C
100
AcDbDictionary
  0
DICTIONARY
  5
1A
330
C
100
AcDbDictionary
  0
DICTIONARY
  5
17
330
C
100
AcDbDictionary
  3
STANDARD
350
18
  0
DICTIONARY
  5
19
330
C
100
AcDbDictionary
  0
ENDSEC
  0
EOF
