  0
SECTION
  2
HEADER
  9
$ACADVER
  1
AC1014
  9
$HANDSEED
  5
FFFF
  9
$MEASUREMENT
 70
     1
  0
ENDSEC
  0
SECTION
  2
TABLES
  0
TABLE
  2
VPORT
  5
8
330
0
100
AcDbSymbolTable
 70
     4
  0
VPORT
  5
2E
330
8
100
AcDbSymbolTableRecord
100
AcDbViewportTableRecord
  2
*ACTIVE
 70
     0
 10
0.0
 20
0.0
 11
1.0
 21
1.0
 12
210.0
 22
148.5
 13
0.0
 23
0.0
 14
10.0
 24
10.0
 15
10.0
 25
10.0
 16
0.0
 26
0.0
 36
1.0
 17
0.0
 27
0.0
 37
0.0
 40
341.0
 41
1.24
 42
50.0
 43
0.0
 44
0.0
 50
0.0
 51
0.0
 71
     0
 72
   100
 73
     1
 74
     3
 75
     0
 76
     0
 77
     0
 78
     0
  0
ENDTAB
  0
TABLE
  2
LTYPE
  5
5
330
0
100
AcDbSymbolTable
 70
     1
  0
LTYPE
  5
14
330
5
100
AcDbSymbolTableRecord
100
AcDbLinetypeTableRecord
  2
BYBLOCK
 70
     0
  3

 72
    65
 73
     0
 40
0.0
  0
LTYPE
  5
15
330
5
100
AcDbSymbolTableRecord
100
AcDbLinetypeTableRecord
  2
BYLAYER
 70
     0
  3

 72
    65
 73
     0
 40
0.0
  0
LTYPE
  5
16
330
5
100
AcDbSymbolTableRecord
100
AcDbLinetypeTableRecord
  2
CONTINUOUS
 70
     0
  3
Solid line
 72
    65
 73
     0
 40
0.0
  0
ENDTAB
  0
TABLE
  2
LAYER
  5
2
100
AcDbSymbolTable
 70
2
  0
LAYER
  5
50
100
AcDbSymbolTableRecord
100
AcDbLayerTableRecord
  2
0
 70
0
  6
CONTINUOUS
  0
LAYER
  5
51
100
AcDbSymbolTableRecord
100
AcDbLayerTableRecord
  2
Layer_1
 70
0
  6
CONTINUOUS
  0
ENDTAB
  0
TABLE
  2
STYLE
  5
3
330
0
100
AcDbSymbolTable
 70
     1
  0
STYLE
  5
11
330
3
100
AcDbSymbolTableRecord
100
AcDbTextStyleTableRecord
  2
STANDARD
 70
     0
 40
0.0
 41
1.0
 50
0.0
 71
     0
 42
2.5
  3
txt
  4

  0
ENDTAB
  0
TABLE
  2
VIEW
  5
6
330
0
100
AcDbSymbolTable
 70
     0
  0
ENDTAB
  0
TABLE
  2
UCS
  5
7
330
0
100
AcDbSymbolTable
 70
     0
  0
ENDTAB
  0
TABLE
  2
APPID
  5
9
330
0
100
AcDbSymbolTable
 70
     2
  0
APPID
  5
12
330
9
100
AcDbSymbolTableRecord
100
AcDbRegAppTableRecord
  2
ACAD
 70
     0
  0
ENDTAB
  0
TABLE
  2
DIMSTYLE
  5
A
330
0
100
AcDbSymbolTable
 70
     1
  0
DIMSTYLE
105
27
330
A
100
AcDbSymbolTableRecord
100
AcDbDimStyleTableRecord
  2
ISO-25
 70
     0
  3

  4

  5

  6

  7

 40
1.0
 41
2.5
 42
0.625
 43
3.75
 44
1.25
 45
0.0
 46
0.0
 47
0.0
 48
0.0
140
2.5
141
2.5
142
0.0
143
0.03937007874016
144
1.0
145
0.0
146
1.0
147
0.625
 71
     0
 72
     0
 73
     0
 74
     0
 75
     0
 76
     0
 77
     1
 78
     8
170
     0
171
     3
172
     1
173
     0
174
     0
175
     0
176
     0
177
     0
178
     0
270
     2
271
     2
272
     2
273
     2
274
     3
340
11
275
     0
280
     0
281
     0
282
     0
283
     0
284
     8
285
     0
286
     0
287
     3
288
     0
  0
ENDTAB
  0
TABLE
  2
BLOCK_RECORD
  5
1
330
0
100
AcDbSymbolTable
 70
     1
  0
BLOCK_RECORD
  5
1F
330
1
100
AcDbSymbolTableRecord
100
AcDbBlockTableRecord
  2
*MODEL_SPACE
  0
BLOCK_RECORD
  5
1B
330
1
100
AcDbSymbolTableRecord
100
AcDbBlockTableRecord
  2
*PAPER_SPACE
  0
ENDTAB
  0
ENDSEC
  0
SECTION
  2
BLOCKS
  0
BLOCK
  5
20
330
1F
100
AcDbEntity
  8
0
100
AcDbBlockBegin
  2
*MODEL_SPACE
 70
     0
 10
0.0
 20
0.0
 30
0.0
  3
*MODEL_SPACE
  1

  0
ENDBLK
  5
21
330
1F
100
AcDbEntity
  8
0
100
AcDbBlockEnd
  0
BLOCK
  5
1C
330
1B
100
AcDbEntity
 67
     1
  8
0
100
AcDbBlockBegin
  2
*PAPER_SPACE
  1

  0
ENDBLK
  5
1D
330
1B
100
AcDbEntity
 67
     1
  8
0
100
AcDbBlockEnd
  0
ENDSEC
  0
SECTION
  2
ENTITIES
  0
LWPOLYLINE
  5
100
100
AcDbEntity
  8
Layer_1
 62
7
100
AcDbPolyline
 90
5
 70
0
 10
353.171312
 20
247.822504
 30
0.0
 10
453.128372
 20
247.822504
 30
0.0
 10
453.128372
 20
245.970323
 30
0.0
 10
353.171312
 20
245.970323
 30
0.0
 10
353.171312
 20
247.822504
 30
0.0
  0
LWPOLYLINE
  5
101
100
AcDbEntity
  8
Layer_1
 62
7
100
AcDbPolyline
 90
5
 70
0
 10
353.171312
 20
235.885000
 30
0.0
 10
453.128372
 20
235.885000
 30
0.0
 10
453.128372
 20
234.032819
 30
0.0
 10
353.171312
 20
234.032819
 30
0.0
 10
353.171312
 20
235.885000
 30
0.0
  0
LWPOLYLINE
  5
102
100
AcDbEntity
  8
Layer_1
 62
7
100
AcDbPolyline
 90
5
 70
0
 10
353.214247
 20
223.861616
 30
0.0
 10
453.171307
 20
223.861616
 30
0.0
 10
453.171307
 20
222.009435
 30
0.0
 10
353.214247
 20
222.009435
 30
0.0
 10
353.214247
 20
223.861616
 30
0.0
  0
LWPOLYLINE
  5
103
100
AcDbEntity
  8
Layer_1
 62
7
100
AcDbPolyline
 90
5
 70
0
 10
353.171312
 20
211.838233
 30
0.0
 10
453.128372
 20
211.838233
 30
0.0
 10
453.128372
 20
209.986052
 30
0.0
 10
353.171312
 20
209.986052
 30
0.0
 10
353.171312
 20
211.838233
 30
0.0
  0
LWPOLYLINE
  5
104
100
AcDbEntity
  8
Layer_1
 62
7
100
AcDbPolyline
 90
5
 70
0
 10
353.171312
 20
199.857797
 30
0.0
 10
453.128372
 20
199.857797
 30
0.0
 10
453.128372
 20
198.005616
 30
0.0
 10
353.171312
 20
198.005616
 30
0.0
 10
353.171312
 20
199.857797
 30
0.0
  0
SPLINE
  5
105
100
AcDbEntity
  8
Layer_1
 62
7
100
AcDbSpline
 70
8
 71
3
 72
8
 73
4
 74
0
 40
0
 40
0
 40
0
 40
0
 40
1
 40
1
 40
1
 40
1
 10
408.621107
 20
209.824701
 30
0.0
 10
407.524302
 20
211.390616
 30
0.0
 10
403.063891
 20
211.626455
 30
0.0
 10
399.936575
 20
209.902800
 30
0.0
  0
SPLINE
  5
106
100
AcDbEntity
  8
Layer_1
 62
7
100
AcDbSpline
 70
8
 71
3
 72
8
 73
4
 74
0
 40
0
 40
0
 40
0
 40
0
 40
1
 40
1
 40
1
 40
1
 10
399.936575
 20
209.902800
 30
0.0
 10
396.230126
 20
207.859948
 30
0.0
 10
394.539639
 20
204.029272
 30
0.0
 10
396.156617
 20
201.343225
 30
0.0
  0
SPLINE
  5
107
100
AcDbEntity
  8
Layer_1
 62
7
100
AcDbSpline
 70
8
 71
3
 72
8
 73
4
 74
0
 40
0
 40
0
 40
0
 40
0
 40
1
 40
1
 40
1
 40
1
 10
396.156617
 20
201.343225
 30
0.0
 10
397.773599
 20
198.657178
 30
0.0
 10
402.087500
 20
198.128898
 30
0.0
 10
405.793948
 20
200.171750
 30
0.0
  0
SPLINE
  5
108
100
AcDbEntity
  8
Layer_1
 62
7
100
AcDbSpline
 70
8
 71
3
 72
8
 73
4
 74
0
 40
0
 40
0
 40
0
 40
0
 40
1
 40
1
 40
1
 40
1
 10
405.793948
 20
200.171750
 30
0.0
 10
408.018958
 20
201.398091
 30
0.0
 10
409.502036
 20
203.273090
 30
0.0
 10
409.995637
 20
205.154422
 30
0.0
  0
SPLINE
  5
109
100
AcDbEntity
  8
Layer_1
 62
7
100
AcDbSpline
 70
8
 71
3
 72
8
 73
4
 74
0
 40
0
 40
0
 40
0
 40
0
 40
1
 40
1
 40
1
 40
1
 10
409.995637
 20
205.154422
 30
0.0
 10
410.221780
 20
206.188459
 30
0.0
 10
410.089875
 20
206.724931
 30
0.0
 10
410.073736
 20
207.450513
 30
0.0
  0
LWPOLYLINE
  5
10a
100
AcDbEntity
  8
Layer_1
 62
7
100
AcDbPolyline
 90
2
 70
0
 10
408.621107
 20
247.077595
 30
0.0
 10
408.621107
 20
209.824701
 30
0.0
  0
SPLINE
  5
10b
100
AcDbEntity
  8
Layer_1
 62
7
100
AcDbSpline
 70
8
 71
3
 72
8
 73
4
 74
0
 40
0
 40
0
 40
0
 40
0
 40
1
 40
1
 40
1
 40
1
 10
410.073736
 20
233.769643
 30
0.0
 10
426.335173
 20
229.650304
 30
0.0
 10
418.830338
 20
215.370391
 30
0.0
 10
417.367583
 20
210.326280
 30
0.0
  0
SPLINE
  5
10c
100
AcDbEntity
  8
Layer_1
 62
7
100
AcDbSpline
 70
8
 71
3
 72
8
 73
4
 74
0
 40
0
 40
0
 40
0
 40
0
 40
1
 40
1
 40
1
 40
1
 10
417.367583
 20
210.326280
 30
0.0
 10
430.726912
 20
228.572915
 30
0.0
 10
410.255918
 20
236.015468
 30
0.0
 10
410.073736
 20
247.077595
 30
0.0
  0
LWPOLYLINE
  5
10d
100
AcDbEntity
  8
Layer_1
 62
7
100
AcDbPolyline
 90
2
 70
0
 10
410.073736
 20
207.450513
 30
0.0
 10
410.073736
 20
233.769643
 30
0.0
  0
SPLINE
  5
10e
100
AcDbEntity
  8
Layer_1
 62
7
100
AcDbSpline
 70
8
 71
3
 72
8
 73
4
 74
0
 40
0
 40
0
 40
0
 40
0
 40
1
 40
1
 40
1
 40
1
 10
-100.904486
 20
171.946439
 30
0.0
 10
-100.904486
 20
172.366324
 30
0.0
 10
-98.883504
 20
174.094069
 30
0.0
 10
-96.413415
 20
175.785864
 30
0.0
  0
SPLINE
  5
10f
100
AcDbEntity
  8
Layer_1
 62
7
100
AcDbSpline
 70
8
 71
3
 72
8
 73
4
 74
0
 40
0
 40
0
 40
0
 40
0
 40
1
 40
1
 40
1
 40
1
 10
-96.413415
 20
175.785864
 30
0.0
 10
-91.102733
 20
179.423219
 30
0.0
 10
-87.267437
 20
183.402814
 30
0.0
 10
-85.036702
 20
187.590616
 30
0.0
  0
SPLINE
  5
110
100
AcDbEntity
  8
Layer_1
 62
7
100
AcDbSpline
 70
8
 71
3
 72
8
 73
4
 74
0
 40
0
 40
0
 40
0
 40
0
 40
1
 40
1
 40
1
 40
1
 10
-85.036702
 20
187.590616
 30
0.0
 10
-79.921080
 20
197.194255
 30
0.0
 10
-81.541595
 20
207.207714
 30
0.0
 10
-88.359398
 20
208.122173
 30
0.0
  0
SPLINE
  5
111
100
AcDbEntity
  8
Layer_1
 62
7
100
AcDbSpline
 70
8
 71
3
 72
8
 73
4
 74
0
 40
0
 40
0
 40
0
 40
0
 40
1
 40
1
 40
1
 40
1
 10
-88.359398
 20
208.122173
 30
0.0
 10
-92.130310
 20
208.627958
 30
0.0
 10
-96.904486
 20
205.876456
 30
0.0
 10
-96.904486
 20
203.197378
 30
0.0
  0
SPLINE
  5
112
100
AcDbEntity
  8
Layer_1
 62
7
100
AcDbSpline
 70
8
 71
3
 72
8
 73
4
 74
0
 40
0
 40
0
 40
0
 40
0
 40
1
 40
1
 40
1
 40
1
 10
-96.904486
 20
203.197378
 30
0.0
 10
-96.904486
 20
202.203488
 30
0.0
 10
-96.650235
 20
202.123436
 30
0.0
 10
-93.885767
 20
202.246922
 30
0.0
  0
SPLINE
  5
113
100
AcDbEntity
  8
Layer_1
 62
7
100
AcDbSpline
 70
8
 71
3
 72
8
 73
4
 74
0
 40
0
 40
0
 40
0
 40
0
 40
1
 40
1
 40
1
 40
1
 10
-93.885767
 20
202.246922
 30
0.0
 10
-90.503304
 20
202.398013
 30
0.0
 10
-88.214940
 20
199.105571
 30
0.0
 10
-90.045387
 20
196.721479
 30
0.0
  0
SPLINE
  5
114
100
AcDbEntity
  8
Layer_1
 62
7
100
AcDbSpline
 70
8
 71
3
 72
8
 73
4
 74
0
 40
0
 40
0
 40
0
 40
0
 40
1
 40
1
 40
1
 40
1
 10
-90.045387
 20
196.721479
 30
0.0
 10
-92.937671
 20
192.954385
 30
0.0
 10
-99.904486
 20
195.118517
 30
0.0
 10
-99.904486
 20
199.784054
 30
0.0
  0
SPLINE
  5
115
100
AcDbEntity
  8
Layer_1
 62
7
100
AcDbSpline
 70
8
 71
3
 72
8
 73
4
 74
0
 40
0
 40
0
 40
0
 40
0
 40
1
 40
1
 40
1
 40
1
 10
-99.904486
 20
199.784054
 30
0.0
 10
-99.904486
 20
203.873106
 30
0.0
 10
-97.416118
 20
207.127385
 30
0.0
 10
-93.036470
 20
208.766021
 30
0.0
  0
SPLINE
  5
116
100
AcDbEntity
  8
Layer_1
 62
7
100
AcDbSpline
 70
8
 71
3
 72
8
 73
4
 74
0
 40
0
 40
0
 40
0
 40
0
 40
1
 40
1
 40
1
 40
1
 10
-93.036470
 20
208.766021
 30
0.0
 10
-83.663971
 20
212.272722
 30
0.0
 10
-74.742345
 20
205.808076
 30
0.0
 10
-75.523535
 20
196.076082
 30
0.0
  0
SPLINE
  5
117
100
AcDbEntity
  8
Layer_1
 62
7
100
AcDbSpline
 70
8
 71
3
 72
8
 73
4
 74
0
 40
0
 40
0
 40
0
 40
0
 40
1
 40
1
 40
1
 40
1
 10
-75.523535
 20
196.076082
 30
0.0
 10
-76.163825
 20
188.099409
 30
0.0
 10
-83.108886
 20
180.649734
 30
0.0
 10
-96.591458
 20
173.477409
 30
0.0
  0
SPLINE
  5
118
100
AcDbEntity
  8
Layer_1
 62
7
100
AcDbSpline
 70
8
 71
3
 72
8
 73
4
 74
0
 40
0
 40
0
 40
0
 40
0
 40
1
 40
1
 40
1
 40
1
 10
-96.591458
 20
173.477409
 30
0.0
 10
-99.790528
 20
171.775599
 30
0.0
 10
-100.904486
 20
171.380184
 30
0.0
 10
-100.904486
 20
171.946439
 30
0.0
  0
LWPOLYLINE
  5
119
100
AcDbEntity
  8
Layer_1
 62
7
100
AcDbPolyline
 90
2
 70
0
 10
410.073736
 20
247.077595
 30
0.0
 10
408.621107
 20
247.077595
 30
0.0
  0
SPLINE
  5
11a
100
AcDbEntity
  8
Layer_1
 62
7
100
AcDbSpline
 70
8
 71
3
 72
8
 73
4
 74
0
 40
0
 40
0
 40
0
 40
0
 40
1
 40
1
 40
1
 40
1
 10
-67.854075
 20
202.806559
 30
0.0
 10
-67.854075
 20
201.182908
 30
0.0
 10
-69.110475
 20
199.866678
 30
0.0
 10
-70.660325
 20
199.866678
 30
0.0
  0
SPLINE
  5
11b
100
AcDbEntity
  8
Layer_1
 62
7
100
AcDbSpline
 70
8
 71
3
 72
8
 73
4
 74
0
 40
0
 40
0
 40
0
 40
0
 40
1
 40
1
 40
1
 40
1
 10
-70.660325
 20
199.866678
 30
0.0
 10
-72.210174
 20
199.866678
 30
0.0
 10
-73.466574
 20
201.182908
 30
0.0
 10
-73.466574
 20
202.806559
 30
0.0
  0
SPLINE
  5
11c
100
AcDbEntity
  8
Layer_1
 62
7
100
AcDbSpline
 70
8
 71
3
 72
8
 73
4
 74
0
 40
0
 40
0
 40
0
 40
0
 40
1
 40
1
 40
1
 40
1
 10
-73.466574
 20
202.806559
 30
0.0
 10
-73.466574
 20
204.430211
 30
0.0
 10
-72.210174
 20
205.746440
 30
0.0
 10
-70.660325
 20
205.746440
 30
0.0
  0
SPLINE
  5
11d
100
AcDbEntity
  8
Layer_1
 62
7
100
AcDbSpline
 70
8
 71
3
 72
8
 73
4
 74
0
 40
0
 40
0
 40
0
 40
0
 40
1
 40
1
 40
1
 40
1
 10
-70.660325
 20
205.746440
 30
0.0
 10
-69.110475
 20
205.746440
 30
0.0
 10
-67.854075
 20
204.430211
 30
0.0
 10
-67.854075
 20
202.806559
 30
0.0
  0
LWPOLYLINE
  5
11e
100
AcDbEntity
  8
Layer_1
 62
7
100
AcDbPolyline
 90
2
 70
0
 10
-100.904486
 20
171.946439
 30
0.0
 10
-100.904486
 20
171.946439
 30
0.0
  0
SPLINE
  5
11f
100
AcDbEntity
  8
Layer_1
 62
7
100
AcDbSpline
 70
8
 71
3
 72
8
 73
4
 74
0
 40
0
 40
0
 40
0
 40
0
 40
1
 40
1
 40
1
 40
1
 10
-67.660325
 20
192.866678
 30
0.0
 10
-67.660325
 20
191.243027
 30
0.0
 10
-68.916725
 20
189.926798
 30
0.0
 10
-70.466575
 20
189.926798
 30
0.0
  0
SPLINE
  5
120
100
AcDbEntity
  8
Layer_1
 62
7
100
AcDbSpline
 70
8
 71
3
 72
8
 73
4
 74
0
 40
0
 40
0
 40
0
 40
0
 40
1
 40
1
 40
1
 40
1
 10
-70.466575
 20
189.926798
 30
0.0
 10
-72.016424
 20
189.926798
 30
0.0
 10
-73.272824
 20
191.243027
 30
0.0
 10
-73.272824
 20
192.866678
 30
0.0
  0
SPLINE
  5
121
100
AcDbEntity
  8
Layer_1
 62
7
100
AcDbSpline
 70
8
 71
3
 72
8
 73
4
 74
0
 40
0
 40
0
 40
0
 40
0
 40
1
 40
1
 40
1
 40
1
 10
-73.272824
 20
192.866678
 30
0.0
 10
-73.272824
 20
194.490330
 30
0.0
 10
-72.016424
 20
195.806559
 30
0.0
 10
-70.466575
 20
195.806559
 30
0.0
  0
SPLINE
  5
122
100
AcDbEntity
  8
Layer_1
 62
7
100
AcDbSpline
 70
8
 71
3
 72
8
 73
4
 74
0
 40
0
 40
0
 40
0
 40
0
 40
1
 40
1
 40
1
 40
1
 10
-70.466575
 20
195.806559
 30
0.0
 10
-68.916725
 20
195.806559
 30
0.0
 10
-67.660325
 20
194.490330
 30
0.0
 10
-67.660325
 20
192.866678
 30
0.0
  0
LWPOLYLINE
  5
123
100
AcDbEntity
  8
Layer_1
 62
7
100
AcDbPolyline
 90
2
 70
0
 10
-67.854075
 20
202.806559
 30
0.0
 10
-67.854075
 20
202.806559
 30
0.0
  0
LWPOLYLINE
  5
124
100
AcDbEntity
  8
Layer_1
 62
7
100
AcDbPolyline
 90
2
 70
0
 10
-67.660325
 20
192.866678
 30
0.0
 10
-67.660325
 20
192.866678
 30
0.0
  0
LWPOLYLINE
  5
125
100
AcDbEntity
  8
Layer_1
 62
7
100
AcDbPolyline
 90
5
 70
0
 10
-134.660323
 20
210.866678
 30
0.0
 10
-34.660326
 20
210.866678
 30
0.0
 10
-34.660326
 20
208.866678
 30
0.0
 10
-134.660323
 20
208.866678
 30
0.0
 10
-134.660323
 20
210.866678
 30
0.0
  0
LWPOLYLINE
  5
126
100
AcDbEntity
  8
Layer_1
 62
7
100
AcDbPolyline
 90
5
 70
0
 10
-134.660323
 20
199.164122
 30
0.0
 10
-34.660326
 20
199.164122
 30
0.0
 10
-34.660326
 20
197.164122
 30
0.0
 10
-134.660323
 20
197.164122
 30
0.0
 10
-134.660323
 20
199.164122
 30
0.0
  0
LWPOLYLINE
  5
127
100
AcDbEntity
  8
Layer_1
 62
7
100
AcDbPolyline
 90
5
 70
0
 10
-134.660323
 20
187.019930
 30
0.0
 10
-34.660326
 20
187.019930
 30
0.0
 10
-34.660326
 20
185.019930
 30
0.0
 10
-134.660323
 20
185.019930
 30
0.0
 10
-134.660323
 20
187.019930
 30
0.0
  0
LWPOLYLINE
  5
128
100
AcDbEntity
  8
Layer_1
 62
7
100
AcDbPolyline
 90
5
 70
0
 10
-134.660323
 20
175.366679
 30
0.0
 10
-34.660326
 20
175.366679
 30
0.0
 10
-34.660326
 20
173.366679
 30
0.0
 10
-134.660323
 20
173.366679
 30
0.0
 10
-134.660323
 20
175.366679
 30
0.0
  0
SPLINE
  5
129
100
AcDbEntity
  8
Layer_1
 62
7
100
AcDbSpline
 70
8
 71
3
 72
8
 73
4
 74
0
 40
0
 40
0
 40
0
 40
0
 40
1
 40
1
 40
1
 40
1
 10
151.104343
 20
203.489585
 30
0.0
 10
146.027874
 20
201.832721
 30
0.0
 10
141.832578
 20
199.036644
 30
0.0
 10
138.518067
 20
195.099390
 30
0.0
  0
SPLINE
  5
12a
100
AcDbEntity
  8
Layer_1
 62
7
100
AcDbSpline
 70
8
 71
3
 72
8
 73
4
 74
0
 40
0
 40
0
 40
0
 40
0
 40
1
 40
1
 40
1
 40
1
 10
138.518067
 20
195.099390
 30
0.0
 10
135.203167
 20
191.164094
 30
0.0
 10
133.183362
 20
186.864094
 30
0.0
 10
132.458265
 20
182.203310
 30
0.0
  0
SPLINE
  5
12b
100
AcDbEntity
  8
Layer_1
 62
7
100
AcDbSpline
 70
8
 71
3
 72
8
 73
4
 74
0
 40
0
 40
0
 40
0
 40
0
 40
1
 40
1
 40
1
 40
1
 10
132.458265
 20
182.203310
 30
0.0
 10
131.733166
 20
177.542526
 30
0.0
 10
132.328852
 20
172.932722
 30
0.0
 10
134.245127
 20
168.375861
 30
0.0
  0
SPLINE
  5
12c
100
AcDbEntity
  8
Layer_1
 62
7
100
AcDbSpline
 70
8
 71
3
 72
8
 73
4
 74
0
 40
0
 40
0
 40
0
 40
0
 40
1
 40
1
 40
1
 40
1
 10
134.245127
 20
168.375861
 30
0.0
 10
136.161402
 20
163.817035
 30
0.0
 10
139.761011
 20
160.140565
 30
0.0
 10
145.043559
 20
157.342527
 30
0.0
  0
SPLINE
  5
12d
100
AcDbEntity
  8
Layer_1
 62
7
100
AcDbSpline
 70
8
 71
3
 72
8
 73
4
 74
0
 40
0
 40
0
 40
0
 40
0
 40
1
 40
1
 40
1
 40
1
 10
145.043559
 20
157.342527
 30
0.0
 10
146.286697
 20
157.342527
 30
0.0
 10
147.063166
 20
156.824878
 30
0.0
 10
147.374932
 20
155.789585
 30
0.0
  0
SPLINE
  5
12e
100
AcDbEntity
  8
Layer_1
 62
7
100
AcDbSpline
 70
8
 71
3
 72
8
 73
4
 74
0
 40
0
 40
0
 40
0
 40
0
 40
1
 40
1
 40
1
 40
1
 10
147.374932
 20
155.789585
 30
0.0
 10
147.684736
 20
154.754289
 30
0.0
 10
147.218070
 20
154.236643
 30
0.0
 10
145.976893
 20
154.236643
 30
0.0
  0
SPLINE
  5
12f
100
AcDbEntity
  8
Layer_1
 62
7
100
AcDbSpline
 70
8
 71
3
 72
8
 73
4
 74
0
 40
0
 40
0
 40
0
 40
0
 40
1
 40
1
 40
1
 40
1
 10
145.976893
 20
154.236643
 30
0.0
 10
140.900421
 20
155.271938
 30
0.0
 10
136.446305
 20
157.395466
 30
0.0
 10
132.613756
 20
160.605270
 30
0.0
  0
SPLINE
  5
130
100
AcDbEntity
  8
Layer_1
 62
7
100
AcDbSpline
 70
8
 71
3
 72
8
 73
4
 74
0
 40
0
 40
0
 40
0
 40
0
 40
1
 40
1
 40
1
 40
1
 10
132.613756
 20
160.605270
 30
0.0
 10
125.466303
 20
166.511153
 30
0.0
 10
121.530226
 20
174.122918
 30
0.0
 10
120.805126
 20
183.446448
 30
0.0
  0
SPLINE
  5
131
100
AcDbEntity
  8
Layer_1
 62
7
100
AcDbSpline
 70
8
 71
3
 72
8
 73
4
 74
0
 40
0
 40
0
 40
0
 40
0
 40
1
 40
1
 40
1
 40
1
 10
120.805126
 20
183.446448
 30
0.0
 10
120.390813
 20
188.107233
 30
0.0
 10
120.831006
 20
192.613113
 30
0.0
 10
122.125912
 20
196.964094
 30
0.0
  0
SPLINE
  5
132
100
AcDbEntity
  8
Layer_1
 62
7
100
AcDbSpline
 70
8
 71
3
 72
8
 73
4
 74
0
 40
0
 40
0
 40
0
 40
0
 40
1
 40
1
 40
1
 40
1
 10
122.125912
 20
196.964094
 30
0.0
 10
123.420618
 20
201.315074
 30
0.0
 10
125.207480
 20
205.303309
 30
0.0
 10
127.486303
 20
208.928801
 30
0.0
  0
SPLINE
  5
133
100
AcDbEntity
  8
Layer_1
 62
7
100
AcDbSpline
 70
8
 71
3
 72
8
 73
4
 74
0
 40
0
 40
0
 40
0
 40
0
 40
1
 40
1
 40
1
 40
1
 10
127.486303
 20
208.928801
 30
0.0
 10
130.282970
 20
212.760173
 30
0.0
 10
133.597675
 20
216.075858
 30
0.0
 10
137.430423
 20
218.871938
 30
0.0
  0
SPLINE
  5
134
100
AcDbEntity
  8
Layer_1
 62
7
100
AcDbSpline
 70
8
 71
3
 72
8
 73
4
 74
0
 40
0
 40
0
 40
0
 40
0
 40
1
 40
1
 40
1
 40
1
 10
137.430423
 20
218.871938
 30
0.0
 10
137.637480
 20
219.079781
 30
0.0
 10
138.233167
 20
219.544488
 30
0.0
 10
139.217090
 20
220.269977
 30
0.0
  0
SPLINE
  5
135
100
AcDbEntity
  8
Layer_1
 62
7
100
AcDbSpline
 70
8
 71
3
 72
8
 73
4
 74
0
 40
0
 40
0
 40
0
 40
0
 40
1
 40
1
 40
1
 40
1
 10
139.217090
 20
220.269977
 30
0.0
 10
140.201207
 20
220.995469
 30
0.0
 10
141.159244
 20
221.668015
 30
0.0
 10
142.091599
 20
222.289584
 30
0.0
  0
SPLINE
  5
136
100
AcDbEntity
  8
Layer_1
 62
7
100
AcDbSpline
 70
8
 71
3
 72
8
 73
4
 74
0
 40
0
 40
0
 40
0
 40
0
 40
1
 40
1
 40
1
 40
1
 10
142.091599
 20
222.289584
 30
0.0
 10
143.023951
 20
222.911154
 30
0.0
 10
144.421990
 20
223.895468
 30
0.0
 10
146.286697
 20
225.242526
 30
0.0
  0
LWPOLYLINE
  5
137
100
AcDbEntity
  8
Layer_1
 62
7
100
AcDbPolyline
 90
5
 70
0
 10
-134.660323
 20
162.866679
 30
0.0
 10
-34.660326
 20
162.866679
 30
0.0
 10
-34.660326
 20
160.866679
 30
0.0
 10
-134.660323
 20
160.866679
 30
0.0
 10
-134.660323
 20
162.866679
 30
0.0
  0
SPLINE
  5
138
100
AcDbEntity
  8
Layer_1
 62
7
100
AcDbSpline
 70
8
 71
3
 72
8
 73
4
 74
0
 40
0
 40
0
 40
0
 40
0
 40
1
 40
1
 40
1
 40
1
 10
140.537873
 20
252.899390
 30
0.0
 10
135.462185
 20
248.652329
 30
0.0
 10
130.438460
 20
243.966055
 30
0.0
 10
125.466500
 20
238.838605
 30
0.0
  0
SPLINE
  5
139
100
AcDbEntity
  8
Layer_1
 62
7
100
AcDbSpline
 70
8
 71
3
 72
8
 73
4
 74
0
 40
0
 40
0
 40
0
 40
0
 40
1
 40
1
 40
1
 40
1
 10
125.466500
 20
238.838605
 30
0.0
 10
120.494343
 20
233.711155
 30
0.0
 10
115.988459
 20
228.297430
 30
0.0
 10
111.948657
 20
222.601350
 30
0.0
  0
SPLINE
  5
13a
100
AcDbEntity
  8
Layer_1
 62
7
100
AcDbSpline
 70
8
 71
3
 72
8
 73
4
 74
0
 40
0
 40
0
 40
0
 40
0
 40
1
 40
1
 40
1
 40
1
 10
111.948657
 20
222.601350
 30
0.0
 10
107.909050
 20
216.903311
 30
0.0
 10
104.671989
 20
210.869976
 30
0.0
 10
102.237675
 20
204.499388
 30
0.0
  0
SPLINE
  5
13b
100
AcDbEntity
  8
Layer_1
 62
7
100
AcDbSpline
 70
8
 71
3
 72
8
 73
4
 74
0
 40
0
 40
0
 40
0
 40
0
 40
1
 40
1
 40
1
 40
1
 10
102.237675
 20
204.499388
 30
0.0
 10
99.803560
 20
198.128800
 30
0.0
 10
98.586499
 20
191.422917
 30
0.0
 10
98.586499
 20
184.377821
 30
0.0
  0
SPLINE
  5
13c
100
AcDbEntity
  8
Layer_1
 62
7
100
AcDbSpline
 70
8
 71
3
 72
8
 73
4
 74
0
 40
0
 40
0
 40
0
 40
0
 40
1
 40
1
 40
1
 40
1
 10
98.586499
 20
184.377821
 30
0.0
 10
98.586499
 20
177.852330
 30
0.0
 10
99.958852
 20
171.715074
 30
0.0
 10
102.703952
 20
165.966055
 30
0.0
  0
SPLINE
  5
13d
100
AcDbEntity
  8
Layer_1
 62
7
100
AcDbSpline
 70
8
 71
3
 72
8
 73
4
 74
0
 40
0
 40
0
 40
0
 40
0
 40
1
 40
1
 40
1
 40
1
 10
102.703952
 20
165.966055
 30
0.0
 10
105.448854
 20
160.217036
 30
0.0
 10
109.100225
 20
155.218996
 30
0.0
 10
113.657871
 20
150.973897
 30
0.0
  0
SPLINE
  5
13e
100
AcDbEntity
  8
Layer_1
 62
7
100
AcDbSpline
 70
8
 71
3
 72
8
 73
4
 74
0
 40
0
 40
0
 40
0
 40
0
 40
1
 40
1
 40
1
 40
1
 10
113.657871
 20
150.973897
 30
0.0
 10
118.215520
 20
146.726839
 30
0.0
 10
123.472383
 20
143.385664
 30
0.0
 10
129.428460
 20
140.950369
 30
0.0
  0
SPLINE
  5
13f
100
AcDbEntity
  8
Layer_1
 62
7
100
AcDbSpline
 70
8
 71
3
 72
8
 73
4
 74
0
 40
0
 40
0
 40
0
 40
0
 40
1
 40
1
 40
1
 40
1
 10
129.428460
 20
140.950369
 30
0.0
 10
135.384540
 20
138.517035
 30
0.0
 10
141.418265
 20
137.299390
 30
0.0
 10
147.529832
 20
137.299390
 30
0.0
  0
SPLINE
  5
140
100
AcDbEntity
  8
Layer_1
 62
7
100
AcDbSpline
 70
8
 71
3
 72
8
 73
4
 74
0
 40
0
 40
0
 40
0
 40
0
 40
1
 40
1
 40
1
 40
1
 10
147.529832
 20
137.299390
 30
0.0
 10
147.737678
 20
137.299390
 30
0.0
 10
148.694538
 20
137.403309
 30
0.0
 10
150.404342
 20
137.611152
 30
0.0
  0
SPLINE
  5
141
100
AcDbEntity
  8
Layer_1
 62
7
100
AcDbSpline
 70
8
 71
3
 72
8
 73
4
 74
0
 40
0
 40
0
 40
0
 40
0
 40
1
 40
1
 40
1
 40
1
 10
150.404342
 20
137.611152
 30
0.0
 10
152.114148
 20
137.817036
 30
0.0
 10
153.925911
 20
138.075859
 30
0.0
 10
155.841598
 20
138.387624
 30
0.0
  0
SPLINE
  5
142
100
AcDbEntity
  8
Layer_1
 62
7
100
AcDbSpline
 70
8
 71
3
 72
8
 73
4
 74
0
 40
0
 40
0
 40
0
 40
0
 40
1
 40
1
 40
1
 40
1
 10
155.841598
 20
138.387624
 30
0.0
 10
157.759245
 20
138.697428
 30
0.0
 10
159.520029
 20
139.034684
 30
0.0
 10
161.125913
 20
139.397427
 30
0.0
  0
SPLINE
  5
143
100
AcDbEntity
  8
Layer_1
 62
7
100
AcDbSpline
 70
8
 71
3
 72
8
 73
4
 74
0
 40
0
 40
0
 40
0
 40
0
 40
1
 40
1
 40
1
 40
1
 10
161.125913
 20
139.397427
 30
0.0
 10
162.729833
 20
139.760173
 30
0.0
 10
163.533754
 20
140.148409
 30
0.0
 10
163.533754
 20
140.562132
 30
0.0
  0
LWPOLYLINE
  5
144
100
AcDbEntity
  8
Layer_1
 62
7
100
AcDbPolyline
 90
2
 70
0
 10
146.286697
 20
225.242526
 30
0.0
 10
140.537873
 20
252.899390
 30
0.0
  0
SPLINE
  5
145
100
AcDbEntity
  8
Layer_1
 62
7
100
AcDbSpline
 70
8
 71
3
 72
8
 73
4
 74
0
 40
0
 40
0
 40
0
 40
0
 40
1
 40
1
 40
1
 40
1
 10
162.600423
 20
144.913113
 30
0.0
 10
158.561205
 20
165.318996
 30
0.0
 10
154.727873
 20
184.844487
 30
0.0
 10
151.104343
 20
203.489585
 30
0.0
  0
LWPOLYLINE
  5
146
100
AcDbEntity
  8
Layer_1
 62
7
100
AcDbPolyline
 90
2
 70
0
 10
163.533754
 20
140.562132
 30
0.0
 10
162.600423
 20
144.913113
 30
0.0
  0
LWPOLYLINE
  5
147
100
AcDbEntity
  8
Layer_1
 62
7
100
AcDbPolyline
 90
2
 70
0
 10
151.104343
 20
203.489585
 30
0.0
 10
151.104343
 20
203.489585
 30
0.0
  0
SPLINE
  5
148
100
AcDbEntity
  8
Layer_1
 62
7
100
AcDbSpline
 70
8
 71
3
 72
8
 73
4
 74
0
 40
0
 40
0
 40
0
 40
0
 40
1
 40
1
 40
1
 40
1
 10
169.282776
 20
142.426840
 30
0.0
 10
176.637676
 20
145.224878
 30
0.0
 10
181.608264
 20
150.015075
 30
0.0
 10
184.198460
 20
156.799387
 30
0.0
  0
SPLINE
  5
149
100
AcDbEntity
  8
Layer_1
 62
7
100
AcDbSpline
 70
8
 71
3
 72
8
 73
4
 74
0
 40
0
 40
0
 40
0
 40
0
 40
1
 40
1
 40
1
 40
1
 10
184.198460
 20
156.799387
 30
0.0
 10
186.788656
 20
163.583702
 30
0.0
 10
187.382774
 20
170.471936
 30
0.0
 10
185.984735
 20
177.464093
 30
0.0
  0
SPLINE
  5
14a
100
AcDbEntity
  8
Layer_1
 62
7
100
AcDbSpline
 70
8
 71
3
 72
8
 73
4
 74
0
 40
0
 40
0
 40
0
 40
0
 40
1
 40
1
 40
1
 40
1
 10
185.984735
 20
177.464093
 30
0.0
 10
184.586697
 20
184.456251
 30
0.0
 10
181.298461
 20
190.646448
 30
0.0
 10
176.118068
 20
196.032721
 30
0.0
  0
SPLINE
  5
14b
100
AcDbEntity
  8
Layer_1
 62
7
100
AcDbSpline
 70
8
 71
3
 72
8
 73
4
 74
0
 40
0
 40
0
 40
0
 40
0
 40
1
 40
1
 40
1
 40
1
 10
176.118068
 20
196.032721
 30
0.0
 10
170.939638
 20
201.418997
 30
0.0
 10
164.414146
 20
204.111154
 30
0.0
 10
156.541597
 20
204.111154
 30
0.0
  0
LWPOLYLINE
  5
14c
100
AcDbEntity
  8
Layer_1
 62
7
100
AcDbPolyline
 90
2
 70
0
 10
156.541597
 20
204.111154
 30
0.0
 10
169.282776
 20
142.426840
 30
0.0
  0
SPLINE
  5
14d
100
AcDbEntity
  8
Layer_1
 62
7
100
AcDbSpline
 70
8
 71
3
 72
8
 73
4
 74
0
 40
0
 40
0
 40
0
 40
0
 40
1
 40
1
 40
1
 40
1
 10
140.227090
 20
287.236644
 30
0.0
 10
143.437678
 20
288.895468
 30
0.0
 10
146.416107
 20
291.379782
 30
0.0
 10
149.161206
 20
294.695468
 30
0.0
  0
SPLINE
  5
14e
100
AcDbEntity
  8
Layer_1
 62
7
100
AcDbSpline
 70
8
 71
3
 72
8
 73
4
 74
0
 40
0
 40
0
 40
0
 40
0
 40
1
 40
1
 40
1
 40
1
 10
149.161206
 20
294.695468
 30
0.0
 10
151.906303
 20
298.009193
 30
0.0
 10
154.443560
 20
301.558213
 30
0.0
 10
156.774933
 20
305.338605
 30
0.0
  0
SPLINE
  5
14f
100
AcDbEntity
  8
Layer_1
 62
7
100
AcDbSpline
 70
8
 71
3
 72
8
 73
4
 74
0
 40
0
 40
0
 40
0
 40
0
 40
1
 40
1
 40
1
 40
1
 10
156.774933
 20
305.338605
 30
0.0
 10
159.104344
 20
309.118997
 30
0.0
 10
161.125913
 20
312.977821
 30
0.0
 10
162.833756
 20
316.915076
 30
0.0
  0
SPLINE
  5
150
100
AcDbEntity
  8
Layer_1
 62
7
100
AcDbSpline
 70
8
 71
3
 72
8
 73
4
 74
0
 40
0
 40
0
 40
0
 40
0
 40
1
 40
1
 40
1
 40
1
 10
162.833756
 20
316.915076
 30
0.0
 10
164.543559
 20
320.850370
 30
0.0
 10
165.916108
 20
324.422919
 30
0.0
 10
166.951403
 20
327.634685
 30
0.0
  0
SPLINE
  5
151
100
AcDbEntity
  8
Layer_1
 62
7
100
AcDbSpline
 70
8
 71
3
 72
8
 73
4
 74
0
 40
0
 40
0
 40
0
 40
0
 40
1
 40
1
 40
1
 40
1
 10
166.951403
 20
327.634685
 30
0.0
 10
168.090619
 20
331.052331
 30
0.0
 10
168.867088
 20
334.885665
 30
0.0
 10
169.282776
 20
339.132723
 30
0.0
  0
SPLINE
  5
152
100
AcDbEntity
  8
Layer_1
 62
7
100
AcDbSpline
 70
8
 71
3
 72
8
 73
4
 74
0
 40
0
 40
0
 40
0
 40
0
 40
1
 40
1
 40
1
 40
1
 10
169.282776
 20
339.132723
 30
0.0
 10
169.696500
 20
343.379781
 30
0.0
 10
169.023950
 20
346.952330
 30
0.0
 10
167.263166
 20
349.854291
 30
0.0
  0
SPLINE
  5
153
100
AcDbEntity
  8
Layer_1
 62
7
100
AcDbSpline
 70
8
 71
3
 72
8
 73
4
 74
0
 40
0
 40
0
 40
0
 40
0
 40
1
 40
1
 40
1
 40
1
 10
167.263166
 20
349.854291
 30
0.0
 10
166.020030
 20
352.442526
 30
0.0
 10
164.388656
 20
353.944487
 30
0.0
 10
162.369048
 20
354.360175
 30
0.0
  0
SPLINE
  5
154
100
AcDbEntity
  8
Layer_1
 62
7
100
AcDbSpline
 70
8
 71
3
 72
8
 73
4
 74
0
 40
0
 40
0
 40
0
 40
0
 40
1
 40
1
 40
1
 40
1
 10
162.369048
 20
354.360175
 30
0.0
 10
160.347479
 20
354.773899
 30
0.0
 10
158.327872
 20
354.618998
 30
0.0
 10
156.308264
 20
353.893507
 30
0.0
  0
SPLINE
  5
155
100
AcDbEntity
  8
Layer_1
 62
7
100
AcDbSpline
 70
8
 71
3
 72
8
 73
4
 74
0
 40
0
 40
0
 40
0
 40
0
 40
1
 40
1
 40
1
 40
1
 10
156.308264
 20
353.893507
 30
0.0
 10
154.288657
 20
353.168018
 30
0.0
 10
152.372972
 20
352.003312
 30
0.0
 10
150.559245
 20
350.397428
 30
0.0
  0
SPLINE
  5
156
100
AcDbEntity
  8
Layer_1
 62
7
100
AcDbSpline
 70
8
 71
3
 72
8
 73
4
 74
0
 40
0
 40
0
 40
0
 40
0
 40
1
 40
1
 40
1
 40
1
 10
150.559245
 20
350.397428
 30
0.0
 10
148.747480
 20
348.791547
 30
0.0
 10
147.425912
 20
347.368018
 30
0.0
 10
146.598459
 20
346.124880
 30
0.0
  0
SPLINE
  5
157
100
AcDbEntity
  8
Layer_1
 62
7
100
AcDbSpline
 70
8
 71
3
 72
8
 73
4
 74
0
 40
0
 40
0
 40
0
 40
0
 40
1
 40
1
 40
1
 40
1
 10
146.598459
 20
346.124880
 30
0.0
 10
144.318070
 20
342.085665
 30
0.0
 10
142.323950
 20
337.579781
 30
0.0
 10
140.615520
 20
332.607234
 30
0.0
  0
SPLINE
  5
158
100
AcDbEntity
  8
Layer_1
 62
7
100
AcDbSpline
 70
8
 71
3
 72
8
 73
4
 74
0
 40
0
 40
0
 40
0
 40
0
 40
1
 40
1
 40
1
 40
1
 10
140.615520
 20
332.607234
 30
0.0
 10
138.906304
 20
327.634685
 30
0.0
 10
137.741011
 20
322.481743
 30
0.0
 10
137.119637
 20
317.146448
 30
0.0
  0
SPLINE
  5
159
100
AcDbEntity
  8
Layer_1
 62
7
100
AcDbSpline
 70
8
 71
3
 72
8
 73
4
 74
0
 40
0
 40
0
 40
0
 40
0
 40
1
 40
1
 40
1
 40
1
 10
137.119637
 20
317.146448
 30
0.0
 10
136.498068
 20
311.813115
 30
0.0
 10
136.420423
 20
306.685664
 30
0.0
 10
136.886501
 20
301.764095
 30
0.0
  0
SPLINE
  5
15a
100
AcDbEntity
  8
Layer_1
 62
7
100
AcDbSpline
 70
8
 71
3
 72
8
 73
4
 74
0
 40
0
 40
0
 40
0
 40
0
 40
1
 40
1
 40
1
 40
1
 10
136.886501
 20
301.764095
 30
0.0
 10
137.352577
 20
296.844488
 30
0.0
 10
138.466108
 20
292.001350
 30
0.0
 10
140.227090
 20
287.236644
 30
0.0
  0
LWPOLYLINE
  5
15b
100
AcDbEntity
  8
Layer_1
 62
7
100
AcDbPolyline
 90
2
 70
0
 10
156.541597
 20
204.111154
 30
0.0
 10
156.541597
 20
204.111154
 30
0.0
  0
SPLINE
  5
15c
100
AcDbEntity
  8
Layer_1
 62
7
100
AcDbSpline
 70
8
 71
3
 72
8
 73
4
 74
0
 40
0
 40
0
 40
0
 40
0
 40
1
 40
1
 40
1
 40
1
 10
135.565913
 20
282.420958
 30
0.0
 10
133.804931
 20
289.256252
 30
0.0
 10
132.251204
 20
295.964095
 30
0.0
 10
130.904539
 20
302.542527
 30
0.0
  0
SPLINE
  5
15d
100
AcDbEntity
  8
Layer_1
 62
7
100
AcDbSpline
 70
8
 71
3
 72
8
 73
4
 74
0
 40
0
 40
0
 40
0
 40
0
 40
1
 40
1
 40
1
 40
1
 10
130.904539
 20
302.542527
 30
0.0
 10
129.557873
 20
309.118997
 30
0.0
 10
128.884736
 20
315.877821
 30
0.0
 10
128.884736
 20
322.818997
 30
0.0
  0
SPLINE
  5
15e
100
AcDbEntity
  8
Layer_1
 62
7
100
AcDbSpline
 70
8
 71
3
 72
8
 73
4
 74
0
 40
0
 40
0
 40
0
 40
0
 40
1
 40
1
 40
1
 40
1
 10
128.884736
 20
322.818997
 30
0.0
 10
128.884736
 20
327.893508
 30
0.0
 10
129.247285
 20
333.462136
 30
0.0
 10
129.972381
 20
339.520959
 30
0.0
  0
SPLINE
  5
15f
100
AcDbEntity
  8
Layer_1
 62
7
100
AcDbSpline
 70
8
 71
3
 72
8
 73
4
 74
0
 40
0
 40
0
 40
0
 40
0
 40
1
 40
1
 40
1
 40
1
 10
129.972381
 20
339.520959
 30
0.0
 10
130.697283
 20
345.579782
 30
0.0
 10
132.018069
 20
351.485666
 30
0.0
 10
133.934344
 20
357.234685
 30
0.0
  0
SPLINE
  5
160
100
AcDbEntity
  8
Layer_1
 62
7
100
AcDbSpline
 70
8
 71
3
 72
8
 73
4
 74
0
 40
0
 40
0
 40
0
 40
0
 40
1
 40
1
 40
1
 40
1
 10
133.934344
 20
357.234685
 30
0.0
 10
135.850619
 20
362.983704
 30
0.0
 10
138.491990
 20
368.136644
 30
0.0
 10
141.858461
 20
372.693509
 30
0.0
  0
SPLINE
  5
161
100
AcDbEntity
  8
Layer_1
 62
7
100
AcDbSpline
 70
8
 71
3
 72
8
 73
4
 74
0
 40
0
 40
0
 40
0
 40
0
 40
1
 40
1
 40
1
 40
1
 10
141.858461
 20
372.693509
 30
0.0
 10
145.225911
 20
377.252332
 30
0.0
 10
149.704343
 20
380.566058
 30
0.0
 10
155.298462
 20
382.638605
 30
0.0
  0
SPLINE
  5
162
100
AcDbEntity
  8
Layer_1
 62
7
100
AcDbSpline
 70
8
 71
3
 72
8
 73
4
 74
0
 40
0
 40
0
 40
0
 40
0
 40
1
 40
1
 40
1
 40
1
 10
155.298462
 20
382.638605
 30
0.0
 10
155.816108
 20
382.844489
 30
0.0
 10
156.333754
 20
382.948409
 30
0.0
 10
156.851401
 20
382.948409
 30
0.0
  0
SPLINE
  5
163
100
AcDbEntity
  8
Layer_1
 62
7
100
AcDbSpline
 70
8
 71
3
 72
8
 73
4
 74
0
 40
0
 40
0
 40
0
 40
0
 40
1
 40
1
 40
1
 40
1
 10
156.851401
 20
382.948409
 30
0.0
 10
157.576893
 20
382.948409
 30
0.0
 10
158.431794
 20
382.534685
 30
0.0
 10
159.416107
 20
381.705273
 30
0.0
  0
SPLINE
  5
164
100
AcDbEntity
  8
Layer_1
 62
7
100
AcDbSpline
 70
8
 71
3
 72
8
 73
4
 74
0
 40
0
 40
0
 40
0
 40
0
 40
1
 40
1
 40
1
 40
1
 10
159.416107
 20
381.705273
 30
0.0
 10
160.400421
 20
380.877820
 30
0.0
 10
161.435717
 20
379.660175
 30
0.0
 10
162.523952
 20
378.054291
 30
0.0
  0
SPLINE
  5
165
100
AcDbEntity
  8
Layer_1
 62
7
100
AcDbSpline
 70
8
 71
3
 72
8
 73
4
 74
0
 40
0
 40
0
 40
0
 40
0
 40
1
 40
1
 40
1
 40
1
 10
162.523952
 20
378.054291
 30
0.0
 10
163.610225
 20
376.448410
 30
0.0
 10
164.569050
 20
374.791546
 30
0.0
 10
165.398461
 20
373.081742
 30
0.0
  0
SPLINE
  5
166
100
AcDbEntity
  8
Layer_1
 62
7
100
AcDbSpline
 70
8
 71
3
 72
8
 73
4
 74
0
 40
0
 40
0
 40
0
 40
0
 40
1
 40
1
 40
1
 40
1
 10
165.398461
 20
373.081742
 30
0.0
 10
166.225911
 20
371.373900
 30
0.0
 10
166.847480
 20
370.207232
 30
0.0
 10
167.263166
 20
369.585663
 30
0.0
  0
SPLINE
  5
167
100
AcDbEntity
  8
Layer_1
 62
7
100
AcDbSpline
 70
8
 71
3
 72
8
 73
4
 74
0
 40
0
 40
0
 40
0
 40
0
 40
1
 40
1
 40
1
 40
1
 10
167.263166
 20
369.585663
 30
0.0
 10
170.059246
 20
364.303313
 30
0.0
 10
172.104344
 20
358.683704
 30
0.0
 10
173.400421
 20
352.728801
 30
0.0
  0
SPLINE
  5
168
100
AcDbEntity
  8
Layer_1
 62
7
100
AcDbSpline
 70
8
 71
3
 72
8
 73
4
 74
0
 40
0
 40
0
 40
0
 40
0
 40
1
 40
1
 40
1
 40
1
 10
173.400421
 20
352.728801
 30
0.0
 10
174.694540
 20
346.771939
 30
0.0
 10
175.445519
 20
340.842527
 30
0.0
 10
175.653364
 20
334.938604
 30
0.0
  0
SPLINE
  5
169
100
AcDbEntity
  8
Layer_1
 62
7
100
AcDbSpline
 70
8
 71
3
 72
8
 73
4
 74
0
 40
0
 40
0
 40
0
 40
0
 40
1
 40
1
 40
1
 40
1
 10
175.653364
 20
334.938604
 30
0.0
 10
176.067088
 20
326.028801
 30
0.0
 10
175.574932
 20
317.224880
 30
0.0
 10
174.176893
 20
308.522919
 30
0.0
  0
SPLINE
  5
16a
100
AcDbEntity
  8
Layer_1
 62
7
100
AcDbSpline
 70
8
 71
3
 72
8
 73
4
 74
0
 40
0
 40
0
 40
0
 40
0
 40
1
 40
1
 40
1
 40
1
 10
174.176893
 20
308.522919
 30
0.0
 10
172.778852
 20
299.822919
 30
0.0
 10
169.955323
 20
291.328801
 30
0.0
 10
165.708265
 20
283.042527
 30
0.0
  0
SPLINE
  5
16b
100
AcDbEntity
  8
Layer_1
 62
7
100
AcDbSpline
 70
8
 71
3
 72
8
 73
4
 74
0
 40
0
 40
0
 40
0
 40
0
 40
1
 40
1
 40
1
 40
1
 10
165.708265
 20
283.042527
 30
0.0
 10
164.259246
 20
280.556252
 30
0.0
 10
162.782775
 20
278.044488
 30
0.0
 10
161.280814
 20
275.507232
 30
0.0
  0
SPLINE
  5
16c
100
AcDbEntity
  8
Layer_1
 62
7
100
AcDbSpline
 70
8
 71
3
 72
8
 73
4
 74
0
 40
0
 40
0
 40
0
 40
0
 40
1
 40
1
 40
1
 40
1
 10
161.280814
 20
275.507232
 30
0.0
 10
159.778852
 20
272.968017
 30
0.0
 10
157.992578
 20
270.509193
 30
0.0
 10
155.920031
 20
268.126839
 30
0.0
  0
SPLINE
  5
16d
100
AcDbEntity
  8
Layer_1
 62
7
100
AcDbSpline
 70
8
 71
3
 72
8
 73
4
 74
0
 40
0
 40
0
 40
0
 40
0
 40
1
 40
1
 40
1
 40
1
 10
155.920031
 20
268.126839
 30
0.0
 10
155.506304
 20
267.711154
 30
0.0
 10
154.755322
 20
266.960172
 30
0.0
 10
153.667087
 20
265.873899
 30
0.0
  0
SPLINE
  5
16e
100
AcDbEntity
  8
Layer_1
 62
7
100
AcDbSpline
 70
8
 71
3
 72
8
 73
4
 74
0
 40
0
 40
0
 40
0
 40
0
 40
1
 40
1
 40
1
 40
1
 10
153.667087
 20
265.873899
 30
0.0
 10
152.578853
 20
264.785664
 30
0.0
 10
151.465128
 20
263.671939
 30
0.0
 10
150.325912
 20
262.532724
 30
0.0
  0
SPLINE
  5
16f
100
AcDbEntity
  8
Layer_1
 62
7
100
AcDbSpline
 70
8
 71
3
 72
8
 73
4
 74
0
 40
0
 40
0
 40
0
 40
0
 40
1
 40
1
 40
1
 40
1
 10
150.325912
 20
262.532724
 30
0.0
 10
149.186697
 20
261.393508
 30
0.0
 10
148.176892
 20
260.330761
 30
0.0
 10
147.296499
 20
259.348407
 30
0.0
  0
SPLINE
  5
170
100
AcDbEntity
  8
Layer_1
 62
7
100
AcDbSpline
 70
8
 71
3
 72
8
 73
4
 74
0
 40
0
 40
0
 40
0
 40
0
 40
1
 40
1
 40
1
 40
1
 10
147.296499
 20
259.348407
 30
0.0
 10
146.416107
 20
258.364095
 30
0.0
 10
145.976893
 20
257.768017
 30
0.0
 10
145.976893
 20
257.560174
 30
0.0
  0
LWPOLYLINE
  5
171
100
AcDbEntity
  8
Layer_1
 62
7
100
AcDbPolyline
 90
2
 70
0
 10
140.227090
 20
287.236644
 30
0.0
 10
140.227090
 20
287.236644
 30
0.0
  0
SPLINE
  5
172
100
AcDbEntity
  8
Layer_1
 62
7
100
AcDbSpline
 70
8
 71
3
 72
8
 73
4
 74
0
 40
0
 40
0
 40
0
 40
0
 40
1
 40
1
 40
1
 40
1
 10
152.345520
 20
226.485664
 30
0.0
 10
152.386696
 20
226.281742
 30
0.0
 10
155.531795
 20
226.485664
 30
0.0
 10
155.531795
 20
226.485664
 30
0.0
  0
SPLINE
  5
173
100
AcDbEntity
  8
Layer_1
 62
7
100
AcDbSpline
 70
8
 71
3
 72
8
 73
4
 74
0
 40
0
 40
0
 40
0
 40
0
 40
1
 40
1
 40
1
 40
1
 10
155.531795
 20
226.485664
 30
0.0
 10
161.610226
 20
226.409194
 30
0.0
 10
168.045519
 20
225.424879
 30
0.0
 10
173.633754
 20
223.222919
 30
0.0
  0
SPLINE
  5
174
100
AcDbEntity
  8
Layer_1
 62
7
100
AcDbSpline
 70
8
 71
3
 72
8
 73
4
 74
0
 40
0
 40
0
 40
0
 40
0
 40
1
 40
1
 40
1
 40
1
 10
173.633754
 20
223.222919
 30
0.0
 10
179.020030
 20
220.736643
 30
0.0
 10
183.655324
 20
217.318996
 30
0.0
 10
187.539638
 20
212.968016
 30
0.0
  0
SPLINE
  5
175
100
AcDbEntity
  8
Layer_1
 62
7
100
AcDbSpline
 70
8
 71
3
 72
8
 73
4
 74
0
 40
0
 40
0
 40
0
 40
0
 40
1
 40
1
 40
1
 40
1
 10
187.539638
 20
212.968016
 30
0.0
 10
191.423950
 20
208.617035
 30
0.0
 10
194.529834
 20
203.722918
 30
0.0
 10
196.861207
 20
198.285664
 30
0.0
  0
SPLINE
  5
176
100
AcDbEntity
  8
Layer_1
 62
7
100
AcDbSpline
 70
8
 71
3
 72
8
 73
4
 74
0
 40
0
 40
0
 40
0
 40
0
 40
1
 40
1
 40
1
 40
1
 10
196.861207
 20
198.285664
 30
0.0
 10
199.192580
 20
192.846446
 30
0.0
 10
200.357286
 20
187.330760
 30
0.0
 10
200.357286
 20
181.736644
 30
0.0
  0
SPLINE
  5
177
100
AcDbEntity
  8
Layer_1
 62
7
100
AcDbSpline
 70
8
 71
3
 72
8
 73
4
 74
0
 40
0
 40
0
 40
0
 40
0
 40
1
 40
1
 40
1
 40
1
 10
200.357286
 20
181.736644
 30
0.0
 10
200.357286
 20
176.144487
 30
0.0
 10
199.527874
 20
170.446449
 30
0.0
 10
197.871009
 20
164.646446
 30
0.0
  0
SPLINE
  5
178
100
AcDbEntity
  8
Layer_1
 62
7
100
AcDbSpline
 70
8
 71
3
 72
8
 73
4
 74
0
 40
0
 40
0
 40
0
 40
0
 40
1
 40
1
 40
1
 40
1
 10
197.871009
 20
164.646446
 30
0.0
 10
193.623952
 20
153.666055
 30
0.0
 10
186.839637
 20
145.534682
 30
0.0
 10
177.518068
 20
140.252329
 30
0.0
  0
SPLINE
  5
179
100
AcDbEntity
  8
Layer_1
 62
7
100
AcDbSpline
 70
8
 71
3
 72
8
 73
4
 74
0
 40
0
 40
0
 40
0
 40
0
 40
1
 40
1
 40
1
 40
1
 10
177.518068
 20
140.252329
 30
0.0
 10
176.480814
 20
139.630760
 30
0.0
 10
175.004343
 20
138.930761
 30
0.0
 10
173.088658
 20
138.154291
 30
0.0
  0
SPLINE
  5
17a
100
AcDbEntity
  8
Layer_1
 62
7
100
AcDbSpline
 70
8
 71
3
 72
8
 73
4
 74
0
 40
0
 40
0
 40
0
 40
0
 40
1
 40
1
 40
1
 40
1
 10
173.088658
 20
138.154291
 30
0.0
 10
171.172971
 20
137.377819
 30
0.0
 10
170.421991
 20
136.160171
 30
0.0
 10
170.835715
 20
134.503310
 30
0.0
  0
SPLINE
  5
17b
100
AcDbEntity
  8
Layer_1
 62
7
100
AcDbSpline
 70
8
 71
3
 72
8
 73
4
 74
0
 40
0
 40
0
 40
0
 40
0
 40
1
 40
1
 40
1
 40
1
 10
170.835715
 20
134.503310
 30
0.0
 10
173.321991
 20
123.217034
 30
0.0
 10
175.004343
 20
115.452330
 30
0.0
 10
175.886697
 20
111.197427
 30
0.0
  0
SPLINE
  5
17c
100
AcDbEntity
  8
Layer_1
 62
7
100
AcDbSpline
 70
8
 71
3
 72
8
 73
4
 74
0
 40
0
 40
0
 40
0
 40
0
 40
1
 40
1
 40
1
 40
1
 10
175.886697
 20
111.197427
 30
0.0
 10
176.767089
 20
106.942526
 30
0.0
 10
177.414149
 20
101.452330
 30
0.0
 10
177.827872
 20
94.726839
 30
0.0
  0
SPLINE
  5
17d
100
AcDbEntity
  8
Layer_1
 62
7
100
AcDbSpline
 70
8
 71
3
 72
8
 73
4
 74
0
 40
0
 40
0
 40
0
 40
0
 40
1
 40
1
 40
1
 40
1
 10
177.827872
 20
94.726839
 30
0.0
 10
178.241599
 20
88.295466
 30
0.0
 10
177.127874
 20
82.511152
 30
0.0
 10
174.486697
 20
77.334683
 30
0.0
  0
SPLINE
  5
17e
100
AcDbEntity
  8
Layer_1
 62
7
100
AcDbSpline
 70
8
 71
3
 72
8
 73
4
 74
0
 40
0
 40
0
 40
0
 40
0
 40
1
 40
1
 40
1
 40
1
 10
174.486697
 20
77.334683
 30
0.0
 10
171.845520
 20
72.138605
 30
0.0
 10
168.298461
 20
67.922916
 30
0.0
 10
163.843558
 20
64.668016
 30
0.0
  0
SPLINE
  5
17f
100
AcDbEntity
  8
Layer_1
 62
7
100
AcDbSpline
 70
8
 71
3
 72
8
 73
4
 74
0
 40
0
 40
0
 40
0
 40
0
 40
1
 40
1
 40
1
 40
1
 10
163.843558
 20
64.668016
 30
0.0
 10
159.390619
 20
61.393505
 30
0.0
 10
155.323952
 20
59.491544
 30
0.0
 10
151.647480
 20
58.903308
 30
0.0
  0
SPLINE
  5
180
100
AcDbEntity
  8
Layer_1
 62
7
100
AcDbSpline
 70
8
 71
3
 72
8
 73
4
 74
0
 40
0
 40
0
 40
0
 40
0
 40
1
 40
1
 40
1
 40
1
 10
151.647480
 20
58.903308
 30
0.0
 10
147.969049
 20
58.334681
 30
0.0
 10
145.457285
 20
58.060172
 30
0.0
 10
144.112186
 20
58.060172
 30
0.0
  0
SPLINE
  5
181
100
AcDbEntity
  8
Layer_1
 62
7
100
AcDbSpline
 70
8
 71
3
 72
8
 73
4
 74
0
 40
0
 40
0
 40
0
 40
0
 40
1
 40
1
 40
1
 40
1
 10
144.112186
 20
58.060172
 30
0.0
 10
139.450225
 20
58.060172
 30
0.0
 10
134.892579
 20
58.942526
 30
0.0
 10
130.438460
 20
60.707230
 30
0.0
  0
SPLINE
  5
182
100
AcDbEntity
  8
Layer_1
 62
7
100
AcDbSpline
 70
8
 71
3
 72
8
 73
4
 74
0
 40
0
 40
0
 40
0
 40
0
 40
1
 40
1
 40
1
 40
1
 10
130.438460
 20
60.707230
 30
0.0
 10
124.948462
 20
62.766056
 30
0.0
 10
120.339048
 20
65.922917
 30
0.0
 10
116.610028
 20
70.177818
 30
0.0
  0
SPLINE
  5
183
100
AcDbEntity
  8
Layer_1
 62
7
100
AcDbSpline
 70
8
 71
3
 72
8
 73
4
 74
0
 40
0
 40
0
 40
0
 40
0
 40
1
 40
1
 40
1
 40
1
 10
116.610028
 20
70.177818
 30
0.0
 10
112.881009
 20
74.432722
 30
0.0
 10
111.016500
 20
79.609191
 30
0.0
 10
111.016500
 20
85.707231
 30
0.0
  0
SPLINE
  5
184
100
AcDbEntity
  8
Layer_1
 62
7
100
AcDbSpline
 70
8
 71
3
 72
8
 73
4
 74
0
 40
0
 40
0
 40
0
 40
0
 40
1
 40
1
 40
1
 40
1
 10
111.016500
 20
85.707231
 30
0.0
 10
111.016500
 20
89.550370
 30
0.0
 10
112.130030
 20
93.491544
 30
0.0
 10
114.357088
 20
97.530762
 30
0.0
  0
SPLINE
  5
185
100
AcDbEntity
  8
Layer_1
 62
7
100
AcDbSpline
 70
8
 71
3
 72
8
 73
4
 74
0
 40
0
 40
0
 40
0
 40
0
 40
1
 40
1
 40
1
 40
1
 10
114.357088
 20
97.530762
 30
0.0
 10
116.584146
 20
101.569977
 30
0.0
 10
119.510421
 20
104.471938
 30
0.0
 10
123.135715
 20
106.217034
 30
0.0
  0
SPLINE
  5
186
100
AcDbEntity
  8
Layer_1
 62
7
100
AcDbSpline
 70
8
 71
3
 72
8
 73
4
 74
0
 40
0
 40
0
 40
0
 40
0
 40
1
 40
1
 40
1
 40
1
 10
123.135715
 20
106.217034
 30
0.0
 10
127.175520
 20
108.295465
 30
0.0
 10
130.826891
 20
108.864095
 30
0.0
 10
134.089834
 20
107.942527
 30
0.0
  0
SPLINE
  5
187
100
AcDbEntity
  8
Layer_1
 62
7
100
AcDbSpline
 70
8
 71
3
 72
8
 73
4
 74
0
 40
0
 40
0
 40
0
 40
0
 40
1
 40
1
 40
1
 40
1
 10
134.089834
 20
107.942527
 30
0.0
 10
137.352577
 20
107.001350
 30
0.0
 10
140.045717
 20
105.236642
 30
0.0
 10
142.169244
 20
102.648408
 30
0.0
  0
SPLINE
  5
188
100
AcDbEntity
  8
Layer_1
 62
7
100
AcDbSpline
 70
8
 71
3
 72
8
 73
4
 74
0
 40
0
 40
0
 40
0
 40
0
 40
1
 40
1
 40
1
 40
1
 10
142.169244
 20
102.648408
 30
0.0
 10
144.292580
 20
100.060173
 30
0.0
 10
145.769048
 20
96.922917
 30
0.0
 10
146.598459
 20
93.256250
 30
0.0
  0
SPLINE
  5
189
100
AcDbEntity
  8
Layer_1
 62
7
100
AcDbSpline
 70
8
 71
3
 72
8
 73
4
 74
0
 40
0
 40
0
 40
0
 40
0
 40
1
 40
1
 40
1
 40
1
 10
146.598459
 20
93.256250
 30
0.0
 10
147.425912
 20
89.569976
 30
0.0
 10
147.374932
 20
86.138605
 30
0.0
 10
146.441597
 20
82.922917
 30
0.0
  0
SPLINE
  5
18a
100
AcDbEntity
  8
Layer_1
 62
7
100
AcDbSpline
 70
8
 71
3
 72
8
 73
4
 74
0
 40
0
 40
0
 40
0
 40
0
 40
1
 40
1
 40
1
 40
1
 10
146.441597
 20
82.922917
 30
0.0
 10
145.510225
 20
79.707232
 30
0.0
 10
143.620030
 20
76.981741
 30
0.0
 10
140.771011
 20
74.766054
 30
0.0
  0
SPLINE
  5
18b
100
AcDbEntity
  8
Layer_1
 62
7
100
AcDbSpline
 70
8
 71
3
 72
8
 73
4
 74
0
 40
0
 40
0
 40
0
 40
0
 40
1
 40
1
 40
1
 40
1
 10
140.771011
 20
74.766054
 30
0.0
 10
137.922381
 20
72.530761
 30
0.0
 10
133.960227
 20
71.530760
 30
0.0
 10
128.884736
 20
71.726840
 30
0.0
  0
SPLINE
  5
18c
100
AcDbEntity
  8
Layer_1
 62
7
100
AcDbSpline
 70
8
 71
3
 72
8
 73
4
 74
0
 40
0
 40
0
 40
0
 40
0
 40
1
 40
1
 40
1
 40
1
 10
128.884736
 20
71.726840
 30
0.0
 10
130.956304
 20
68.001348
 30
0.0
 10
133.856696
 20
65.648408
 30
0.0
 10
137.585715
 20
64.668016
 30
0.0
  0
SPLINE
  5
18d
100
AcDbEntity
  8
Layer_1
 62
7
100
AcDbSpline
 70
8
 71
3
 72
8
 73
4
 74
0
 40
0
 40
0
 40
0
 40
0
 40
1
 40
1
 40
1
 40
1
 10
137.585715
 20
64.668016
 30
0.0
 10
141.314734
 20
63.668015
 30
0.0
 10
145.147482
 20
63.609192
 30
0.0
 10
149.082774
 20
64.432722
 30
0.0
  0
SPLINE
  5
18e
100
AcDbEntity
  8
Layer_1
 62
7
100
AcDbSpline
 70
8
 71
3
 72
8
 73
4
 74
0
 40
0
 40
0
 40
0
 40
0
 40
1
 40
1
 40
1
 40
1
 10
149.082774
 20
64.432722
 30
0.0
 10
153.020028
 20
65.256252
 30
0.0
 10
156.721991
 20
66.785662
 30
0.0
 10
160.192579
 20
69.020955
 30
0.0
  0
SPLINE
  5
18f
100
AcDbEntity
  8
Layer_1
 62
7
100
AcDbSpline
 70
8
 71
3
 72
8
 73
4
 74
0
 40
0
 40
0
 40
0
 40
0
 40
1
 40
1
 40
1
 40
1
 10
160.192579
 20
69.020955
 30
0.0
 10
163.663167
 20
71.236642
 30
0.0
 10
166.382773
 20
73.648406
 30
0.0
 10
168.349442
 20
76.236644
 30
0.0
  0
SPLINE
  5
190
100
AcDbEntity
  8
Layer_1
 62
7
100
AcDbSpline
 70
8
 71
3
 72
8
 73
4
 74
0
 40
0
 40
0
 40
0
 40
0
 40
1
 40
1
 40
1
 40
1
 10
168.349442
 20
76.236644
 30
0.0
 10
169.592580
 20
78.099389
 30
0.0
 10
170.525911
 20
80.530759
 30
0.0
 10
171.147480
 20
83.530762
 30
0.0
  0
SPLINE
  5
191
100
AcDbEntity
  8
Layer_1
 62
7
100
AcDbSpline
 70
8
 71
3
 72
8
 73
4
 74
0
 40
0
 40
0
 40
0
 40
0
 40
1
 40
1
 40
1
 40
1
 10
171.147480
 20
83.530762
 30
0.0
 10
171.769049
 20
86.550367
 30
0.0
 10
172.131795
 20
89.668014
 30
0.0
 10
172.233754
 20
92.942526
 30
0.0
  0
SPLINE
  5
192
100
AcDbEntity
  8
Layer_1
 62
7
100
AcDbSpline
 70
8
 71
3
 72
8
 73
4
 74
0
 40
0
 40
0
 40
0
 40
0
 40
1
 40
1
 40
1
 40
1
 10
172.233754
 20
92.942526
 30
0.0
 10
172.337676
 20
96.197428
 30
0.0
 10
172.233754
 20
98.746448
 30
0.0
 10
171.923950
 20
100.550368
 30
0.0
  0
SPLINE
  5
193
100
AcDbEntity
  8
Layer_1
 62
7
100
AcDbSpline
 70
8
 71
3
 72
8
 73
4
 74
0
 40
0
 40
0
 40
0
 40
0
 40
1
 40
1
 40
1
 40
1
 10
171.923950
 20
100.550368
 30
0.0
 10
171.612187
 20
102.373898
 30
0.0
 10
171.094538
 20
105.197427
 30
0.0
 10
170.369049
 20
109.020957
 30
0.0
  0
SPLINE
  5
194
100
AcDbEntity
  8
Layer_1
 62
7
100
AcDbSpline
 70
8
 71
3
 72
8
 73
4
 74
0
 40
0
 40
0
 40
0
 40
0
 40
1
 40
1
 40
1
 40
1
 10
170.369049
 20
109.020957
 30
0.0
 10
167.263166
 20
121.550368
 30
0.0
 10
165.294539
 20
129.432722
 30
0.0
 10
164.465127
 20
132.648407
 30
0.0
  0
SPLINE
  5
195
100
AcDbEntity
  8
Layer_1
 62
7
100
AcDbSpline
 70
8
 71
3
 72
8
 73
4
 74
0
 40
0
 40
0
 40
0
 40
0
 40
1
 40
1
 40
1
 40
1
 10
164.465127
 20
132.648407
 30
0.0
 10
164.051403
 20
133.673898
 30
0.0
 10
162.937675
 20
134.011154
 30
0.0
 10
161.125913
 20
133.648408
 30
0.0
  0
SPLINE
  5
196
100
AcDbEntity
  8
Layer_1
 62
7
100
AcDbSpline
 70
8
 71
3
 72
8
 73
4
 74
0
 40
0
 40
0
 40
0
 40
0
 40
1
 40
1
 40
1
 40
1
 10
161.125913
 20
133.648408
 30
0.0
 10
159.312187
 20
133.285662
 30
0.0
 10
157.784735
 20
132.948409
 30
0.0
 10
156.541597
 20
132.648407
 30
0.0
  0
SPLINE
  5
197
100
AcDbEntity
  8
Layer_1
 62
7
100
AcDbSpline
 70
8
 71
3
 72
8
 73
4
 74
0
 40
0
 40
0
 40
0
 40
0
 40
1
 40
1
 40
1
 40
1
 10
156.541597
 20
132.648407
 30
0.0
 10
147.633755
 20
131.491544
 30
0.0
 10
140.175324
 20
132.020956
 30
0.0
 10
134.167479
 20
134.191544
 30
0.0
  0
SPLINE
  5
198
100
AcDbEntity
  8
Layer_1
 62
7
100
AcDbSpline
 70
8
 71
3
 72
8
 73
4
 74
0
 40
0
 40
0
 40
0
 40
0
 40
1
 40
1
 40
1
 40
1
 10
134.167479
 20
134.191544
 30
0.0
 10
124.844931
 20
136.677821
 30
0.0
 10
116.635911
 20
141.107231
 30
0.0
 10
109.540421
 20
147.477819
 30
0.0
  0
SPLINE
  5
199
100
AcDbEntity
  8
Layer_1
 62
7
100
AcDbSpline
 70
8
 71
3
 72
8
 73
4
 74
0
 40
0
 40
0
 40
0
 40
0
 40
1
 40
1
 40
1
 40
1
 10
109.540421
 20
147.477819
 30
0.0
 10
102.444931
 20
153.846448
 30
0.0
 10
96.747872
 20
161.564094
 30
0.0
 10
92.449049
 20
170.628801
 30
0.0
  0
SPLINE
  5
19a
100
AcDbEntity
  8
Layer_1
 62
7
100
AcDbSpline
 70
8
 71
3
 72
8
 73
4
 74
0
 40
0
 40
0
 40
0
 40
0
 40
1
 40
1
 40
1
 40
1
 10
92.449049
 20
170.628801
 30
0.0
 10
88.150421
 20
179.691546
 30
0.0
 10
86.001011
 20
186.579781
 30
0.0
 10
86.001011
 20
191.293507
 30
0.0
  0
SPLINE
  5
19b
100
AcDbEntity
  8
Layer_1
 62
7
100
AcDbSpline
 70
8
 71
3
 72
8
 73
4
 74
0
 40
0
 40
0
 40
0
 40
0
 40
1
 40
1
 40
1
 40
1
 10
86.001011
 20
191.293507
 30
0.0
 10
86.001011
 20
196.005272
 30
0.0
 10
86.001011
 20
198.983702
 30
0.0
 10
86.001011
 20
200.226840
 30
0.0
  0
SPLINE
  5
19c
100
AcDbEntity
  8
Layer_1
 62
7
100
AcDbSpline
 70
8
 71
3
 72
8
 73
4
 74
0
 40
0
 40
0
 40
0
 40
0
 40
1
 40
1
 40
1
 40
1
 10
86.001011
 20
200.226840
 30
0.0
 10
86.001011
 20
208.617035
 30
0.0
 10
87.451207
 20
216.489585
 30
0.0
 10
90.351599
 20
223.844488
 30
0.0
  0
SPLINE
  5
19d
100
AcDbEntity
  8
Layer_1
 62
7
100
AcDbSpline
 70
8
 71
3
 72
8
 73
4
 74
0
 40
0
 40
0
 40
0
 40
0
 40
1
 40
1
 40
1
 40
1
 10
90.351599
 20
223.844488
 30
0.0
 10
95.841402
 20
235.342526
 30
0.0
 10
102.341401
 20
245.907233
 30
0.0
 10
109.851207
 20
255.540566
 30
0.0
  0
SPLINE
  5
19e
100
AcDbEntity
  8
Layer_1
 62
7
100
AcDbSpline
 70
8
 71
3
 72
8
 73
4
 74
0
 40
0
 40
0
 40
0
 40
0
 40
1
 40
1
 40
1
 40
1
 10
109.851207
 20
255.540566
 30
0.0
 10
117.361010
 20
265.173900
 30
0.0
 10
125.932579
 20
274.134684
 30
0.0
 10
135.565913
 20
282.420958
 30
0.0
  0
LWPOLYLINE
  5
19f
100
AcDbEntity
  8
Layer_1
 62
7
100
AcDbPolyline
 90
2
 70
0
 10
145.976893
 20
257.560174
 30
0.0
 10
152.345520
 20
226.485664
 30
0.0
  0
LWPOLYLINE
  5
1a0
100
AcDbEntity
  8
Layer_1
 62
7
100
AcDbPolyline
 90
2
 70
0
 10
135.565913
 20
282.420958
 30
0.0
 10
135.565913
 20
282.420958
 30
0.0
  0
LWPOLYLINE
  5
1a1
100
AcDbEntity
  8
Layer_1
 62
7
100
AcDbPolyline
 90
5
 70
0
 10
352.449412
 20
280.073604
 30
0.0
 10
452.449413
 20
280.073604
 30
0.0
 10
452.449413
 20
278.163877
 30
0.0
 10
352.449412
 20
278.163877
 30
0.0
 10
352.449412
 20
280.073604
 30
0.0
  0
LWPOLYLINE
  5
1a2
100
AcDbEntity
  8
Layer_1
 62
7
100
AcDbPolyline
 90
5
 70
0
 10
352.449412
 20
292.117728
 30
0.0
 10
452.449413
 20
292.117728
 30
0.0
 10
452.449413
 20
290.208001
 30
0.0
 10
352.449412
 20
290.208001
 30
0.0
 10
352.449412
 20
292.117728
 30
0.0
  0
LWPOLYLINE
  5
1a3
100
AcDbEntity
  8
Layer_1
 62
7
100
AcDbPolyline
 90
5
 70
0
 10
352.449412
 20
304.161851
 30
0.0
 10
452.449413
 20
304.161851
 30
0.0
 10
452.449413
 20
302.252125
 30
0.0
 10
352.449412
 20
302.252125
 30
0.0
 10
352.449412
 20
304.161851
 30
0.0
  0
LWPOLYLINE
  5
1a4
100
AcDbEntity
  8
Layer_1
 62
7
100
AcDbPolyline
 90
5
 70
0
 10
352.449412
 20
316.205975
 30
0.0
 10
452.449413
 20
316.205975
 30
0.0
 10
452.449413
 20
314.296249
 30
0.0
 10
352.449412
 20
314.296249
 30
0.0
 10
352.449412
 20
316.205975
 30
0.0
  0
SPLINE
  5
1a5
100
AcDbEntity
  8
Layer_1
 62
7
100
AcDbSpline
 70
8
 71
3
 72
8
 73
4
 74
0
 40
0
 40
0
 40
0
 40
0
 40
1
 40
1
 40
1
 40
1
 10
394.985474
 20
283.497559
 30
0.0
 10
394.985472
 20
285.765871
 30
0.0
 10
396.063243
 20
287.772460
 30
0.0
 10
398.218791
 20
289.517330
 30
0.0
  0
SPLINE
  5
1a6
100
AcDbEntity
  8
Layer_1
 62
7
100
AcDbSpline
 70
8
 71
3
 72
8
 73
4
 74
0
 40
0
 40
0
 40
0
 40
0
 40
1
 40
1
 40
1
 40
1
 10
398.218791
 20
289.517330
 30
0.0
 10
400.374328
 20
291.305806
 30
0.0
 10
402.656668
 20
292.200046
 30
0.0
 10
405.065814
 20
292.200056
 30
0.0
  0
SPLINE
  5
1a7
100
AcDbEntity
  8
Layer_1
 62
7
100
AcDbSpline
 70
8
 71
3
 72
8
 73
4
 74
0
 40
0
 40
0
 40
0
 40
0
 40
1
 40
1
 40
1
 40
1
 10
405.065814
 20
292.200056
 30
0.0
 10
406.460566
 20
292.200046
 30
0.0
 10
407.707396
 20
291.829268
 30
0.0
 10
408.806319
 20
291.087708
 30
0.0
  0
LWPOLYLINE
  5
1a8
100
AcDbEntity
  8
Layer_1
 62
7
100
AcDbPolyline
 90
5
 70
0
 10
352.449412
 20
328.250097
 30
0.0
 10
452.449413
 20
328.250097
 30
0.0
 10
452.449413
 20
326.340370
 30
0.0
 10
352.449412
 20
326.340370
 30
0.0
 10
352.449412
 20
328.250097
 30
0.0
  0
SPLINE
  5
1a9
100
AcDbEntity
  8
Layer_1
 62
7
100
AcDbSpline
 70
8
 71
3
 72
8
 73
4
 74
0
 40
0
 40
0
 40
0
 40
0
 40
1
 40
1
 40
1
 40
1
 10
410.201086
 20
287.488929
 30
0.0
 10
410.201066
 20
285.046119
 30
0.0
 10
409.165561
 20
283.017717
 30
0.0
 10
407.094562
 20
281.403719
 30
0.0
  0
SPLINE
  5
1aa
100
AcDbEntity
  8
Layer_1
 62
7
100
AcDbSpline
 70
8
 71
3
 72
8
 73
4
 74
0
 40
0
 40
0
 40
0
 40
0
 40
1
 40
1
 40
1
 40
1
 10
407.094562
 20
281.403719
 30
0.0
 10
405.023537
 20
279.789726
 30
0.0
 10
402.741198
 20
278.982722
 30
0.0
 10
400.247539
 20
278.982722
 30
0.0
  0
SPLINE
  5
1ab
100
AcDbEntity
  8
Layer_1
 62
7
100
AcDbSpline
 70
8
 71
3
 72
8
 73
4
 74
0
 40
0
 40
0
 40
0
 40
0
 40
1
 40
1
 40
1
 40
1
 10
400.247539
 20
278.982722
 30
0.0
 10
398.852768
 20
278.982722
 30
0.0
 10
397.627068
 20
279.397130
 30
0.0
 10
396.570434
 20
280.225937
 30
0.0
  0
SPLINE
  5
1ac
100
AcDbEntity
  8
Layer_1
 62
7
100
AcDbSpline
 70
8
 71
3
 72
8
 73
4
 74
0
 40
0
 40
0
 40
0
 40
0
 40
1
 40
1
 40
1
 40
1
 10
396.570434
 20
280.225937
 30
0.0
 10
395.513791
 20
281.098370
 30
0.0
 10
394.985472
 20
282.188910
 30
0.0
 10
394.985474
 20
283.497559
 30
0.0
  0
SPLINE
  5
1ad
100
AcDbEntity
  8
Layer_1
 62
7
100
AcDbSpline
 70
8
 71
3
 72
8
 73
4
 74
0
 40
0
 40
0
 40
0
 40
0
 40
1
 40
1
 40
1
 40
1
 10
397.901799
 20
281.534586
 30
0.0
 10
400.141867
 20
281.534586
 30
0.0
 10
402.403074
 20
282.516068
 30
0.0
 10
404.685426
 20
284.479041
 30
0.0
  0
SPLINE
  5
1ae
100
AcDbEntity
  8
Layer_1
 62
7
100
AcDbSpline
 70
8
 71
3
 72
8
 73
4
 74
0
 40
0
 40
0
 40
0
 40
0
 40
1
 40
1
 40
1
 40
1
 10
404.685426
 20
284.479041
 30
0.0
 10
407.010018
 20
286.442009
 30
0.0
 10
408.172318
 20
287.903327
 30
0.0
 10
408.172333
 20
288.863011
 30
0.0
  0
SPLINE
  5
1af
100
AcDbEntity
  8
Layer_1
 62
7
100
AcDbSpline
 70
8
 71
3
 72
8
 73
4
 74
0
 40
0
 40
0
 40
0
 40
0
 40
1
 40
1
 40
1
 40
1
 10
408.172333
 20
288.863011
 30
0.0
 10
408.172318
 20
289.473700
 30
0.0
 10
407.918726
 20
289.779054
 30
0.0
 10
407.411552
 20
289.779064
 30
0.0
  0
SPLINE
  5
1b0
100
AcDbEntity
  8
Layer_1
 62
7
100
AcDbSpline
 70
8
 71
3
 72
8
 73
4
 74
0
 40
0
 40
0
 40
0
 40
0
 40
1
 40
1
 40
1
 40
1
 10
407.411552
 20
289.779064
 30
0.0
 10
405.847717
 20
289.779054
 30
0.0
 10
403.692173
 20
288.841193
 30
0.0
 10
400.944921
 20
286.965471
 30
0.0
  0
SPLINE
  5
1b1
100
AcDbEntity
  8
Layer_1
 62
7
100
AcDbSpline
 70
8
 71
3
 72
8
 73
4
 74
0
 40
0
 40
0
 40
0
 40
0
 40
1
 40
1
 40
1
 40
1
 10
400.944921
 20
286.965471
 30
0.0
 10
398.239918
 20
285.133365
 30
0.0
 10
396.887421
 20
283.606608
 30
0.0
 10
396.887425
 20
282.385206
 30
0.0
  0
SPLINE
  5
1b2
100
AcDbEntity
  8
Layer_1
 62
7
100
AcDbSpline
 70
8
 71
3
 72
8
 73
4
 74
0
 40
0
 40
0
 40
0
 40
0
 40
1
 40
1
 40
1
 40
1
 10
396.887425
 20
282.385206
 30
0.0
 10
396.887421
 20
281.818123
 30
0.0
 10
397.225545
 20
281.534586
 30
0.0
 10
397.901799
 20
281.534586
 30
0.0
  0
LWPOLYLINE
  5
1b3
100
AcDbEntity
  8
Layer_1
 62
7
100
AcDbPolyline
 90
4
 70
0
 10
408.806319
 20
291.087708
 30
0.0
 10
408.806319
 20
329.823658
 30
0.0
 10
410.201086
 20
329.823658
 30
0.0
 10
410.201086
 20
287.488929
 30
0.0
  0
LWPOLYLINE
  5
1b4
100
AcDbEntity
  8
Layer_1
 62
7
100
AcDbPolyline
 90
2
 70
0
 10
320.588659
 20
400.833836
 30
0.0
 10
418.345339
 20
400.833836
 30
0.0
  0
LWPOLYLINE
  5
1b5
100
AcDbEntity
  8
Layer_1
 62
7
100
AcDbPolyline
 90
2
 70
0
 10
320.330834
 20
388.323276
 30
0.0
 10
418.087516
 20
388.323276
 30
0.0
  0
LWPOLYLINE
  5
1b6
100
AcDbEntity
  8
Layer_1
 62
7
100
AcDbPolyline
 90
2
 70
0
 10
320.330834
 20
375.812716
 30
0.0
 10
418.087516
 20
375.812716
 30
0.0
  0
LWPOLYLINE
  5
1b7
100
AcDbEntity
  8
Layer_1
 62
7
100
AcDbPolyline
 90
2
 70
0
 10
320.330834
 20
363.302157
 30
0.0
 10
418.087516
 20
363.302157
 30
0.0
  0
LWPOLYLINE
  5
1b8
100
AcDbEntity
  8
Layer_1
 62
7
100
AcDbPolyline
 90
2
 70
0
 10
320.330834
 20
350.791577
 30
0.0
 10
418.087516
 20
350.791577
 30
0.0
  0
SPLINE
  5
1b9
100
AcDbEntity
  8
Layer_1
 62
7
100
AcDbSpline
 70
8
 71
3
 72
8
 73
4
 74
0
 40
0
 40
0
 40
0
 40
0
 40
1
 40
1
 40
1
 40
1
 10
376.124337
 20
360.472334
 30
0.0
 10
377.279287
 20
357.819645
 30
0.0
 10
375.347336
 20
354.155308
 30
0.0
 10
371.714852
 20
352.108848
 30
0.0
  0
SPLINE
  5
1ba
100
AcDbEntity
  8
Layer_1
 62
7
100
AcDbSpline
 70
8
 71
3
 72
8
 73
4
 74
0
 40
0
 40
0
 40
0
 40
0
 40
1
 40
1
 40
1
 40
1
 10
371.714852
 20
352.108848
 30
0.0
 10
368.082368
 20
350.062387
 30
0.0
 10
364.004416
 20
350.340881
 30
0.0
 10
362.407333
 20
352.744482
 30
0.0
  0
SPLINE
  5
1bb
100
AcDbEntity
  8
Layer_1
 62
7
100
AcDbSpline
 70
8
 71
3
 72
8
 73
4
 74
0
 40
0
 40
0
 40
0
 40
0
 40
1
 40
1
 40
1
 40
1
 10
362.407333
 20
352.744482
 30
0.0
 10
360.810249
 20
355.148082
 30
0.0
 10
362.245844
 20
358.846317
 30
0.0
 10
365.683937
 20
361.185336
 30
0.0
  0
SPLINE
  5
1bc
100
AcDbEntity
  8
Layer_1
 62
7
100
AcDbSpline
 70
8
 71
3
 72
8
 73
4
 74
0
 40
0
 40
0
 40
0
 40
0
 40
1
 40
1
 40
1
 40
1
 10
365.683937
 20
361.185336
 30
0.0
 10
369.122029
 20
363.524354
 30
0.0
 10
373.374717
 20
363.695997
 30
0.0
 10
375.390274
 20
361.577094
 30
0.0
  0
LWPOLYLINE
  5
1bd
100
AcDbEntity
  8
Layer_1
 62
7
100
AcDbPolyline
 90
2
 70
0
 10
375.953037
 20
400.786631
 30
0.0
 10
375.953037
 20
359.181418
 30
0.0
  0
LWPOLYLINE
  5
1be
100
AcDbEntity
  8
Layer_1
 62
7
100
AcDbPolyline
 90
5
 70
0
 10
-181.401820
 20
344.698664
 30
0.0
 10
-81.480564
 20
344.698664
 30
0.0
 10
-81.480564
 20
342.775102
 30
0.0
 10
-181.401820
 20
342.775102
 30
0.0
 10
-181.401820
 20
344.698664
 30
0.0
  0
LWPOLYLINE
  5
1bf
100
AcDbEntity
  8
Layer_1
 62
7
100
AcDbPolyline
 90
5
 70
0
 10
-181.349825
 20
320.732120
 30
0.0
 10
-81.428569
 20
320.732120
 30
0.0
 10
-81.428569
 20
318.808557
 30
0.0
 10
-181.349825
 20
318.808557
 30
0.0
 10
-181.349825
 20
320.732120
 30
0.0
  0
LWPOLYLINE
  5
1c0
100
AcDbEntity
  8
Layer_1
 62
7
100
AcDbPolyline
 90
5
 70
0
 10
-181.401820
 20
296.765571
 30
0.0
 10
-81.480564
 20
296.765571
 30
0.0
 10
-81.480564
 20
294.842009
 30
0.0
 10
-181.401820
 20
294.842009
 30
0.0
 10
-181.401820
 20
296.765571
 30
0.0
  0
LWPOLYLINE
  5
1c1
100
AcDbEntity
  8
Layer_1
 62
7
100
AcDbPolyline
 90
5
 70
0
 10
-181.428571
 20
308.577334
 30
0.0
 10
-81.507315
 20
308.577334
 30
0.0
 10
-81.507315
 20
306.653772
 30
0.0
 10
-181.428571
 20
306.653772
 30
0.0
 10
-181.428571
 20
308.577334
 30
0.0
  0
SPLINE
  5
1c2
100
AcDbEntity
  8
Layer_1
 62
7
100
AcDbSpline
 70
8
 71
3
 72
8
 73
4
 74
0
 40
0
 40
0
 40
0
 40
0
 40
1
 40
1
 40
1
 40
1
 10
-136.566862
 20
314.541568
 30
0.0
 10
-139.310300
 20
315.385952
 30
0.0
 10
-141.474903
 20
317.680542
 30
0.0
 10
-141.474903
 20
319.744344
 30
0.0
  0
SPLINE
  5
1c3
100
AcDbEntity
  8
Layer_1
 62
7
100
AcDbSpline
 70
8
 71
3
 72
8
 73
4
 74
0
 40
0
 40
0
 40
0
 40
0
 40
1
 40
1
 40
1
 40
1
 10
-141.474903
 20
319.744344
 30
0.0
 10
-141.474903
 20
325.585765
 30
0.0
 10
-128.928080
 20
327.897371
 30
0.0
 10
-123.746575
 20
323.010582
 30
0.0
  0
SPLINE
  5
1c4
100
AcDbEntity
  8
Layer_1
 62
7
100
AcDbSpline
 70
8
 71
3
 72
8
 73
4
 74
0
 40
0
 40
0
 40
0
 40
0
 40
1
 40
1
 40
1
 40
1
 10
-123.746575
 20
323.010582
 30
0.0
 10
-118.143402
 20
317.726113
 30
0.0
 10
-127.287533
 20
311.685550
 30
0.0
 10
-136.566862
 20
314.541568
 30
0.0
  0
LWPOLYLINE
  5
1c5
100
AcDbEntity
  8
Layer_1
 62
7
100
AcDbPolyline
 90
5
 70
0
 10
-181.402579
 20
332.673850
 30
0.0
 10
-81.481323
 20
332.673850
 30
0.0
 10
-81.481323
 20
330.750288
 30
0.0
 10
-181.402579
 20
330.750288
 30
0.0
 10
-181.402579
 20
332.673850
 30
0.0
  0
SPLINE
  5
1c6
100
AcDbEntity
  8
Layer_1
 62
7
100
AcDbSpline
 70
8
 71
3
 72
8
 73
4
 74
0
 40
0
 40
0
 40
0
 40
0
 40
1
 40
1
 40
1
 40
1
 10
-128.198086
 20
316.009031
 30
0.0
 10
-126.671611
 20
318.338727
 30
0.0
 10
-128.131044
 20
322.954521
 30
0.0
 10
-130.775029
 20
324.159199
 30
0.0
  0
SPLINE
  5
1c7
100
AcDbEntity
  8
Layer_1
 62
7
100
AcDbSpline
 70
8
 71
3
 72
8
 73
4
 74
0
 40
0
 40
0
 40
0
 40
0
 40
1
 40
1
 40
1
 40
1
 10
-130.775029
 20
324.159199
 30
0.0
 10
-134.657812
 20
325.928315
 30
0.0
 10
-137.037820
 20
322.913556
 30
0.0
 10
-135.420660
 20
318.274569
 30
0.0
  0
SPLINE
  5
1c8
100
AcDbEntity
  8
Layer_1
 62
7
100
AcDbSpline
 70
8
 71
3
 72
8
 73
4
 74
0
 40
0
 40
0
 40
0
 40
0
 40
1
 40
1
 40
1
 40
1
 10
-135.420660
 20
318.274569
 30
0.0
 10
-134.302108
 20
315.065888
 30
0.0
 10
-129.751363
 20
313.638430
 30
0.0
 10
-128.198086
 20
316.009031
 30
0.0
  0
LWPOLYLINE
  5
1c9
100
AcDbEntity
  8
Layer_1
 62
7
100
AcDbPolyline
 90
2
 70
0
 10
-136.566862
 20
314.541568
 30
0.0
 10
-136.566862
 20
314.541568
 30
0.0
  0
LWPOLYLINE
  5
1ca
100
AcDbEntity
  8
Layer_1
 62
7
100
AcDbPolyline
 90
2
 70
0
 10
-128.198086
 20
316.009031
 30
0.0
 10
-128.198086
 20
316.009031
 30
0.0
  0
ENDSEC
  0
SECTION
  2
OBJECTS
  0
DICTIONARY
  5
C
330
0
100
AcDbDictionary
  3
ACAD_GROUP
350
D
  3
ACAD_MLINESTYLE
350
17
  0
DICTIONARY
  5
D
330
C
100
AcDbDictionary
  0
DICTIONARY
  5
1A
330
C
100
AcDbDictionary
  0
DICTIONARY
  5
17
330
C
100
AcDbDictionary
  3
STANDARD
350
18
  0
DICTIONARY
  5
19
330
C
100
AcDbDictionary
  0
ENDSEC
  0
EOF
